<mxfile host="app.diagrams.net" modified="2022-06-07T22:21:57.211Z" agent="5.0 (Windows NT 10.0; Win64; x64) AppleWebKit/537.36 (KHTML, like Gecko) Chrome/102.0.5005.63 Safari/537.36" etag="7n749YDIgLBvo_tFvyQx" version="19.0.1" type="github">
  <diagram id="sc7eF7NyWI0LZNZIMm0Y" name="Page-1">
    <mxGraphModel dx="1399" dy="882" grid="1" gridSize="10" guides="1" tooltips="1" connect="1" arrows="0" fold="1" page="1" pageScale="1" pageWidth="1100" pageHeight="850" background="#FFFFFF" math="0" shadow="0">
      <root>
        <mxCell id="0" />
        <mxCell id="1" parent="0" />
        <mxCell id="GkxkM57QEwcgZs1372AV-10" value="" style="ellipse;whiteSpace=wrap;html=1;aspect=fixed;allowArrows=0;rounded=0;" parent="1" vertex="1">
          <mxGeometry x="240" y="80" width="20" height="20" as="geometry" />
        </mxCell>
        <mxCell id="GkxkM57QEwcgZs1372AV-16" value="" style="ellipse;whiteSpace=wrap;html=1;aspect=fixed;rounded=0;" parent="1" vertex="1">
          <mxGeometry x="240" y="120" width="20" height="20" as="geometry" />
        </mxCell>
        <mxCell id="GkxkM57QEwcgZs1372AV-31" value="" style="ellipse;whiteSpace=wrap;html=1;aspect=fixed;fillColor=#000000;strokeWidth=0;rounded=0;" parent="1" vertex="1">
          <mxGeometry x="248" y="398" width="4" height="4" as="geometry" />
        </mxCell>
        <mxCell id="GkxkM57QEwcgZs1372AV-32" value="" style="ellipse;whiteSpace=wrap;html=1;aspect=fixed;fillColor=#000000;strokeWidth=0;rounded=0;" parent="1" vertex="1">
          <mxGeometry x="248" y="408" width="4" height="4" as="geometry" />
        </mxCell>
        <mxCell id="GkxkM57QEwcgZs1372AV-33" value="" style="ellipse;whiteSpace=wrap;html=1;aspect=fixed;fillColor=#000000;strokeWidth=0;rounded=0;" parent="1" vertex="1">
          <mxGeometry x="248" y="418" width="4" height="4" as="geometry" />
        </mxCell>
        <mxCell id="GkxkM57QEwcgZs1372AV-35" value="" style="ellipse;whiteSpace=wrap;html=1;aspect=fixed;rounded=0;" parent="1" vertex="1">
          <mxGeometry x="440" y="160" width="20" height="20" as="geometry" />
        </mxCell>
        <mxCell id="GkxkM57QEwcgZs1372AV-36" value="" style="ellipse;whiteSpace=wrap;html=1;aspect=fixed;rounded=0;" parent="1" vertex="1">
          <mxGeometry x="440" y="200" width="20" height="20" as="geometry" />
        </mxCell>
        <mxCell id="GkxkM57QEwcgZs1372AV-37" value="" style="ellipse;whiteSpace=wrap;html=1;aspect=fixed;rounded=0;" parent="1" vertex="1">
          <mxGeometry x="440" y="240" width="20" height="20" as="geometry" />
        </mxCell>
        <mxCell id="GkxkM57QEwcgZs1372AV-38" value="" style="ellipse;whiteSpace=wrap;html=1;aspect=fixed;rounded=0;" parent="1" vertex="1">
          <mxGeometry x="440" y="280" width="20" height="20" as="geometry" />
        </mxCell>
        <mxCell id="GkxkM57QEwcgZs1372AV-39" value="" style="ellipse;whiteSpace=wrap;html=1;aspect=fixed;rounded=0;" parent="1" vertex="1">
          <mxGeometry x="440" y="320" width="20" height="20" as="geometry" />
        </mxCell>
        <mxCell id="GkxkM57QEwcgZs1372AV-40" value="" style="ellipse;whiteSpace=wrap;html=1;aspect=fixed;rounded=0;" parent="1" vertex="1">
          <mxGeometry x="440" y="360" width="20" height="20" as="geometry" />
        </mxCell>
        <mxCell id="GkxkM57QEwcgZs1372AV-41" value="" style="ellipse;whiteSpace=wrap;html=1;aspect=fixed;rounded=0;" parent="1" vertex="1">
          <mxGeometry x="440" y="440" width="20" height="20" as="geometry" />
        </mxCell>
        <mxCell id="GkxkM57QEwcgZs1372AV-42" value="" style="ellipse;whiteSpace=wrap;html=1;aspect=fixed;rounded=0;" parent="1" vertex="1">
          <mxGeometry x="440" y="480" width="20" height="20" as="geometry" />
        </mxCell>
        <mxCell id="GkxkM57QEwcgZs1372AV-43" value="" style="ellipse;whiteSpace=wrap;html=1;aspect=fixed;rounded=0;" parent="1" vertex="1">
          <mxGeometry x="440" y="520" width="20" height="20" as="geometry" />
        </mxCell>
        <mxCell id="GkxkM57QEwcgZs1372AV-44" value="" style="ellipse;whiteSpace=wrap;html=1;aspect=fixed;rounded=0;" parent="1" vertex="1">
          <mxGeometry x="440" y="560" width="20" height="20" as="geometry" />
        </mxCell>
        <mxCell id="GkxkM57QEwcgZs1372AV-45" value="" style="ellipse;whiteSpace=wrap;html=1;aspect=fixed;rounded=0;" parent="1" vertex="1">
          <mxGeometry x="440" y="600" width="20" height="20" as="geometry" />
        </mxCell>
        <mxCell id="GkxkM57QEwcgZs1372AV-46" value="" style="ellipse;whiteSpace=wrap;html=1;aspect=fixed;rounded=0;" parent="1" vertex="1">
          <mxGeometry x="440" y="640" width="20" height="20" as="geometry" />
        </mxCell>
        <mxCell id="GkxkM57QEwcgZs1372AV-47" value="" style="ellipse;whiteSpace=wrap;html=1;aspect=fixed;fillColor=#000000;strokeWidth=0;rounded=0;" parent="1" vertex="1">
          <mxGeometry x="448" y="398" width="4" height="4" as="geometry" />
        </mxCell>
        <mxCell id="GkxkM57QEwcgZs1372AV-48" value="" style="ellipse;whiteSpace=wrap;html=1;aspect=fixed;fillColor=#000000;strokeWidth=0;rounded=0;" parent="1" vertex="1">
          <mxGeometry x="448" y="408" width="4" height="4" as="geometry" />
        </mxCell>
        <mxCell id="GkxkM57QEwcgZs1372AV-49" value="" style="ellipse;whiteSpace=wrap;html=1;aspect=fixed;fillColor=#000000;strokeWidth=0;rounded=0;" parent="1" vertex="1">
          <mxGeometry x="448" y="418" width="4" height="4" as="geometry" />
        </mxCell>
        <mxCell id="GkxkM57QEwcgZs1372AV-68" value="" style="endArrow=none;html=1;entryX=1;entryY=0.5;entryDx=0;entryDy=0;exitX=0;exitY=0.5;exitDx=0;exitDy=0;strokeWidth=1;rounded=0;strokeColor=#525252;" parent="1" source="GkxkM57QEwcgZs1372AV-35" target="GkxkM57QEwcgZs1372AV-10" edge="1">
          <mxGeometry width="50" height="50" relative="1" as="geometry">
            <mxPoint x="390" y="470" as="sourcePoint" />
            <mxPoint x="440" y="420" as="targetPoint" />
          </mxGeometry>
        </mxCell>
        <mxCell id="GkxkM57QEwcgZs1372AV-70" value="" style="endArrow=none;html=1;entryX=1;entryY=0.5;entryDx=0;entryDy=0;exitX=0;exitY=0.5;exitDx=0;exitDy=0;strokeWidth=1;rounded=0;strokeColor=#525252;" parent="1" source="GkxkM57QEwcgZs1372AV-36" target="GkxkM57QEwcgZs1372AV-10" edge="1">
          <mxGeometry width="50" height="50" relative="1" as="geometry">
            <mxPoint x="379.99999999998363" y="192" as="sourcePoint" />
            <mxPoint x="240" y="112" as="targetPoint" />
          </mxGeometry>
        </mxCell>
        <mxCell id="GkxkM57QEwcgZs1372AV-74" value="" style="endArrow=none;html=1;entryX=1;entryY=0.5;entryDx=0;entryDy=0;exitX=0;exitY=0.5;exitDx=0;exitDy=0;strokeWidth=1;rounded=0;strokeColor=#525252;" parent="1" source="GkxkM57QEwcgZs1372AV-37" target="GkxkM57QEwcgZs1372AV-10" edge="1">
          <mxGeometry width="50" height="50" relative="1" as="geometry">
            <mxPoint x="370" y="222" as="sourcePoint" />
            <mxPoint x="230" y="102" as="targetPoint" />
          </mxGeometry>
        </mxCell>
        <mxCell id="GkxkM57QEwcgZs1372AV-75" value="" style="endArrow=none;html=1;entryX=1;entryY=0.5;entryDx=0;entryDy=0;exitX=0;exitY=0.5;exitDx=0;exitDy=0;strokeWidth=1;rounded=0;strokeColor=#525252;" parent="1" source="GkxkM57QEwcgZs1372AV-38" target="GkxkM57QEwcgZs1372AV-10" edge="1">
          <mxGeometry width="50" height="50" relative="1" as="geometry">
            <mxPoint x="380" y="232" as="sourcePoint" />
            <mxPoint x="240" y="112" as="targetPoint" />
          </mxGeometry>
        </mxCell>
        <mxCell id="GkxkM57QEwcgZs1372AV-76" value="" style="endArrow=none;html=1;entryX=1;entryY=0.5;entryDx=0;entryDy=0;exitX=0;exitY=0.5;exitDx=0;exitDy=0;strokeWidth=1;rounded=0;strokeColor=#525252;" parent="1" source="GkxkM57QEwcgZs1372AV-39" target="GkxkM57QEwcgZs1372AV-10" edge="1">
          <mxGeometry width="50" height="50" relative="1" as="geometry">
            <mxPoint x="390" y="242" as="sourcePoint" />
            <mxPoint x="250" y="122" as="targetPoint" />
          </mxGeometry>
        </mxCell>
        <mxCell id="GkxkM57QEwcgZs1372AV-77" value="" style="endArrow=none;html=1;exitX=0;exitY=0.5;exitDx=0;exitDy=0;strokeWidth=1;rounded=0;strokeColor=#525252;entryX=1;entryY=0.5;entryDx=0;entryDy=0;" parent="1" source="GkxkM57QEwcgZs1372AV-40" target="GkxkM57QEwcgZs1372AV-10" edge="1">
          <mxGeometry width="50" height="50" relative="1" as="geometry">
            <mxPoint x="400" y="252" as="sourcePoint" />
            <mxPoint x="240" y="90" as="targetPoint" />
          </mxGeometry>
        </mxCell>
        <mxCell id="GkxkM57QEwcgZs1372AV-78" value="" style="endArrow=none;html=1;entryX=1;entryY=0.5;entryDx=0;entryDy=0;exitX=0;exitY=0.5;exitDx=0;exitDy=0;strokeWidth=1;rounded=0;strokeColor=#525252;" parent="1" source="GkxkM57QEwcgZs1372AV-41" target="GkxkM57QEwcgZs1372AV-10" edge="1">
          <mxGeometry width="50" height="50" relative="1" as="geometry">
            <mxPoint x="410" y="262" as="sourcePoint" />
            <mxPoint x="270" y="142" as="targetPoint" />
          </mxGeometry>
        </mxCell>
        <mxCell id="GkxkM57QEwcgZs1372AV-79" value="" style="endArrow=none;html=1;entryX=1;entryY=0.5;entryDx=0;entryDy=0;exitX=0;exitY=0.5;exitDx=0;exitDy=0;strokeWidth=1;rounded=0;strokeColor=#525252;" parent="1" source="GkxkM57QEwcgZs1372AV-42" target="GkxkM57QEwcgZs1372AV-10" edge="1">
          <mxGeometry width="50" height="50" relative="1" as="geometry">
            <mxPoint x="420" y="272" as="sourcePoint" />
            <mxPoint x="280" y="152" as="targetPoint" />
          </mxGeometry>
        </mxCell>
        <mxCell id="GkxkM57QEwcgZs1372AV-80" value="" style="endArrow=none;html=1;entryX=1;entryY=0.5;entryDx=0;entryDy=0;exitX=0;exitY=0.5;exitDx=0;exitDy=0;strokeWidth=1;rounded=0;strokeColor=#525252;" parent="1" source="GkxkM57QEwcgZs1372AV-43" target="GkxkM57QEwcgZs1372AV-10" edge="1">
          <mxGeometry width="50" height="50" relative="1" as="geometry">
            <mxPoint x="430" y="282" as="sourcePoint" />
            <mxPoint x="290" y="162" as="targetPoint" />
          </mxGeometry>
        </mxCell>
        <mxCell id="GkxkM57QEwcgZs1372AV-81" value="" style="endArrow=none;html=1;entryX=1;entryY=0.5;entryDx=0;entryDy=0;exitX=0;exitY=0.5;exitDx=0;exitDy=0;strokeWidth=1;rounded=0;strokeColor=#525252;" parent="1" source="GkxkM57QEwcgZs1372AV-44" target="GkxkM57QEwcgZs1372AV-10" edge="1">
          <mxGeometry width="50" height="50" relative="1" as="geometry">
            <mxPoint x="440" y="292" as="sourcePoint" />
            <mxPoint x="300" y="172" as="targetPoint" />
          </mxGeometry>
        </mxCell>
        <mxCell id="GkxkM57QEwcgZs1372AV-82" value="" style="endArrow=none;html=1;entryX=1;entryY=0.5;entryDx=0;entryDy=0;exitX=0;exitY=0.5;exitDx=0;exitDy=0;strokeWidth=1;rounded=0;strokeColor=#525252;" parent="1" source="GkxkM57QEwcgZs1372AV-45" target="GkxkM57QEwcgZs1372AV-10" edge="1">
          <mxGeometry width="50" height="50" relative="1" as="geometry">
            <mxPoint x="450" y="302" as="sourcePoint" />
            <mxPoint x="310" y="182" as="targetPoint" />
          </mxGeometry>
        </mxCell>
        <mxCell id="GkxkM57QEwcgZs1372AV-83" value="" style="endArrow=none;html=1;entryX=1;entryY=0.5;entryDx=0;entryDy=0;exitX=0;exitY=0.5;exitDx=0;exitDy=0;strokeWidth=1;rounded=0;strokeColor=#525252;" parent="1" source="GkxkM57QEwcgZs1372AV-46" target="GkxkM57QEwcgZs1372AV-10" edge="1">
          <mxGeometry width="50" height="50" relative="1" as="geometry">
            <mxPoint x="460" y="312" as="sourcePoint" />
            <mxPoint x="320" y="192" as="targetPoint" />
          </mxGeometry>
        </mxCell>
        <mxCell id="GkxkM57QEwcgZs1372AV-84" value="" style="endArrow=none;html=1;entryX=1;entryY=0.5;entryDx=0;entryDy=0;strokeWidth=1;rounded=0;strokeColor=#525252;exitX=0;exitY=0.5;exitDx=0;exitDy=0;" parent="1" source="GkxkM57QEwcgZs1372AV-36" target="GkxkM57QEwcgZs1372AV-16" edge="1">
          <mxGeometry width="50" height="50" relative="1" as="geometry">
            <mxPoint x="340" y="220" as="sourcePoint" />
            <mxPoint x="220" y="134" as="targetPoint" />
          </mxGeometry>
        </mxCell>
        <mxCell id="GkxkM57QEwcgZs1372AV-85" value="" style="endArrow=none;html=1;entryX=1;entryY=0.5;entryDx=0;entryDy=0;strokeWidth=1;rounded=0;strokeColor=#525252;exitX=0;exitY=0.5;exitDx=0;exitDy=0;" parent="1" source="GkxkM57QEwcgZs1372AV-37" target="GkxkM57QEwcgZs1372AV-16" edge="1">
          <mxGeometry width="50" height="50" relative="1" as="geometry">
            <mxPoint x="360" y="250" as="sourcePoint" />
            <mxPoint x="220" y="134" as="targetPoint" />
          </mxGeometry>
        </mxCell>
        <mxCell id="GkxkM57QEwcgZs1372AV-86" value="" style="endArrow=none;html=1;entryX=1;entryY=0.5;entryDx=0;entryDy=0;exitX=0;exitY=0.5;exitDx=0;exitDy=0;strokeWidth=1;rounded=0;strokeColor=#525252;" parent="1" source="GkxkM57QEwcgZs1372AV-38" target="GkxkM57QEwcgZs1372AV-16" edge="1">
          <mxGeometry width="50" height="50" relative="1" as="geometry">
            <mxPoint x="360" y="294" as="sourcePoint" />
            <mxPoint x="220" y="134" as="targetPoint" />
          </mxGeometry>
        </mxCell>
        <mxCell id="GkxkM57QEwcgZs1372AV-87" value="" style="endArrow=none;html=1;entryX=1;entryY=0.5;entryDx=0;entryDy=0;exitX=0;exitY=0.5;exitDx=0;exitDy=0;strokeWidth=1;rounded=0;strokeColor=#525252;" parent="1" source="GkxkM57QEwcgZs1372AV-39" target="GkxkM57QEwcgZs1372AV-16" edge="1">
          <mxGeometry width="50" height="50" relative="1" as="geometry">
            <mxPoint x="360" y="334" as="sourcePoint" />
            <mxPoint x="220" y="134" as="targetPoint" />
          </mxGeometry>
        </mxCell>
        <mxCell id="GkxkM57QEwcgZs1372AV-88" value="" style="endArrow=none;html=1;entryX=1;entryY=0.5;entryDx=0;entryDy=0;strokeWidth=1;rounded=0;strokeColor=#525252;exitX=0;exitY=0.5;exitDx=0;exitDy=0;" parent="1" source="GkxkM57QEwcgZs1372AV-40" target="GkxkM57QEwcgZs1372AV-16" edge="1">
          <mxGeometry width="50" height="50" relative="1" as="geometry">
            <mxPoint x="360" y="374" as="sourcePoint" />
            <mxPoint x="220" y="134" as="targetPoint" />
          </mxGeometry>
        </mxCell>
        <mxCell id="GkxkM57QEwcgZs1372AV-90" value="" style="endArrow=none;html=1;entryX=1;entryY=0.5;entryDx=0;entryDy=0;exitX=0;exitY=0.5;exitDx=0;exitDy=0;strokeWidth=1;rounded=0;strokeColor=#525252;" parent="1" source="GkxkM57QEwcgZs1372AV-41" target="GkxkM57QEwcgZs1372AV-16" edge="1">
          <mxGeometry width="50" height="50" relative="1" as="geometry">
            <mxPoint x="360" y="514" as="sourcePoint" />
            <mxPoint x="220" y="134" as="targetPoint" />
          </mxGeometry>
        </mxCell>
        <mxCell id="GkxkM57QEwcgZs1372AV-91" value="" style="endArrow=none;html=1;entryX=1;entryY=0.5;entryDx=0;entryDy=0;exitX=0;exitY=0.5;exitDx=0;exitDy=0;strokeWidth=1;rounded=0;strokeColor=#525252;" parent="1" source="GkxkM57QEwcgZs1372AV-42" target="GkxkM57QEwcgZs1372AV-16" edge="1">
          <mxGeometry width="50" height="50" relative="1" as="geometry">
            <mxPoint x="360" y="554" as="sourcePoint" />
            <mxPoint x="220" y="134" as="targetPoint" />
          </mxGeometry>
        </mxCell>
        <mxCell id="GkxkM57QEwcgZs1372AV-92" value="" style="endArrow=none;html=1;entryX=1;entryY=0.5;entryDx=0;entryDy=0;exitX=0;exitY=0.5;exitDx=0;exitDy=0;strokeWidth=1;rounded=0;strokeColor=#525252;" parent="1" source="GkxkM57QEwcgZs1372AV-43" target="GkxkM57QEwcgZs1372AV-16" edge="1">
          <mxGeometry width="50" height="50" relative="1" as="geometry">
            <mxPoint x="360" y="594" as="sourcePoint" />
            <mxPoint x="220" y="134" as="targetPoint" />
          </mxGeometry>
        </mxCell>
        <mxCell id="GkxkM57QEwcgZs1372AV-93" value="" style="endArrow=none;html=1;entryX=1;entryY=0.5;entryDx=0;entryDy=0;exitX=0;exitY=0.5;exitDx=0;exitDy=0;strokeWidth=1;rounded=0;strokeColor=#525252;" parent="1" source="GkxkM57QEwcgZs1372AV-44" target="GkxkM57QEwcgZs1372AV-16" edge="1">
          <mxGeometry width="50" height="50" relative="1" as="geometry">
            <mxPoint x="360" y="634" as="sourcePoint" />
            <mxPoint x="220" y="134" as="targetPoint" />
          </mxGeometry>
        </mxCell>
        <mxCell id="GkxkM57QEwcgZs1372AV-94" value="" style="endArrow=none;html=1;entryX=1;entryY=0.5;entryDx=0;entryDy=0;exitX=0;exitY=0.5;exitDx=0;exitDy=0;strokeWidth=1;rounded=0;strokeColor=#525252;" parent="1" source="GkxkM57QEwcgZs1372AV-45" target="GkxkM57QEwcgZs1372AV-16" edge="1">
          <mxGeometry width="50" height="50" relative="1" as="geometry">
            <mxPoint x="360" y="674" as="sourcePoint" />
            <mxPoint x="220" y="134" as="targetPoint" />
          </mxGeometry>
        </mxCell>
        <mxCell id="GkxkM57QEwcgZs1372AV-96" value="" style="endArrow=none;html=1;entryX=1;entryY=0.5;entryDx=0;entryDy=0;exitX=0;exitY=0.5;exitDx=0;exitDy=0;strokeWidth=1;rounded=0;strokeColor=#525252;" parent="1" source="GkxkM57QEwcgZs1372AV-46" target="GkxkM57QEwcgZs1372AV-16" edge="1">
          <mxGeometry width="50" height="50" relative="1" as="geometry">
            <mxPoint x="490.000000000015" y="602" as="sourcePoint" />
            <mxPoint x="230.0000000000075" y="102" as="targetPoint" />
          </mxGeometry>
        </mxCell>
        <mxCell id="GkxkM57QEwcgZs1372AV-123" value="" style="ellipse;whiteSpace=wrap;html=1;aspect=fixed;allowArrows=0;rounded=0;" parent="1" vertex="1">
          <mxGeometry x="240" y="160" width="20" height="20" as="geometry" />
        </mxCell>
        <mxCell id="GkxkM57QEwcgZs1372AV-124" value="" style="endArrow=none;html=1;entryX=1;entryY=0.5;entryDx=0;entryDy=0;exitX=0;exitY=0.5;exitDx=0;exitDy=0;strokeWidth=1;rounded=0;strokeColor=#525252;" parent="1" source="GkxkM57QEwcgZs1372AV-37" target="GkxkM57QEwcgZs1372AV-123" edge="1">
          <mxGeometry width="50" height="50" relative="1" as="geometry">
            <mxPoint x="480" y="172" as="sourcePoint" />
            <mxPoint x="440" y="500" as="targetPoint" />
          </mxGeometry>
        </mxCell>
        <mxCell id="GkxkM57QEwcgZs1372AV-125" value="" style="endArrow=none;html=1;entryX=1;entryY=0.5;entryDx=0;entryDy=0;exitX=0;exitY=0.5;exitDx=0;exitDy=0;strokeWidth=1;rounded=0;strokeColor=#525252;" parent="1" source="GkxkM57QEwcgZs1372AV-38" target="GkxkM57QEwcgZs1372AV-123" edge="1">
          <mxGeometry width="50" height="50" relative="1" as="geometry">
            <mxPoint x="480" y="212" as="sourcePoint" />
            <mxPoint x="240" y="192" as="targetPoint" />
          </mxGeometry>
        </mxCell>
        <mxCell id="GkxkM57QEwcgZs1372AV-126" value="" style="endArrow=none;html=1;entryX=1;entryY=0.5;entryDx=0;entryDy=0;exitX=0;exitY=0.5;exitDx=0;exitDy=0;strokeWidth=1;rounded=0;strokeColor=#525252;" parent="1" source="GkxkM57QEwcgZs1372AV-39" target="GkxkM57QEwcgZs1372AV-123" edge="1">
          <mxGeometry width="50" height="50" relative="1" as="geometry">
            <mxPoint x="480" y="252" as="sourcePoint" />
            <mxPoint x="230" y="182" as="targetPoint" />
          </mxGeometry>
        </mxCell>
        <mxCell id="GkxkM57QEwcgZs1372AV-127" value="" style="endArrow=none;html=1;entryX=1;entryY=0.5;entryDx=0;entryDy=0;exitX=0;exitY=0.5;exitDx=0;exitDy=0;strokeWidth=1;rounded=0;strokeColor=#525252;" parent="1" source="GkxkM57QEwcgZs1372AV-40" target="GkxkM57QEwcgZs1372AV-123" edge="1">
          <mxGeometry width="50" height="50" relative="1" as="geometry">
            <mxPoint x="480" y="292" as="sourcePoint" />
            <mxPoint x="240" y="192" as="targetPoint" />
          </mxGeometry>
        </mxCell>
        <mxCell id="GkxkM57QEwcgZs1372AV-128" value="" style="endArrow=none;html=1;entryX=1;entryY=0.5;entryDx=0;entryDy=0;exitX=0;exitY=0.5;exitDx=0;exitDy=0;strokeWidth=1;rounded=0;strokeColor=#525252;" parent="1" source="GkxkM57QEwcgZs1372AV-41" target="GkxkM57QEwcgZs1372AV-123" edge="1">
          <mxGeometry width="50" height="50" relative="1" as="geometry">
            <mxPoint x="480" y="332" as="sourcePoint" />
            <mxPoint x="250" y="202" as="targetPoint" />
          </mxGeometry>
        </mxCell>
        <mxCell id="GkxkM57QEwcgZs1372AV-129" value="" style="endArrow=none;html=1;exitX=0;exitY=0.5;exitDx=0;exitDy=0;strokeWidth=1;rounded=0;strokeColor=#525252;entryX=1;entryY=0.5;entryDx=0;entryDy=0;" parent="1" source="GkxkM57QEwcgZs1372AV-42" target="GkxkM57QEwcgZs1372AV-123" edge="1">
          <mxGeometry width="50" height="50" relative="1" as="geometry">
            <mxPoint x="480" y="372" as="sourcePoint" />
            <mxPoint x="240" y="170" as="targetPoint" />
          </mxGeometry>
        </mxCell>
        <mxCell id="GkxkM57QEwcgZs1372AV-130" value="" style="endArrow=none;html=1;entryX=1;entryY=0.5;entryDx=0;entryDy=0;exitX=0;exitY=0.5;exitDx=0;exitDy=0;strokeWidth=1;rounded=0;strokeColor=#525252;" parent="1" source="GkxkM57QEwcgZs1372AV-44" target="GkxkM57QEwcgZs1372AV-123" edge="1">
          <mxGeometry width="50" height="50" relative="1" as="geometry">
            <mxPoint x="480" y="472" as="sourcePoint" />
            <mxPoint x="270" y="222" as="targetPoint" />
          </mxGeometry>
        </mxCell>
        <mxCell id="GkxkM57QEwcgZs1372AV-131" value="" style="endArrow=none;html=1;entryX=1;entryY=0.5;entryDx=0;entryDy=0;exitX=0;exitY=0.5;exitDx=0;exitDy=0;strokeWidth=1;rounded=0;strokeColor=#525252;" parent="1" source="GkxkM57QEwcgZs1372AV-45" target="GkxkM57QEwcgZs1372AV-123" edge="1">
          <mxGeometry width="50" height="50" relative="1" as="geometry">
            <mxPoint x="480" y="512" as="sourcePoint" />
            <mxPoint x="280" y="232" as="targetPoint" />
          </mxGeometry>
        </mxCell>
        <mxCell id="GkxkM57QEwcgZs1372AV-132" value="" style="endArrow=none;html=1;entryX=1;entryY=0.5;entryDx=0;entryDy=0;exitX=0;exitY=0.5;exitDx=0;exitDy=0;strokeWidth=1;rounded=0;strokeColor=#525252;" parent="1" source="GkxkM57QEwcgZs1372AV-46" target="GkxkM57QEwcgZs1372AV-123" edge="1">
          <mxGeometry width="50" height="50" relative="1" as="geometry">
            <mxPoint x="480" y="552" as="sourcePoint" />
            <mxPoint x="290" y="242" as="targetPoint" />
          </mxGeometry>
        </mxCell>
        <mxCell id="GkxkM57QEwcgZs1372AV-133" value="" style="endArrow=none;html=1;entryX=1;entryY=0.5;entryDx=0;entryDy=0;exitX=0;exitY=0.5;exitDx=0;exitDy=0;strokeWidth=1;rounded=0;strokeColor=#525252;" parent="1" source="GkxkM57QEwcgZs1372AV-36" target="GkxkM57QEwcgZs1372AV-123" edge="1">
          <mxGeometry width="50" height="50" relative="1" as="geometry">
            <mxPoint x="480" y="592" as="sourcePoint" />
            <mxPoint x="300" y="252" as="targetPoint" />
          </mxGeometry>
        </mxCell>
        <mxCell id="GkxkM57QEwcgZs1372AV-134" value="" style="endArrow=none;html=1;entryX=1;entryY=0.5;entryDx=0;entryDy=0;exitX=0;exitY=0.5;exitDx=0;exitDy=0;strokeWidth=1;rounded=0;strokeColor=#525252;" parent="1" source="GkxkM57QEwcgZs1372AV-35" target="GkxkM57QEwcgZs1372AV-123" edge="1">
          <mxGeometry width="50" height="50" relative="1" as="geometry">
            <mxPoint x="480" y="632" as="sourcePoint" />
            <mxPoint x="310" y="262" as="targetPoint" />
          </mxGeometry>
        </mxCell>
        <mxCell id="GkxkM57QEwcgZs1372AV-135" value="" style="endArrow=none;html=1;entryX=1;entryY=0.5;entryDx=0;entryDy=0;exitX=0;exitY=0.5;exitDx=0;exitDy=0;strokeWidth=1;rounded=0;strokeColor=#525252;" parent="1" source="GkxkM57QEwcgZs1372AV-43" target="GkxkM57QEwcgZs1372AV-123" edge="1">
          <mxGeometry width="50" height="50" relative="1" as="geometry">
            <mxPoint x="480" y="672" as="sourcePoint" />
            <mxPoint x="320" y="272" as="targetPoint" />
          </mxGeometry>
        </mxCell>
        <mxCell id="GkxkM57QEwcgZs1372AV-175" value="" style="ellipse;whiteSpace=wrap;html=1;aspect=fixed;allowArrows=0;rounded=0;" parent="1" vertex="1">
          <mxGeometry x="240" y="200" width="20" height="20" as="geometry" />
        </mxCell>
        <mxCell id="GkxkM57QEwcgZs1372AV-176" value="" style="endArrow=none;html=1;entryX=1;entryY=0.5;entryDx=0;entryDy=0;exitX=0;exitY=0.5;exitDx=0;exitDy=0;strokeWidth=1;rounded=0;strokeColor=#525252;" parent="1" source="GkxkM57QEwcgZs1372AV-37" target="GkxkM57QEwcgZs1372AV-175" edge="1">
          <mxGeometry width="50" height="50" relative="1" as="geometry">
            <mxPoint x="480" y="332" as="sourcePoint" />
            <mxPoint x="440" y="540" as="targetPoint" />
          </mxGeometry>
        </mxCell>
        <mxCell id="GkxkM57QEwcgZs1372AV-177" value="" style="endArrow=none;html=1;entryX=1;entryY=0.5;entryDx=0;entryDy=0;exitX=0;exitY=0.5;exitDx=0;exitDy=0;strokeWidth=1;rounded=0;strokeColor=#525252;" parent="1" source="GkxkM57QEwcgZs1372AV-38" target="GkxkM57QEwcgZs1372AV-175" edge="1">
          <mxGeometry width="50" height="50" relative="1" as="geometry">
            <mxPoint x="480" y="372" as="sourcePoint" />
            <mxPoint x="240" y="232" as="targetPoint" />
          </mxGeometry>
        </mxCell>
        <mxCell id="GkxkM57QEwcgZs1372AV-178" value="" style="endArrow=none;html=1;entryX=1;entryY=0.5;entryDx=0;entryDy=0;exitX=0;exitY=0.5;exitDx=0;exitDy=0;strokeWidth=1;rounded=0;strokeColor=#525252;" parent="1" source="GkxkM57QEwcgZs1372AV-39" target="GkxkM57QEwcgZs1372AV-175" edge="1">
          <mxGeometry width="50" height="50" relative="1" as="geometry">
            <mxPoint x="480" y="412" as="sourcePoint" />
            <mxPoint x="230" y="222" as="targetPoint" />
          </mxGeometry>
        </mxCell>
        <mxCell id="GkxkM57QEwcgZs1372AV-179" value="" style="endArrow=none;html=1;entryX=1;entryY=0.5;entryDx=0;entryDy=0;exitX=0;exitY=0.5;exitDx=0;exitDy=0;strokeWidth=1;rounded=0;strokeColor=#525252;" parent="1" source="GkxkM57QEwcgZs1372AV-40" target="GkxkM57QEwcgZs1372AV-175" edge="1">
          <mxGeometry width="50" height="50" relative="1" as="geometry">
            <mxPoint x="480" y="452" as="sourcePoint" />
            <mxPoint x="240" y="232" as="targetPoint" />
          </mxGeometry>
        </mxCell>
        <mxCell id="GkxkM57QEwcgZs1372AV-180" value="" style="endArrow=none;html=1;entryX=1;entryY=0.5;entryDx=0;entryDy=0;exitX=0;exitY=0.5;exitDx=0;exitDy=0;strokeWidth=1;rounded=0;strokeColor=#525252;" parent="1" source="GkxkM57QEwcgZs1372AV-41" target="GkxkM57QEwcgZs1372AV-175" edge="1">
          <mxGeometry width="50" height="50" relative="1" as="geometry">
            <mxPoint x="480" y="532" as="sourcePoint" />
            <mxPoint x="250" y="242" as="targetPoint" />
          </mxGeometry>
        </mxCell>
        <mxCell id="GkxkM57QEwcgZs1372AV-181" value="" style="endArrow=none;html=1;exitX=0;exitY=0.5;exitDx=0;exitDy=0;strokeWidth=1;rounded=0;strokeColor=#525252;entryX=1;entryY=0.5;entryDx=0;entryDy=0;" parent="1" source="GkxkM57QEwcgZs1372AV-42" target="GkxkM57QEwcgZs1372AV-175" edge="1">
          <mxGeometry width="50" height="50" relative="1" as="geometry">
            <mxPoint x="480" y="572" as="sourcePoint" />
            <mxPoint x="240" y="210" as="targetPoint" />
          </mxGeometry>
        </mxCell>
        <mxCell id="GkxkM57QEwcgZs1372AV-182" value="" style="endArrow=none;html=1;entryX=1;entryY=0.5;entryDx=0;entryDy=0;exitX=0;exitY=0.5;exitDx=0;exitDy=0;strokeWidth=1;rounded=0;strokeColor=#525252;" parent="1" source="GkxkM57QEwcgZs1372AV-44" target="GkxkM57QEwcgZs1372AV-175" edge="1">
          <mxGeometry width="50" height="50" relative="1" as="geometry">
            <mxPoint x="480" y="652" as="sourcePoint" />
            <mxPoint x="270" y="262" as="targetPoint" />
          </mxGeometry>
        </mxCell>
        <mxCell id="GkxkM57QEwcgZs1372AV-183" value="" style="endArrow=none;html=1;entryX=1;entryY=0.5;entryDx=0;entryDy=0;exitX=0;exitY=0.5;exitDx=0;exitDy=0;strokeWidth=1;rounded=0;strokeColor=#525252;" parent="1" source="GkxkM57QEwcgZs1372AV-45" target="GkxkM57QEwcgZs1372AV-175" edge="1">
          <mxGeometry width="50" height="50" relative="1" as="geometry">
            <mxPoint x="480" y="692" as="sourcePoint" />
            <mxPoint x="280" y="272" as="targetPoint" />
          </mxGeometry>
        </mxCell>
        <mxCell id="GkxkM57QEwcgZs1372AV-184" value="" style="endArrow=none;html=1;entryX=1;entryY=0.5;entryDx=0;entryDy=0;exitX=0;exitY=0.5;exitDx=0;exitDy=0;strokeWidth=1;rounded=0;strokeColor=#525252;" parent="1" source="GkxkM57QEwcgZs1372AV-46" target="GkxkM57QEwcgZs1372AV-175" edge="1">
          <mxGeometry width="50" height="50" relative="1" as="geometry">
            <mxPoint x="480" y="732" as="sourcePoint" />
            <mxPoint x="290" y="282" as="targetPoint" />
          </mxGeometry>
        </mxCell>
        <mxCell id="GkxkM57QEwcgZs1372AV-185" value="" style="endArrow=none;html=1;entryX=1;entryY=0.5;entryDx=0;entryDy=0;exitX=0;exitY=0.5;exitDx=0;exitDy=0;strokeWidth=1;rounded=0;strokeColor=#525252;" parent="1" source="GkxkM57QEwcgZs1372AV-36" target="GkxkM57QEwcgZs1372AV-175" edge="1">
          <mxGeometry width="50" height="50" relative="1" as="geometry">
            <mxPoint x="480" y="292" as="sourcePoint" />
            <mxPoint x="300" y="292" as="targetPoint" />
          </mxGeometry>
        </mxCell>
        <mxCell id="GkxkM57QEwcgZs1372AV-186" value="" style="endArrow=none;html=1;entryX=1;entryY=0.5;entryDx=0;entryDy=0;exitX=0;exitY=0.5;exitDx=0;exitDy=0;strokeWidth=1;rounded=0;strokeColor=#525252;" parent="1" source="GkxkM57QEwcgZs1372AV-35" target="GkxkM57QEwcgZs1372AV-175" edge="1">
          <mxGeometry width="50" height="50" relative="1" as="geometry">
            <mxPoint x="480" y="252" as="sourcePoint" />
            <mxPoint x="310" y="302" as="targetPoint" />
          </mxGeometry>
        </mxCell>
        <mxCell id="GkxkM57QEwcgZs1372AV-187" value="" style="endArrow=none;html=1;entryX=1;entryY=0.5;entryDx=0;entryDy=0;exitX=0;exitY=0.5;exitDx=0;exitDy=0;strokeWidth=1;rounded=0;strokeColor=#525252;" parent="1" source="GkxkM57QEwcgZs1372AV-43" target="GkxkM57QEwcgZs1372AV-175" edge="1">
          <mxGeometry width="50" height="50" relative="1" as="geometry">
            <mxPoint x="480" y="612" as="sourcePoint" />
            <mxPoint x="320" y="312" as="targetPoint" />
          </mxGeometry>
        </mxCell>
        <mxCell id="GkxkM57QEwcgZs1372AV-214" value="" style="ellipse;whiteSpace=wrap;html=1;aspect=fixed;allowArrows=0;rounded=0;" parent="1" vertex="1">
          <mxGeometry x="240" y="240" width="20" height="20" as="geometry" />
        </mxCell>
        <mxCell id="GkxkM57QEwcgZs1372AV-215" value="" style="endArrow=none;html=1;entryX=1;entryY=0.5;entryDx=0;entryDy=0;exitX=0;exitY=0.5;exitDx=0;exitDy=0;strokeWidth=1;rounded=0;strokeColor=#525252;" parent="1" source="GkxkM57QEwcgZs1372AV-38" target="GkxkM57QEwcgZs1372AV-214" edge="1">
          <mxGeometry width="50" height="50" relative="1" as="geometry">
            <mxPoint x="480" y="370" as="sourcePoint" />
            <mxPoint x="440" y="578" as="targetPoint" />
          </mxGeometry>
        </mxCell>
        <mxCell id="GkxkM57QEwcgZs1372AV-216" value="" style="endArrow=none;html=1;entryX=1;entryY=0.5;entryDx=0;entryDy=0;exitX=0;exitY=0.5;exitDx=0;exitDy=0;strokeWidth=1;rounded=0;strokeColor=#525252;" parent="1" source="GkxkM57QEwcgZs1372AV-39" target="GkxkM57QEwcgZs1372AV-214" edge="1">
          <mxGeometry width="50" height="50" relative="1" as="geometry">
            <mxPoint x="480" y="410" as="sourcePoint" />
            <mxPoint x="240" y="270" as="targetPoint" />
          </mxGeometry>
        </mxCell>
        <mxCell id="GkxkM57QEwcgZs1372AV-217" value="" style="endArrow=none;html=1;entryX=1;entryY=0.5;entryDx=0;entryDy=0;exitX=0;exitY=0.5;exitDx=0;exitDy=0;strokeWidth=1;rounded=0;strokeColor=#525252;" parent="1" source="GkxkM57QEwcgZs1372AV-40" target="GkxkM57QEwcgZs1372AV-214" edge="1">
          <mxGeometry width="50" height="50" relative="1" as="geometry">
            <mxPoint x="480" y="450" as="sourcePoint" />
            <mxPoint x="230" y="260" as="targetPoint" />
          </mxGeometry>
        </mxCell>
        <mxCell id="GkxkM57QEwcgZs1372AV-218" value="" style="endArrow=none;html=1;entryX=1;entryY=0.5;entryDx=0;entryDy=0;exitX=0;exitY=0.5;exitDx=0;exitDy=0;strokeWidth=1;rounded=0;strokeColor=#525252;" parent="1" source="GkxkM57QEwcgZs1372AV-41" target="GkxkM57QEwcgZs1372AV-214" edge="1">
          <mxGeometry width="50" height="50" relative="1" as="geometry">
            <mxPoint x="480" y="490" as="sourcePoint" />
            <mxPoint x="240" y="270" as="targetPoint" />
          </mxGeometry>
        </mxCell>
        <mxCell id="GkxkM57QEwcgZs1372AV-219" value="" style="endArrow=none;html=1;entryX=1;entryY=0.5;entryDx=0;entryDy=0;exitX=0;exitY=0.5;exitDx=0;exitDy=0;strokeWidth=1;rounded=0;strokeColor=#525252;" parent="1" source="GkxkM57QEwcgZs1372AV-42" target="GkxkM57QEwcgZs1372AV-214" edge="1">
          <mxGeometry width="50" height="50" relative="1" as="geometry">
            <mxPoint x="480" y="570" as="sourcePoint" />
            <mxPoint x="250" y="280" as="targetPoint" />
          </mxGeometry>
        </mxCell>
        <mxCell id="GkxkM57QEwcgZs1372AV-220" value="" style="endArrow=none;html=1;exitX=0;exitY=0.5;exitDx=0;exitDy=0;strokeWidth=1;rounded=0;strokeColor=#525252;entryX=1;entryY=0.5;entryDx=0;entryDy=0;" parent="1" source="GkxkM57QEwcgZs1372AV-43" target="GkxkM57QEwcgZs1372AV-214" edge="1">
          <mxGeometry width="50" height="50" relative="1" as="geometry">
            <mxPoint x="480" y="610" as="sourcePoint" />
            <mxPoint x="240" y="248" as="targetPoint" />
          </mxGeometry>
        </mxCell>
        <mxCell id="GkxkM57QEwcgZs1372AV-221" value="" style="endArrow=none;html=1;entryX=1;entryY=0.5;entryDx=0;entryDy=0;exitX=0;exitY=0.5;exitDx=0;exitDy=0;strokeWidth=1;rounded=0;strokeColor=#525252;" parent="1" source="GkxkM57QEwcgZs1372AV-45" target="GkxkM57QEwcgZs1372AV-214" edge="1">
          <mxGeometry width="50" height="50" relative="1" as="geometry">
            <mxPoint x="480" y="690" as="sourcePoint" />
            <mxPoint x="270" y="300" as="targetPoint" />
          </mxGeometry>
        </mxCell>
        <mxCell id="GkxkM57QEwcgZs1372AV-222" value="" style="endArrow=none;html=1;entryX=1;entryY=0.5;entryDx=0;entryDy=0;exitX=0;exitY=0.5;exitDx=0;exitDy=0;strokeWidth=1;rounded=0;strokeColor=#525252;" parent="1" source="GkxkM57QEwcgZs1372AV-46" target="GkxkM57QEwcgZs1372AV-214" edge="1">
          <mxGeometry width="50" height="50" relative="1" as="geometry">
            <mxPoint x="480" y="730" as="sourcePoint" />
            <mxPoint x="280" y="310" as="targetPoint" />
          </mxGeometry>
        </mxCell>
        <mxCell id="GkxkM57QEwcgZs1372AV-223" value="" style="endArrow=none;html=1;entryX=1;entryY=0.5;entryDx=0;entryDy=0;exitX=0;exitY=0.5;exitDx=0;exitDy=0;strokeWidth=1;rounded=0;strokeColor=#525252;" parent="1" source="GkxkM57QEwcgZs1372AV-35" target="GkxkM57QEwcgZs1372AV-214" edge="1">
          <mxGeometry width="50" height="50" relative="1" as="geometry">
            <mxPoint x="480" y="770" as="sourcePoint" />
            <mxPoint x="290" y="320" as="targetPoint" />
          </mxGeometry>
        </mxCell>
        <mxCell id="GkxkM57QEwcgZs1372AV-224" value="" style="endArrow=none;html=1;entryX=1;entryY=0.5;entryDx=0;entryDy=0;exitX=0;exitY=0.5;exitDx=0;exitDy=0;strokeWidth=1;rounded=0;strokeColor=#525252;" parent="1" source="GkxkM57QEwcgZs1372AV-37" target="GkxkM57QEwcgZs1372AV-214" edge="1">
          <mxGeometry width="50" height="50" relative="1" as="geometry">
            <mxPoint x="480" y="330" as="sourcePoint" />
            <mxPoint x="300" y="330" as="targetPoint" />
          </mxGeometry>
        </mxCell>
        <mxCell id="GkxkM57QEwcgZs1372AV-225" value="" style="endArrow=none;html=1;entryX=1;entryY=0.5;entryDx=0;entryDy=0;strokeWidth=1;rounded=0;strokeColor=#525252;exitX=0;exitY=0.5;exitDx=0;exitDy=0;" parent="1" source="GkxkM57QEwcgZs1372AV-36" target="GkxkM57QEwcgZs1372AV-214" edge="1">
          <mxGeometry width="50" height="50" relative="1" as="geometry">
            <mxPoint x="470" y="290" as="sourcePoint" />
            <mxPoint x="310" y="340" as="targetPoint" />
          </mxGeometry>
        </mxCell>
        <mxCell id="GkxkM57QEwcgZs1372AV-226" value="" style="endArrow=none;html=1;entryX=1;entryY=0.5;entryDx=0;entryDy=0;exitX=0;exitY=0.5;exitDx=0;exitDy=0;strokeWidth=1;rounded=0;strokeColor=#525252;" parent="1" source="GkxkM57QEwcgZs1372AV-44" target="GkxkM57QEwcgZs1372AV-214" edge="1">
          <mxGeometry width="50" height="50" relative="1" as="geometry">
            <mxPoint x="480" y="650" as="sourcePoint" />
            <mxPoint x="320" y="350" as="targetPoint" />
          </mxGeometry>
        </mxCell>
        <mxCell id="GkxkM57QEwcgZs1372AV-227" value="" style="endArrow=none;html=1;entryX=1;entryY=0.5;entryDx=0;entryDy=0;exitX=0;exitY=0.5;exitDx=0;exitDy=0;strokeWidth=1;rounded=0;strokeColor=#525252;" parent="1" source="GkxkM57QEwcgZs1372AV-35" target="GkxkM57QEwcgZs1372AV-16" edge="1">
          <mxGeometry width="50" height="50" relative="1" as="geometry">
            <mxPoint x="910" y="246.9999999999999" as="sourcePoint" />
            <mxPoint x="650" y="207.0000000000001" as="targetPoint" />
          </mxGeometry>
        </mxCell>
        <mxCell id="GkxkM57QEwcgZs1372AV-241" value="" style="ellipse;whiteSpace=wrap;html=1;aspect=fixed;allowArrows=0;rounded=0;" parent="1" vertex="1">
          <mxGeometry x="240" y="280" width="20" height="20" as="geometry" />
        </mxCell>
        <mxCell id="GkxkM57QEwcgZs1372AV-242" value="" style="endArrow=none;html=1;entryX=1;entryY=0.5;entryDx=0;entryDy=0;exitX=0;exitY=0.5;exitDx=0;exitDy=0;strokeWidth=1;rounded=0;strokeColor=#525252;" parent="1" source="GkxkM57QEwcgZs1372AV-37" target="GkxkM57QEwcgZs1372AV-241" edge="1">
          <mxGeometry width="50" height="50" relative="1" as="geometry">
            <mxPoint x="480" y="409.9999999999999" as="sourcePoint" />
            <mxPoint x="440" y="618" as="targetPoint" />
          </mxGeometry>
        </mxCell>
        <mxCell id="GkxkM57QEwcgZs1372AV-243" value="" style="endArrow=none;html=1;entryX=1;entryY=0.5;entryDx=0;entryDy=0;exitX=0;exitY=0.5;exitDx=0;exitDy=0;strokeWidth=1;rounded=0;strokeColor=#525252;" parent="1" source="GkxkM57QEwcgZs1372AV-38" target="GkxkM57QEwcgZs1372AV-241" edge="1">
          <mxGeometry width="50" height="50" relative="1" as="geometry">
            <mxPoint x="480" y="449.9999999999999" as="sourcePoint" />
            <mxPoint x="240" y="310" as="targetPoint" />
          </mxGeometry>
        </mxCell>
        <mxCell id="GkxkM57QEwcgZs1372AV-244" value="" style="endArrow=none;html=1;entryX=1;entryY=0.5;entryDx=0;entryDy=0;exitX=0;exitY=0.5;exitDx=0;exitDy=0;strokeWidth=1;rounded=0;strokeColor=#525252;" parent="1" source="GkxkM57QEwcgZs1372AV-39" target="GkxkM57QEwcgZs1372AV-241" edge="1">
          <mxGeometry width="50" height="50" relative="1" as="geometry">
            <mxPoint x="480" y="490" as="sourcePoint" />
            <mxPoint x="230" y="300" as="targetPoint" />
          </mxGeometry>
        </mxCell>
        <mxCell id="GkxkM57QEwcgZs1372AV-245" value="" style="endArrow=none;html=1;entryX=1;entryY=0.5;entryDx=0;entryDy=0;exitX=0;exitY=0.5;exitDx=0;exitDy=0;strokeWidth=1;rounded=0;strokeColor=#525252;" parent="1" source="GkxkM57QEwcgZs1372AV-40" target="GkxkM57QEwcgZs1372AV-241" edge="1">
          <mxGeometry width="50" height="50" relative="1" as="geometry">
            <mxPoint x="480" y="530" as="sourcePoint" />
            <mxPoint x="240" y="310" as="targetPoint" />
          </mxGeometry>
        </mxCell>
        <mxCell id="GkxkM57QEwcgZs1372AV-246" value="" style="endArrow=none;html=1;entryX=1;entryY=0.5;entryDx=0;entryDy=0;exitX=0;exitY=0.5;exitDx=0;exitDy=0;strokeWidth=1;rounded=0;strokeColor=#525252;" parent="1" source="GkxkM57QEwcgZs1372AV-41" target="GkxkM57QEwcgZs1372AV-241" edge="1">
          <mxGeometry width="50" height="50" relative="1" as="geometry">
            <mxPoint x="480" y="610" as="sourcePoint" />
            <mxPoint x="250" y="320" as="targetPoint" />
          </mxGeometry>
        </mxCell>
        <mxCell id="GkxkM57QEwcgZs1372AV-247" value="" style="endArrow=none;html=1;exitX=0;exitY=0.5;exitDx=0;exitDy=0;strokeWidth=1;rounded=0;strokeColor=#525252;entryX=1;entryY=0.5;entryDx=0;entryDy=0;" parent="1" source="GkxkM57QEwcgZs1372AV-42" target="GkxkM57QEwcgZs1372AV-241" edge="1">
          <mxGeometry width="50" height="50" relative="1" as="geometry">
            <mxPoint x="480" y="650" as="sourcePoint" />
            <mxPoint x="240" y="288" as="targetPoint" />
          </mxGeometry>
        </mxCell>
        <mxCell id="GkxkM57QEwcgZs1372AV-248" value="" style="endArrow=none;html=1;entryX=1;entryY=0.5;entryDx=0;entryDy=0;exitX=0;exitY=0.5;exitDx=0;exitDy=0;strokeWidth=1;rounded=0;strokeColor=#525252;" parent="1" source="GkxkM57QEwcgZs1372AV-44" target="GkxkM57QEwcgZs1372AV-241" edge="1">
          <mxGeometry width="50" height="50" relative="1" as="geometry">
            <mxPoint x="480" y="730" as="sourcePoint" />
            <mxPoint x="270" y="340" as="targetPoint" />
          </mxGeometry>
        </mxCell>
        <mxCell id="GkxkM57QEwcgZs1372AV-249" value="" style="endArrow=none;html=1;entryX=1;entryY=0.5;entryDx=0;entryDy=0;exitX=0;exitY=0.5;exitDx=0;exitDy=0;strokeWidth=1;rounded=0;strokeColor=#525252;" parent="1" source="GkxkM57QEwcgZs1372AV-45" target="GkxkM57QEwcgZs1372AV-241" edge="1">
          <mxGeometry width="50" height="50" relative="1" as="geometry">
            <mxPoint x="480" y="770" as="sourcePoint" />
            <mxPoint x="280" y="350" as="targetPoint" />
          </mxGeometry>
        </mxCell>
        <mxCell id="GkxkM57QEwcgZs1372AV-250" value="" style="endArrow=none;html=1;entryX=1;entryY=0.5;entryDx=0;entryDy=0;exitX=0;exitY=0.5;exitDx=0;exitDy=0;strokeWidth=1;rounded=0;strokeColor=#525252;" parent="1" source="GkxkM57QEwcgZs1372AV-46" target="GkxkM57QEwcgZs1372AV-241" edge="1">
          <mxGeometry width="50" height="50" relative="1" as="geometry">
            <mxPoint x="480" y="810" as="sourcePoint" />
            <mxPoint x="290" y="360" as="targetPoint" />
          </mxGeometry>
        </mxCell>
        <mxCell id="GkxkM57QEwcgZs1372AV-251" value="" style="endArrow=none;html=1;entryX=1;entryY=0.5;entryDx=0;entryDy=0;exitX=0;exitY=0.5;exitDx=0;exitDy=0;strokeWidth=1;rounded=0;strokeColor=#525252;" parent="1" source="GkxkM57QEwcgZs1372AV-36" target="GkxkM57QEwcgZs1372AV-241" edge="1">
          <mxGeometry width="50" height="50" relative="1" as="geometry">
            <mxPoint x="480" y="369.9999999999999" as="sourcePoint" />
            <mxPoint x="300" y="370" as="targetPoint" />
          </mxGeometry>
        </mxCell>
        <mxCell id="GkxkM57QEwcgZs1372AV-252" value="" style="endArrow=none;html=1;entryX=1;entryY=0.5;entryDx=0;entryDy=0;exitX=0;exitY=0.5;exitDx=0;exitDy=0;strokeWidth=1;rounded=0;strokeColor=#525252;" parent="1" source="GkxkM57QEwcgZs1372AV-35" target="GkxkM57QEwcgZs1372AV-241" edge="1">
          <mxGeometry width="50" height="50" relative="1" as="geometry">
            <mxPoint x="480" y="329.9999999999999" as="sourcePoint" />
            <mxPoint x="310" y="380" as="targetPoint" />
          </mxGeometry>
        </mxCell>
        <mxCell id="GkxkM57QEwcgZs1372AV-253" value="" style="endArrow=none;html=1;entryX=1;entryY=0.5;entryDx=0;entryDy=0;exitX=0;exitY=0.5;exitDx=0;exitDy=0;strokeWidth=1;rounded=0;strokeColor=#525252;" parent="1" source="GkxkM57QEwcgZs1372AV-43" target="GkxkM57QEwcgZs1372AV-241" edge="1">
          <mxGeometry width="50" height="50" relative="1" as="geometry">
            <mxPoint x="480" y="690" as="sourcePoint" />
            <mxPoint x="320" y="390" as="targetPoint" />
          </mxGeometry>
        </mxCell>
        <mxCell id="GkxkM57QEwcgZs1372AV-267" value="" style="ellipse;whiteSpace=wrap;html=1;aspect=fixed;allowArrows=0;rounded=0;" parent="1" vertex="1">
          <mxGeometry x="240" y="320" width="20" height="20" as="geometry" />
        </mxCell>
        <mxCell id="GkxkM57QEwcgZs1372AV-268" value="" style="endArrow=none;html=1;entryX=1;entryY=0.5;entryDx=0;entryDy=0;exitX=0;exitY=0.5;exitDx=0;exitDy=0;strokeWidth=1;rounded=0;strokeColor=#525252;" parent="1" source="GkxkM57QEwcgZs1372AV-37" target="GkxkM57QEwcgZs1372AV-267" edge="1">
          <mxGeometry width="50" height="50" relative="1" as="geometry">
            <mxPoint x="480" y="452" as="sourcePoint" />
            <mxPoint x="440" y="660" as="targetPoint" />
          </mxGeometry>
        </mxCell>
        <mxCell id="GkxkM57QEwcgZs1372AV-269" value="" style="endArrow=none;html=1;entryX=1;entryY=0.5;entryDx=0;entryDy=0;exitX=0;exitY=0.5;exitDx=0;exitDy=0;strokeWidth=1;rounded=0;strokeColor=#525252;" parent="1" source="GkxkM57QEwcgZs1372AV-38" target="GkxkM57QEwcgZs1372AV-267" edge="1">
          <mxGeometry width="50" height="50" relative="1" as="geometry">
            <mxPoint x="480" y="492" as="sourcePoint" />
            <mxPoint x="240" y="352" as="targetPoint" />
          </mxGeometry>
        </mxCell>
        <mxCell id="GkxkM57QEwcgZs1372AV-270" value="" style="endArrow=none;html=1;entryX=1;entryY=0.5;entryDx=0;entryDy=0;exitX=0;exitY=0.5;exitDx=0;exitDy=0;strokeWidth=1;rounded=0;strokeColor=#525252;" parent="1" source="GkxkM57QEwcgZs1372AV-39" target="GkxkM57QEwcgZs1372AV-267" edge="1">
          <mxGeometry width="50" height="50" relative="1" as="geometry">
            <mxPoint x="480" y="532" as="sourcePoint" />
            <mxPoint x="230" y="342" as="targetPoint" />
          </mxGeometry>
        </mxCell>
        <mxCell id="GkxkM57QEwcgZs1372AV-271" value="" style="endArrow=none;html=1;entryX=1;entryY=0.5;entryDx=0;entryDy=0;exitX=0;exitY=0.5;exitDx=0;exitDy=0;strokeWidth=1;rounded=0;strokeColor=#525252;" parent="1" source="GkxkM57QEwcgZs1372AV-40" target="GkxkM57QEwcgZs1372AV-267" edge="1">
          <mxGeometry width="50" height="50" relative="1" as="geometry">
            <mxPoint x="480" y="572" as="sourcePoint" />
            <mxPoint x="240" y="352" as="targetPoint" />
          </mxGeometry>
        </mxCell>
        <mxCell id="GkxkM57QEwcgZs1372AV-272" value="" style="endArrow=none;html=1;entryX=1;entryY=0.5;entryDx=0;entryDy=0;exitX=0;exitY=0.5;exitDx=0;exitDy=0;strokeWidth=1;rounded=0;strokeColor=#525252;" parent="1" source="GkxkM57QEwcgZs1372AV-41" target="GkxkM57QEwcgZs1372AV-267" edge="1">
          <mxGeometry width="50" height="50" relative="1" as="geometry">
            <mxPoint x="480" y="652" as="sourcePoint" />
            <mxPoint x="250" y="362" as="targetPoint" />
          </mxGeometry>
        </mxCell>
        <mxCell id="GkxkM57QEwcgZs1372AV-273" value="" style="endArrow=none;html=1;exitX=0;exitY=0.5;exitDx=0;exitDy=0;strokeWidth=1;rounded=0;strokeColor=#525252;entryX=1;entryY=0.5;entryDx=0;entryDy=0;" parent="1" source="GkxkM57QEwcgZs1372AV-42" target="GkxkM57QEwcgZs1372AV-267" edge="1">
          <mxGeometry width="50" height="50" relative="1" as="geometry">
            <mxPoint x="480" y="692" as="sourcePoint" />
            <mxPoint x="240" y="330" as="targetPoint" />
          </mxGeometry>
        </mxCell>
        <mxCell id="GkxkM57QEwcgZs1372AV-274" value="" style="endArrow=none;html=1;entryX=1;entryY=0.5;entryDx=0;entryDy=0;exitX=0;exitY=0.5;exitDx=0;exitDy=0;strokeWidth=1;rounded=0;strokeColor=#525252;" parent="1" source="GkxkM57QEwcgZs1372AV-44" target="GkxkM57QEwcgZs1372AV-267" edge="1">
          <mxGeometry width="50" height="50" relative="1" as="geometry">
            <mxPoint x="480" y="772" as="sourcePoint" />
            <mxPoint x="270" y="382" as="targetPoint" />
          </mxGeometry>
        </mxCell>
        <mxCell id="GkxkM57QEwcgZs1372AV-275" value="" style="endArrow=none;html=1;entryX=1;entryY=0.5;entryDx=0;entryDy=0;exitX=0;exitY=0.5;exitDx=0;exitDy=0;strokeWidth=1;rounded=0;strokeColor=#525252;" parent="1" source="GkxkM57QEwcgZs1372AV-45" target="GkxkM57QEwcgZs1372AV-267" edge="1">
          <mxGeometry width="50" height="50" relative="1" as="geometry">
            <mxPoint x="480" y="812" as="sourcePoint" />
            <mxPoint x="280" y="392" as="targetPoint" />
          </mxGeometry>
        </mxCell>
        <mxCell id="GkxkM57QEwcgZs1372AV-276" value="" style="endArrow=none;html=1;entryX=1;entryY=0.5;entryDx=0;entryDy=0;exitX=0;exitY=0.5;exitDx=0;exitDy=0;strokeWidth=1;rounded=0;strokeColor=#525252;" parent="1" source="GkxkM57QEwcgZs1372AV-46" target="GkxkM57QEwcgZs1372AV-267" edge="1">
          <mxGeometry width="50" height="50" relative="1" as="geometry">
            <mxPoint x="480" y="852" as="sourcePoint" />
            <mxPoint x="290" y="402" as="targetPoint" />
          </mxGeometry>
        </mxCell>
        <mxCell id="GkxkM57QEwcgZs1372AV-277" value="" style="endArrow=none;html=1;entryX=1;entryY=0.5;entryDx=0;entryDy=0;exitX=0;exitY=0.5;exitDx=0;exitDy=0;strokeWidth=1;rounded=0;strokeColor=#525252;" parent="1" source="GkxkM57QEwcgZs1372AV-36" target="GkxkM57QEwcgZs1372AV-267" edge="1">
          <mxGeometry width="50" height="50" relative="1" as="geometry">
            <mxPoint x="480" y="412" as="sourcePoint" />
            <mxPoint x="300" y="412" as="targetPoint" />
          </mxGeometry>
        </mxCell>
        <mxCell id="GkxkM57QEwcgZs1372AV-278" value="" style="endArrow=none;html=1;entryX=1;entryY=0.5;entryDx=0;entryDy=0;exitX=0;exitY=0.5;exitDx=0;exitDy=0;strokeWidth=1;rounded=0;strokeColor=#525252;" parent="1" source="GkxkM57QEwcgZs1372AV-35" target="GkxkM57QEwcgZs1372AV-267" edge="1">
          <mxGeometry width="50" height="50" relative="1" as="geometry">
            <mxPoint x="480" y="372" as="sourcePoint" />
            <mxPoint x="310" y="422" as="targetPoint" />
          </mxGeometry>
        </mxCell>
        <mxCell id="GkxkM57QEwcgZs1372AV-279" value="" style="endArrow=none;html=1;entryX=1;entryY=0.5;entryDx=0;entryDy=0;exitX=0;exitY=0.5;exitDx=0;exitDy=0;strokeWidth=1;rounded=0;strokeColor=#525252;" parent="1" source="GkxkM57QEwcgZs1372AV-43" target="GkxkM57QEwcgZs1372AV-267" edge="1">
          <mxGeometry width="50" height="50" relative="1" as="geometry">
            <mxPoint x="480" y="732" as="sourcePoint" />
            <mxPoint x="320" y="432" as="targetPoint" />
          </mxGeometry>
        </mxCell>
        <mxCell id="GkxkM57QEwcgZs1372AV-280" value="" style="ellipse;whiteSpace=wrap;html=1;aspect=fixed;allowArrows=0;rounded=0;" parent="1" vertex="1">
          <mxGeometry x="240" y="360" width="20" height="20" as="geometry" />
        </mxCell>
        <mxCell id="GkxkM57QEwcgZs1372AV-281" value="" style="endArrow=none;html=1;entryX=1;entryY=0.5;entryDx=0;entryDy=0;exitX=0;exitY=0.5;exitDx=0;exitDy=0;strokeWidth=1;rounded=0;strokeColor=#525252;" parent="1" source="GkxkM57QEwcgZs1372AV-37" target="GkxkM57QEwcgZs1372AV-280" edge="1">
          <mxGeometry width="50" height="50" relative="1" as="geometry">
            <mxPoint x="480" y="490" as="sourcePoint" />
            <mxPoint x="440" y="698" as="targetPoint" />
          </mxGeometry>
        </mxCell>
        <mxCell id="GkxkM57QEwcgZs1372AV-282" value="" style="endArrow=none;html=1;entryX=1;entryY=0.5;entryDx=0;entryDy=0;exitX=0;exitY=0.5;exitDx=0;exitDy=0;strokeWidth=1;rounded=0;strokeColor=#525252;" parent="1" source="GkxkM57QEwcgZs1372AV-38" target="GkxkM57QEwcgZs1372AV-280" edge="1">
          <mxGeometry width="50" height="50" relative="1" as="geometry">
            <mxPoint x="480" y="530" as="sourcePoint" />
            <mxPoint x="240" y="390" as="targetPoint" />
          </mxGeometry>
        </mxCell>
        <mxCell id="GkxkM57QEwcgZs1372AV-283" value="" style="endArrow=none;html=1;entryX=1;entryY=0.5;entryDx=0;entryDy=0;strokeWidth=1;rounded=0;strokeColor=#525252;exitX=0;exitY=0.5;exitDx=0;exitDy=0;" parent="1" source="GkxkM57QEwcgZs1372AV-39" target="GkxkM57QEwcgZs1372AV-280" edge="1">
          <mxGeometry width="50" height="50" relative="1" as="geometry">
            <mxPoint x="480" y="560" as="sourcePoint" />
            <mxPoint x="230" y="380" as="targetPoint" />
          </mxGeometry>
        </mxCell>
        <mxCell id="GkxkM57QEwcgZs1372AV-284" value="" style="endArrow=none;html=1;entryX=1;entryY=0.5;entryDx=0;entryDy=0;exitX=0;exitY=0.5;exitDx=0;exitDy=0;strokeWidth=1;rounded=0;strokeColor=#525252;" parent="1" source="GkxkM57QEwcgZs1372AV-40" target="GkxkM57QEwcgZs1372AV-280" edge="1">
          <mxGeometry width="50" height="50" relative="1" as="geometry">
            <mxPoint x="480" y="610" as="sourcePoint" />
            <mxPoint x="240" y="390" as="targetPoint" />
          </mxGeometry>
        </mxCell>
        <mxCell id="GkxkM57QEwcgZs1372AV-285" value="" style="endArrow=none;html=1;entryX=1;entryY=0.5;entryDx=0;entryDy=0;exitX=0;exitY=0.5;exitDx=0;exitDy=0;strokeWidth=1;rounded=0;strokeColor=#525252;" parent="1" source="GkxkM57QEwcgZs1372AV-41" target="GkxkM57QEwcgZs1372AV-280" edge="1">
          <mxGeometry width="50" height="50" relative="1" as="geometry">
            <mxPoint x="480" y="690" as="sourcePoint" />
            <mxPoint x="250" y="400" as="targetPoint" />
          </mxGeometry>
        </mxCell>
        <mxCell id="GkxkM57QEwcgZs1372AV-286" value="" style="endArrow=none;html=1;exitX=0;exitY=0.5;exitDx=0;exitDy=0;strokeWidth=1;rounded=0;strokeColor=#525252;entryX=1;entryY=0.5;entryDx=0;entryDy=0;" parent="1" source="GkxkM57QEwcgZs1372AV-42" target="GkxkM57QEwcgZs1372AV-280" edge="1">
          <mxGeometry width="50" height="50" relative="1" as="geometry">
            <mxPoint x="480" y="730" as="sourcePoint" />
            <mxPoint x="240" y="368" as="targetPoint" />
          </mxGeometry>
        </mxCell>
        <mxCell id="GkxkM57QEwcgZs1372AV-287" value="" style="endArrow=none;html=1;entryX=1;entryY=0.5;entryDx=0;entryDy=0;exitX=0;exitY=0.5;exitDx=0;exitDy=0;strokeWidth=1;rounded=0;strokeColor=#525252;" parent="1" source="GkxkM57QEwcgZs1372AV-44" target="GkxkM57QEwcgZs1372AV-280" edge="1">
          <mxGeometry width="50" height="50" relative="1" as="geometry">
            <mxPoint x="480" y="810" as="sourcePoint" />
            <mxPoint x="270" y="420" as="targetPoint" />
          </mxGeometry>
        </mxCell>
        <mxCell id="GkxkM57QEwcgZs1372AV-288" value="" style="endArrow=none;html=1;entryX=1;entryY=0.5;entryDx=0;entryDy=0;exitX=0;exitY=0.5;exitDx=0;exitDy=0;strokeWidth=1;rounded=0;strokeColor=#525252;" parent="1" source="GkxkM57QEwcgZs1372AV-45" target="GkxkM57QEwcgZs1372AV-280" edge="1">
          <mxGeometry width="50" height="50" relative="1" as="geometry">
            <mxPoint x="480" y="850" as="sourcePoint" />
            <mxPoint x="280" y="430" as="targetPoint" />
          </mxGeometry>
        </mxCell>
        <mxCell id="GkxkM57QEwcgZs1372AV-289" value="" style="endArrow=none;html=1;entryX=1;entryY=0.5;entryDx=0;entryDy=0;exitX=0;exitY=0.5;exitDx=0;exitDy=0;strokeWidth=1;rounded=0;strokeColor=#525252;" parent="1" source="GkxkM57QEwcgZs1372AV-46" target="GkxkM57QEwcgZs1372AV-280" edge="1">
          <mxGeometry width="50" height="50" relative="1" as="geometry">
            <mxPoint x="480" y="890" as="sourcePoint" />
            <mxPoint x="290" y="440" as="targetPoint" />
          </mxGeometry>
        </mxCell>
        <mxCell id="GkxkM57QEwcgZs1372AV-290" value="" style="endArrow=none;html=1;entryX=1;entryY=0.5;entryDx=0;entryDy=0;exitX=0;exitY=0.5;exitDx=0;exitDy=0;strokeWidth=1;rounded=0;strokeColor=#525252;" parent="1" source="GkxkM57QEwcgZs1372AV-36" target="GkxkM57QEwcgZs1372AV-280" edge="1">
          <mxGeometry width="50" height="50" relative="1" as="geometry">
            <mxPoint x="480" y="450" as="sourcePoint" />
            <mxPoint x="300" y="450" as="targetPoint" />
          </mxGeometry>
        </mxCell>
        <mxCell id="GkxkM57QEwcgZs1372AV-291" value="" style="endArrow=none;html=1;entryX=1;entryY=0.5;entryDx=0;entryDy=0;exitX=0;exitY=0.5;exitDx=0;exitDy=0;strokeWidth=1;rounded=0;strokeColor=#525252;" parent="1" source="GkxkM57QEwcgZs1372AV-35" target="GkxkM57QEwcgZs1372AV-280" edge="1">
          <mxGeometry width="50" height="50" relative="1" as="geometry">
            <mxPoint x="480" y="410" as="sourcePoint" />
            <mxPoint x="310" y="460" as="targetPoint" />
          </mxGeometry>
        </mxCell>
        <mxCell id="GkxkM57QEwcgZs1372AV-292" value="" style="endArrow=none;html=1;entryX=1;entryY=0.5;entryDx=0;entryDy=0;exitX=0;exitY=0.5;exitDx=0;exitDy=0;strokeWidth=1;rounded=0;strokeColor=#525252;" parent="1" source="GkxkM57QEwcgZs1372AV-43" target="GkxkM57QEwcgZs1372AV-280" edge="1">
          <mxGeometry width="50" height="50" relative="1" as="geometry">
            <mxPoint x="480" y="770" as="sourcePoint" />
            <mxPoint x="320" y="470" as="targetPoint" />
          </mxGeometry>
        </mxCell>
        <mxCell id="GkxkM57QEwcgZs1372AV-293" value="" style="ellipse;whiteSpace=wrap;html=1;aspect=fixed;allowArrows=0;rounded=0;" parent="1" vertex="1">
          <mxGeometry x="240" y="440" width="20" height="20" as="geometry" />
        </mxCell>
        <mxCell id="GkxkM57QEwcgZs1372AV-294" value="" style="endArrow=none;html=1;entryX=1;entryY=0.5;entryDx=0;entryDy=0;exitX=0;exitY=0.5;exitDx=0;exitDy=0;strokeWidth=1;rounded=0;strokeColor=#525252;" parent="1" source="GkxkM57QEwcgZs1372AV-37" target="GkxkM57QEwcgZs1372AV-293" edge="1">
          <mxGeometry width="50" height="50" relative="1" as="geometry">
            <mxPoint x="480" y="575" as="sourcePoint" />
            <mxPoint x="440" y="783" as="targetPoint" />
          </mxGeometry>
        </mxCell>
        <mxCell id="GkxkM57QEwcgZs1372AV-295" value="" style="endArrow=none;html=1;entryX=1;entryY=0.5;entryDx=0;entryDy=0;exitX=0;exitY=0.5;exitDx=0;exitDy=0;strokeWidth=1;rounded=0;strokeColor=#525252;" parent="1" source="GkxkM57QEwcgZs1372AV-38" target="GkxkM57QEwcgZs1372AV-293" edge="1">
          <mxGeometry width="50" height="50" relative="1" as="geometry">
            <mxPoint x="480" y="615" as="sourcePoint" />
            <mxPoint x="240" y="475" as="targetPoint" />
          </mxGeometry>
        </mxCell>
        <mxCell id="GkxkM57QEwcgZs1372AV-296" value="" style="endArrow=none;html=1;entryX=1;entryY=0.5;entryDx=0;entryDy=0;exitX=0;exitY=0.5;exitDx=0;exitDy=0;strokeWidth=1;rounded=0;strokeColor=#525252;" parent="1" source="GkxkM57QEwcgZs1372AV-39" target="GkxkM57QEwcgZs1372AV-293" edge="1">
          <mxGeometry width="50" height="50" relative="1" as="geometry">
            <mxPoint x="480" y="655" as="sourcePoint" />
            <mxPoint x="230" y="465" as="targetPoint" />
          </mxGeometry>
        </mxCell>
        <mxCell id="GkxkM57QEwcgZs1372AV-297" value="" style="endArrow=none;html=1;entryX=1;entryY=0.5;entryDx=0;entryDy=0;exitX=0;exitY=0.5;exitDx=0;exitDy=0;strokeWidth=1;rounded=0;strokeColor=#525252;" parent="1" source="GkxkM57QEwcgZs1372AV-40" target="GkxkM57QEwcgZs1372AV-293" edge="1">
          <mxGeometry width="50" height="50" relative="1" as="geometry">
            <mxPoint x="480" y="695" as="sourcePoint" />
            <mxPoint x="240" y="475" as="targetPoint" />
          </mxGeometry>
        </mxCell>
        <mxCell id="GkxkM57QEwcgZs1372AV-298" value="" style="endArrow=none;html=1;entryX=1;entryY=0.5;entryDx=0;entryDy=0;exitX=0;exitY=0.5;exitDx=0;exitDy=0;strokeWidth=1;rounded=0;strokeColor=#525252;" parent="1" source="GkxkM57QEwcgZs1372AV-41" target="GkxkM57QEwcgZs1372AV-293" edge="1">
          <mxGeometry width="50" height="50" relative="1" as="geometry">
            <mxPoint x="480" y="775" as="sourcePoint" />
            <mxPoint x="250" y="485" as="targetPoint" />
          </mxGeometry>
        </mxCell>
        <mxCell id="GkxkM57QEwcgZs1372AV-299" value="" style="endArrow=none;html=1;exitX=0;exitY=0.5;exitDx=0;exitDy=0;strokeWidth=1;rounded=0;strokeColor=#525252;entryX=1;entryY=0.5;entryDx=0;entryDy=0;" parent="1" source="GkxkM57QEwcgZs1372AV-42" target="GkxkM57QEwcgZs1372AV-293" edge="1">
          <mxGeometry width="50" height="50" relative="1" as="geometry">
            <mxPoint x="480" y="815" as="sourcePoint" />
            <mxPoint x="240" y="453" as="targetPoint" />
          </mxGeometry>
        </mxCell>
        <mxCell id="GkxkM57QEwcgZs1372AV-300" value="" style="endArrow=none;html=1;entryX=1;entryY=0.5;entryDx=0;entryDy=0;exitX=0;exitY=0.5;exitDx=0;exitDy=0;strokeWidth=1;rounded=0;strokeColor=#525252;" parent="1" source="GkxkM57QEwcgZs1372AV-44" target="GkxkM57QEwcgZs1372AV-293" edge="1">
          <mxGeometry width="50" height="50" relative="1" as="geometry">
            <mxPoint x="480" y="895" as="sourcePoint" />
            <mxPoint x="270" y="505" as="targetPoint" />
          </mxGeometry>
        </mxCell>
        <mxCell id="GkxkM57QEwcgZs1372AV-301" value="" style="endArrow=none;html=1;entryX=1;entryY=0.5;entryDx=0;entryDy=0;exitX=0;exitY=0.5;exitDx=0;exitDy=0;strokeWidth=1;rounded=0;strokeColor=#525252;" parent="1" source="GkxkM57QEwcgZs1372AV-45" target="GkxkM57QEwcgZs1372AV-293" edge="1">
          <mxGeometry width="50" height="50" relative="1" as="geometry">
            <mxPoint x="480" y="935" as="sourcePoint" />
            <mxPoint x="280" y="515" as="targetPoint" />
          </mxGeometry>
        </mxCell>
        <mxCell id="GkxkM57QEwcgZs1372AV-302" value="" style="endArrow=none;html=1;entryX=1;entryY=0.5;entryDx=0;entryDy=0;exitX=0;exitY=0.5;exitDx=0;exitDy=0;strokeWidth=1;rounded=0;strokeColor=#525252;" parent="1" source="GkxkM57QEwcgZs1372AV-46" target="GkxkM57QEwcgZs1372AV-293" edge="1">
          <mxGeometry width="50" height="50" relative="1" as="geometry">
            <mxPoint x="480" y="975" as="sourcePoint" />
            <mxPoint x="290" y="525" as="targetPoint" />
          </mxGeometry>
        </mxCell>
        <mxCell id="GkxkM57QEwcgZs1372AV-303" value="" style="endArrow=none;html=1;entryX=1;entryY=0.5;entryDx=0;entryDy=0;exitX=0;exitY=0.5;exitDx=0;exitDy=0;strokeWidth=1;rounded=0;strokeColor=#525252;" parent="1" source="GkxkM57QEwcgZs1372AV-36" target="GkxkM57QEwcgZs1372AV-293" edge="1">
          <mxGeometry width="50" height="50" relative="1" as="geometry">
            <mxPoint x="480" y="535" as="sourcePoint" />
            <mxPoint x="300" y="535" as="targetPoint" />
          </mxGeometry>
        </mxCell>
        <mxCell id="GkxkM57QEwcgZs1372AV-304" value="" style="endArrow=none;html=1;entryX=1;entryY=0.5;entryDx=0;entryDy=0;exitX=0;exitY=0.5;exitDx=0;exitDy=0;strokeWidth=1;rounded=0;strokeColor=#525252;" parent="1" source="GkxkM57QEwcgZs1372AV-35" target="GkxkM57QEwcgZs1372AV-293" edge="1">
          <mxGeometry width="50" height="50" relative="1" as="geometry">
            <mxPoint x="480" y="495" as="sourcePoint" />
            <mxPoint x="310" y="545" as="targetPoint" />
          </mxGeometry>
        </mxCell>
        <mxCell id="GkxkM57QEwcgZs1372AV-305" value="" style="endArrow=none;html=1;entryX=1;entryY=0.5;entryDx=0;entryDy=0;exitX=0;exitY=0.5;exitDx=0;exitDy=0;strokeWidth=1;rounded=0;strokeColor=#525252;" parent="1" source="GkxkM57QEwcgZs1372AV-43" target="GkxkM57QEwcgZs1372AV-293" edge="1">
          <mxGeometry width="50" height="50" relative="1" as="geometry">
            <mxPoint x="480" y="855" as="sourcePoint" />
            <mxPoint x="320" y="555" as="targetPoint" />
          </mxGeometry>
        </mxCell>
        <mxCell id="GkxkM57QEwcgZs1372AV-306" value="" style="ellipse;whiteSpace=wrap;html=1;aspect=fixed;allowArrows=0;rounded=0;" parent="1" vertex="1">
          <mxGeometry x="240" y="480" width="20" height="20" as="geometry" />
        </mxCell>
        <mxCell id="GkxkM57QEwcgZs1372AV-307" value="" style="endArrow=none;html=1;entryX=1;entryY=0.5;entryDx=0;entryDy=0;exitX=0;exitY=0.5;exitDx=0;exitDy=0;strokeWidth=1;rounded=0;strokeColor=#525252;" parent="1" source="GkxkM57QEwcgZs1372AV-37" target="GkxkM57QEwcgZs1372AV-306" edge="1">
          <mxGeometry width="50" height="50" relative="1" as="geometry">
            <mxPoint x="480" y="610" as="sourcePoint" />
            <mxPoint x="440" y="818" as="targetPoint" />
          </mxGeometry>
        </mxCell>
        <mxCell id="GkxkM57QEwcgZs1372AV-308" value="" style="endArrow=none;html=1;entryX=1;entryY=0.5;entryDx=0;entryDy=0;exitX=0;exitY=0.5;exitDx=0;exitDy=0;strokeWidth=1;rounded=0;strokeColor=#525252;" parent="1" source="GkxkM57QEwcgZs1372AV-38" target="GkxkM57QEwcgZs1372AV-306" edge="1">
          <mxGeometry width="50" height="50" relative="1" as="geometry">
            <mxPoint x="480" y="650" as="sourcePoint" />
            <mxPoint x="240" y="510" as="targetPoint" />
          </mxGeometry>
        </mxCell>
        <mxCell id="GkxkM57QEwcgZs1372AV-309" value="" style="endArrow=none;html=1;entryX=1;entryY=0.5;entryDx=0;entryDy=0;exitX=0;exitY=0.5;exitDx=0;exitDy=0;strokeWidth=1;rounded=0;strokeColor=#525252;" parent="1" source="GkxkM57QEwcgZs1372AV-39" target="GkxkM57QEwcgZs1372AV-306" edge="1">
          <mxGeometry width="50" height="50" relative="1" as="geometry">
            <mxPoint x="480" y="690" as="sourcePoint" />
            <mxPoint x="230" y="500" as="targetPoint" />
          </mxGeometry>
        </mxCell>
        <mxCell id="GkxkM57QEwcgZs1372AV-310" value="" style="endArrow=none;html=1;entryX=1;entryY=0.5;entryDx=0;entryDy=0;exitX=0;exitY=0.5;exitDx=0;exitDy=0;strokeWidth=1;rounded=0;strokeColor=#525252;" parent="1" source="GkxkM57QEwcgZs1372AV-40" target="GkxkM57QEwcgZs1372AV-306" edge="1">
          <mxGeometry width="50" height="50" relative="1" as="geometry">
            <mxPoint x="480" y="730" as="sourcePoint" />
            <mxPoint x="240" y="510" as="targetPoint" />
          </mxGeometry>
        </mxCell>
        <mxCell id="GkxkM57QEwcgZs1372AV-311" value="" style="endArrow=none;html=1;entryX=1;entryY=0.5;entryDx=0;entryDy=0;exitX=0;exitY=0.5;exitDx=0;exitDy=0;strokeWidth=1;rounded=0;strokeColor=#525252;" parent="1" source="GkxkM57QEwcgZs1372AV-41" target="GkxkM57QEwcgZs1372AV-306" edge="1">
          <mxGeometry width="50" height="50" relative="1" as="geometry">
            <mxPoint x="480" y="810" as="sourcePoint" />
            <mxPoint x="250" y="520" as="targetPoint" />
          </mxGeometry>
        </mxCell>
        <mxCell id="GkxkM57QEwcgZs1372AV-312" value="" style="endArrow=none;html=1;exitX=0;exitY=0.5;exitDx=0;exitDy=0;strokeWidth=1;rounded=0;strokeColor=#525252;entryX=1;entryY=0.5;entryDx=0;entryDy=0;" parent="1" source="GkxkM57QEwcgZs1372AV-42" target="GkxkM57QEwcgZs1372AV-306" edge="1">
          <mxGeometry width="50" height="50" relative="1" as="geometry">
            <mxPoint x="480" y="850" as="sourcePoint" />
            <mxPoint x="240" y="488" as="targetPoint" />
          </mxGeometry>
        </mxCell>
        <mxCell id="GkxkM57QEwcgZs1372AV-313" value="" style="endArrow=none;html=1;entryX=1;entryY=0.5;entryDx=0;entryDy=0;exitX=0;exitY=0.5;exitDx=0;exitDy=0;strokeWidth=1;rounded=0;strokeColor=#525252;" parent="1" source="GkxkM57QEwcgZs1372AV-44" target="GkxkM57QEwcgZs1372AV-306" edge="1">
          <mxGeometry width="50" height="50" relative="1" as="geometry">
            <mxPoint x="480" y="930" as="sourcePoint" />
            <mxPoint x="270" y="540" as="targetPoint" />
          </mxGeometry>
        </mxCell>
        <mxCell id="GkxkM57QEwcgZs1372AV-314" value="" style="endArrow=none;html=1;entryX=1;entryY=0.5;entryDx=0;entryDy=0;exitX=0;exitY=0.5;exitDx=0;exitDy=0;strokeWidth=1;rounded=0;strokeColor=#525252;" parent="1" source="GkxkM57QEwcgZs1372AV-45" target="GkxkM57QEwcgZs1372AV-306" edge="1">
          <mxGeometry width="50" height="50" relative="1" as="geometry">
            <mxPoint x="480" y="970" as="sourcePoint" />
            <mxPoint x="280" y="550" as="targetPoint" />
          </mxGeometry>
        </mxCell>
        <mxCell id="GkxkM57QEwcgZs1372AV-315" value="" style="endArrow=none;html=1;entryX=1;entryY=0.5;entryDx=0;entryDy=0;exitX=0;exitY=0.5;exitDx=0;exitDy=0;strokeWidth=1;rounded=0;strokeColor=#525252;" parent="1" source="GkxkM57QEwcgZs1372AV-46" target="GkxkM57QEwcgZs1372AV-306" edge="1">
          <mxGeometry width="50" height="50" relative="1" as="geometry">
            <mxPoint x="480" y="1010" as="sourcePoint" />
            <mxPoint x="290" y="560" as="targetPoint" />
          </mxGeometry>
        </mxCell>
        <mxCell id="GkxkM57QEwcgZs1372AV-316" value="" style="endArrow=none;html=1;entryX=1;entryY=0.5;entryDx=0;entryDy=0;exitX=0;exitY=0.5;exitDx=0;exitDy=0;strokeWidth=1;rounded=0;strokeColor=#525252;" parent="1" source="GkxkM57QEwcgZs1372AV-36" target="GkxkM57QEwcgZs1372AV-306" edge="1">
          <mxGeometry width="50" height="50" relative="1" as="geometry">
            <mxPoint x="480" y="570" as="sourcePoint" />
            <mxPoint x="300" y="570" as="targetPoint" />
          </mxGeometry>
        </mxCell>
        <mxCell id="GkxkM57QEwcgZs1372AV-317" value="" style="endArrow=none;html=1;entryX=1;entryY=0.5;entryDx=0;entryDy=0;exitX=0;exitY=0.5;exitDx=0;exitDy=0;strokeWidth=1;rounded=0;strokeColor=#525252;" parent="1" source="GkxkM57QEwcgZs1372AV-35" target="GkxkM57QEwcgZs1372AV-306" edge="1">
          <mxGeometry width="50" height="50" relative="1" as="geometry">
            <mxPoint x="480" y="530" as="sourcePoint" />
            <mxPoint x="310" y="580" as="targetPoint" />
          </mxGeometry>
        </mxCell>
        <mxCell id="GkxkM57QEwcgZs1372AV-318" value="" style="endArrow=none;html=1;entryX=1;entryY=0.5;entryDx=0;entryDy=0;exitX=0;exitY=0.5;exitDx=0;exitDy=0;strokeWidth=1;rounded=0;strokeColor=#525252;" parent="1" source="GkxkM57QEwcgZs1372AV-43" target="GkxkM57QEwcgZs1372AV-306" edge="1">
          <mxGeometry width="50" height="50" relative="1" as="geometry">
            <mxPoint x="480" y="890" as="sourcePoint" />
            <mxPoint x="320" y="590" as="targetPoint" />
          </mxGeometry>
        </mxCell>
        <mxCell id="GkxkM57QEwcgZs1372AV-319" value="" style="ellipse;whiteSpace=wrap;html=1;aspect=fixed;allowArrows=0;rounded=0;" parent="1" vertex="1">
          <mxGeometry x="240" y="520" width="20" height="20" as="geometry" />
        </mxCell>
        <mxCell id="GkxkM57QEwcgZs1372AV-320" value="" style="endArrow=none;html=1;entryX=1;entryY=0.5;entryDx=0;entryDy=0;exitX=0;exitY=0.5;exitDx=0;exitDy=0;strokeWidth=1;rounded=0;strokeColor=#525252;" parent="1" source="GkxkM57QEwcgZs1372AV-37" target="GkxkM57QEwcgZs1372AV-319" edge="1">
          <mxGeometry width="50" height="50" relative="1" as="geometry">
            <mxPoint x="480" y="649.9999999999999" as="sourcePoint" />
            <mxPoint x="440" y="858" as="targetPoint" />
          </mxGeometry>
        </mxCell>
        <mxCell id="GkxkM57QEwcgZs1372AV-321" value="" style="endArrow=none;html=1;entryX=1;entryY=0.5;entryDx=0;entryDy=0;exitX=0;exitY=0.5;exitDx=0;exitDy=0;strokeWidth=1;rounded=0;strokeColor=#525252;" parent="1" source="GkxkM57QEwcgZs1372AV-38" target="GkxkM57QEwcgZs1372AV-319" edge="1">
          <mxGeometry width="50" height="50" relative="1" as="geometry">
            <mxPoint x="480" y="689.9999999999999" as="sourcePoint" />
            <mxPoint x="240" y="550" as="targetPoint" />
          </mxGeometry>
        </mxCell>
        <mxCell id="GkxkM57QEwcgZs1372AV-322" value="" style="endArrow=none;html=1;entryX=1;entryY=0.5;entryDx=0;entryDy=0;exitX=0;exitY=0.5;exitDx=0;exitDy=0;strokeWidth=1;rounded=0;strokeColor=#525252;" parent="1" source="GkxkM57QEwcgZs1372AV-39" target="GkxkM57QEwcgZs1372AV-319" edge="1">
          <mxGeometry width="50" height="50" relative="1" as="geometry">
            <mxPoint x="480" y="730" as="sourcePoint" />
            <mxPoint x="230" y="540" as="targetPoint" />
          </mxGeometry>
        </mxCell>
        <mxCell id="GkxkM57QEwcgZs1372AV-323" value="" style="endArrow=none;html=1;entryX=1;entryY=0.5;entryDx=0;entryDy=0;exitX=0;exitY=0.5;exitDx=0;exitDy=0;strokeWidth=1;rounded=0;strokeColor=#525252;" parent="1" source="GkxkM57QEwcgZs1372AV-40" target="GkxkM57QEwcgZs1372AV-319" edge="1">
          <mxGeometry width="50" height="50" relative="1" as="geometry">
            <mxPoint x="480" y="770" as="sourcePoint" />
            <mxPoint x="240" y="550" as="targetPoint" />
          </mxGeometry>
        </mxCell>
        <mxCell id="GkxkM57QEwcgZs1372AV-324" value="" style="endArrow=none;html=1;entryX=1;entryY=0.5;entryDx=0;entryDy=0;exitX=0;exitY=0.5;exitDx=0;exitDy=0;strokeWidth=1;rounded=0;strokeColor=#525252;" parent="1" source="GkxkM57QEwcgZs1372AV-41" target="GkxkM57QEwcgZs1372AV-319" edge="1">
          <mxGeometry width="50" height="50" relative="1" as="geometry">
            <mxPoint x="480" y="850" as="sourcePoint" />
            <mxPoint x="250" y="560" as="targetPoint" />
          </mxGeometry>
        </mxCell>
        <mxCell id="GkxkM57QEwcgZs1372AV-325" value="" style="endArrow=none;html=1;exitX=0;exitY=0.5;exitDx=0;exitDy=0;strokeWidth=1;rounded=0;strokeColor=#525252;entryX=1;entryY=0.5;entryDx=0;entryDy=0;" parent="1" source="GkxkM57QEwcgZs1372AV-42" target="GkxkM57QEwcgZs1372AV-319" edge="1">
          <mxGeometry width="50" height="50" relative="1" as="geometry">
            <mxPoint x="480" y="890" as="sourcePoint" />
            <mxPoint x="240" y="528" as="targetPoint" />
          </mxGeometry>
        </mxCell>
        <mxCell id="GkxkM57QEwcgZs1372AV-326" value="" style="endArrow=none;html=1;entryX=1;entryY=0.5;entryDx=0;entryDy=0;exitX=0;exitY=0.5;exitDx=0;exitDy=0;strokeWidth=1;rounded=0;strokeColor=#525252;" parent="1" source="GkxkM57QEwcgZs1372AV-44" target="GkxkM57QEwcgZs1372AV-319" edge="1">
          <mxGeometry width="50" height="50" relative="1" as="geometry">
            <mxPoint x="480" y="970" as="sourcePoint" />
            <mxPoint x="270" y="580" as="targetPoint" />
          </mxGeometry>
        </mxCell>
        <mxCell id="GkxkM57QEwcgZs1372AV-327" value="" style="endArrow=none;html=1;entryX=1;entryY=0.5;entryDx=0;entryDy=0;exitX=0;exitY=0.5;exitDx=0;exitDy=0;strokeWidth=1;rounded=0;strokeColor=#525252;" parent="1" source="GkxkM57QEwcgZs1372AV-45" target="GkxkM57QEwcgZs1372AV-319" edge="1">
          <mxGeometry width="50" height="50" relative="1" as="geometry">
            <mxPoint x="480" y="1010" as="sourcePoint" />
            <mxPoint x="280" y="590" as="targetPoint" />
          </mxGeometry>
        </mxCell>
        <mxCell id="GkxkM57QEwcgZs1372AV-328" value="" style="endArrow=none;html=1;entryX=1;entryY=0.5;entryDx=0;entryDy=0;exitX=0;exitY=0.5;exitDx=0;exitDy=0;strokeWidth=1;rounded=0;strokeColor=#525252;" parent="1" source="GkxkM57QEwcgZs1372AV-46" target="GkxkM57QEwcgZs1372AV-319" edge="1">
          <mxGeometry width="50" height="50" relative="1" as="geometry">
            <mxPoint x="480" y="1050" as="sourcePoint" />
            <mxPoint x="290" y="600" as="targetPoint" />
          </mxGeometry>
        </mxCell>
        <mxCell id="GkxkM57QEwcgZs1372AV-329" value="" style="endArrow=none;html=1;entryX=1;entryY=0.5;entryDx=0;entryDy=0;exitX=0;exitY=0.5;exitDx=0;exitDy=0;strokeWidth=1;rounded=0;strokeColor=#525252;" parent="1" source="GkxkM57QEwcgZs1372AV-36" target="GkxkM57QEwcgZs1372AV-319" edge="1">
          <mxGeometry width="50" height="50" relative="1" as="geometry">
            <mxPoint x="480" y="609.9999999999999" as="sourcePoint" />
            <mxPoint x="300" y="610" as="targetPoint" />
          </mxGeometry>
        </mxCell>
        <mxCell id="GkxkM57QEwcgZs1372AV-330" value="" style="endArrow=none;html=1;entryX=1;entryY=0.5;entryDx=0;entryDy=0;exitX=0;exitY=0.5;exitDx=0;exitDy=0;strokeWidth=1;rounded=0;strokeColor=#525252;" parent="1" source="GkxkM57QEwcgZs1372AV-35" target="GkxkM57QEwcgZs1372AV-319" edge="1">
          <mxGeometry width="50" height="50" relative="1" as="geometry">
            <mxPoint x="480" y="569.9999999999999" as="sourcePoint" />
            <mxPoint x="310" y="620" as="targetPoint" />
          </mxGeometry>
        </mxCell>
        <mxCell id="GkxkM57QEwcgZs1372AV-331" value="" style="endArrow=none;html=1;entryX=1;entryY=0.5;entryDx=0;entryDy=0;exitX=0;exitY=0.5;exitDx=0;exitDy=0;strokeWidth=1;rounded=0;strokeColor=#525252;" parent="1" source="GkxkM57QEwcgZs1372AV-43" target="GkxkM57QEwcgZs1372AV-319" edge="1">
          <mxGeometry width="50" height="50" relative="1" as="geometry">
            <mxPoint x="480" y="930" as="sourcePoint" />
            <mxPoint x="320" y="630" as="targetPoint" />
          </mxGeometry>
        </mxCell>
        <mxCell id="GkxkM57QEwcgZs1372AV-332" value="" style="ellipse;whiteSpace=wrap;html=1;aspect=fixed;allowArrows=0;rounded=0;" parent="1" vertex="1">
          <mxGeometry x="240" y="560" width="20" height="20" as="geometry" />
        </mxCell>
        <mxCell id="GkxkM57QEwcgZs1372AV-333" value="" style="endArrow=none;html=1;entryX=1;entryY=0.5;entryDx=0;entryDy=0;exitX=0;exitY=0.5;exitDx=0;exitDy=0;strokeWidth=1;rounded=0;strokeColor=#525252;" parent="1" source="GkxkM57QEwcgZs1372AV-37" target="GkxkM57QEwcgZs1372AV-332" edge="1">
          <mxGeometry width="50" height="50" relative="1" as="geometry">
            <mxPoint x="480" y="690" as="sourcePoint" />
            <mxPoint x="440" y="898" as="targetPoint" />
          </mxGeometry>
        </mxCell>
        <mxCell id="GkxkM57QEwcgZs1372AV-334" value="" style="endArrow=none;html=1;entryX=1;entryY=0.5;entryDx=0;entryDy=0;exitX=0;exitY=0.5;exitDx=0;exitDy=0;strokeWidth=1;rounded=0;strokeColor=#525252;" parent="1" source="GkxkM57QEwcgZs1372AV-38" target="GkxkM57QEwcgZs1372AV-332" edge="1">
          <mxGeometry width="50" height="50" relative="1" as="geometry">
            <mxPoint x="480" y="730" as="sourcePoint" />
            <mxPoint x="240" y="590" as="targetPoint" />
          </mxGeometry>
        </mxCell>
        <mxCell id="GkxkM57QEwcgZs1372AV-335" value="" style="endArrow=none;html=1;entryX=1;entryY=0.5;entryDx=0;entryDy=0;exitX=0;exitY=0.5;exitDx=0;exitDy=0;strokeWidth=1;rounded=0;strokeColor=#525252;" parent="1" source="GkxkM57QEwcgZs1372AV-39" target="GkxkM57QEwcgZs1372AV-332" edge="1">
          <mxGeometry width="50" height="50" relative="1" as="geometry">
            <mxPoint x="480" y="770" as="sourcePoint" />
            <mxPoint x="230" y="580" as="targetPoint" />
          </mxGeometry>
        </mxCell>
        <mxCell id="GkxkM57QEwcgZs1372AV-336" value="" style="endArrow=none;html=1;entryX=1;entryY=0.5;entryDx=0;entryDy=0;exitX=0;exitY=0.5;exitDx=0;exitDy=0;strokeWidth=1;rounded=0;strokeColor=#525252;" parent="1" source="GkxkM57QEwcgZs1372AV-40" target="GkxkM57QEwcgZs1372AV-332" edge="1">
          <mxGeometry width="50" height="50" relative="1" as="geometry">
            <mxPoint x="480" y="810" as="sourcePoint" />
            <mxPoint x="240" y="590" as="targetPoint" />
          </mxGeometry>
        </mxCell>
        <mxCell id="GkxkM57QEwcgZs1372AV-337" value="" style="endArrow=none;html=1;entryX=1;entryY=0.5;entryDx=0;entryDy=0;exitX=0;exitY=0.5;exitDx=0;exitDy=0;strokeWidth=1;rounded=0;strokeColor=#525252;" parent="1" source="GkxkM57QEwcgZs1372AV-41" target="GkxkM57QEwcgZs1372AV-332" edge="1">
          <mxGeometry width="50" height="50" relative="1" as="geometry">
            <mxPoint x="480" y="890" as="sourcePoint" />
            <mxPoint x="250" y="600" as="targetPoint" />
          </mxGeometry>
        </mxCell>
        <mxCell id="GkxkM57QEwcgZs1372AV-338" value="" style="endArrow=none;html=1;exitX=0;exitY=0.5;exitDx=0;exitDy=0;strokeWidth=1;rounded=0;strokeColor=#525252;entryX=1;entryY=0.5;entryDx=0;entryDy=0;" parent="1" source="GkxkM57QEwcgZs1372AV-42" target="GkxkM57QEwcgZs1372AV-332" edge="1">
          <mxGeometry width="50" height="50" relative="1" as="geometry">
            <mxPoint x="480" y="930" as="sourcePoint" />
            <mxPoint x="240" y="568" as="targetPoint" />
          </mxGeometry>
        </mxCell>
        <mxCell id="GkxkM57QEwcgZs1372AV-339" value="" style="endArrow=none;html=1;entryX=1;entryY=0.5;entryDx=0;entryDy=0;exitX=0;exitY=0.5;exitDx=0;exitDy=0;strokeWidth=1;rounded=0;strokeColor=#525252;" parent="1" source="GkxkM57QEwcgZs1372AV-44" target="GkxkM57QEwcgZs1372AV-332" edge="1">
          <mxGeometry width="50" height="50" relative="1" as="geometry">
            <mxPoint x="480" y="1010" as="sourcePoint" />
            <mxPoint x="270" y="620" as="targetPoint" />
          </mxGeometry>
        </mxCell>
        <mxCell id="GkxkM57QEwcgZs1372AV-340" value="" style="endArrow=none;html=1;entryX=1;entryY=0.5;entryDx=0;entryDy=0;exitX=0;exitY=0.5;exitDx=0;exitDy=0;strokeWidth=1;rounded=0;strokeColor=#525252;" parent="1" source="GkxkM57QEwcgZs1372AV-45" target="GkxkM57QEwcgZs1372AV-332" edge="1">
          <mxGeometry width="50" height="50" relative="1" as="geometry">
            <mxPoint x="480" y="1050" as="sourcePoint" />
            <mxPoint x="280" y="630" as="targetPoint" />
          </mxGeometry>
        </mxCell>
        <mxCell id="GkxkM57QEwcgZs1372AV-341" value="" style="endArrow=none;html=1;entryX=1;entryY=0.5;entryDx=0;entryDy=0;exitX=0;exitY=0.5;exitDx=0;exitDy=0;strokeWidth=1;rounded=0;strokeColor=#525252;" parent="1" source="GkxkM57QEwcgZs1372AV-46" target="GkxkM57QEwcgZs1372AV-332" edge="1">
          <mxGeometry width="50" height="50" relative="1" as="geometry">
            <mxPoint x="480" y="1090" as="sourcePoint" />
            <mxPoint x="290" y="640" as="targetPoint" />
          </mxGeometry>
        </mxCell>
        <mxCell id="GkxkM57QEwcgZs1372AV-342" value="" style="endArrow=none;html=1;entryX=1;entryY=0.5;entryDx=0;entryDy=0;strokeWidth=1;rounded=0;strokeColor=#525252;exitX=0;exitY=0.5;exitDx=0;exitDy=0;" parent="1" source="GkxkM57QEwcgZs1372AV-36" target="GkxkM57QEwcgZs1372AV-332" edge="1">
          <mxGeometry width="50" height="50" relative="1" as="geometry">
            <mxPoint x="480" y="640" as="sourcePoint" />
            <mxPoint x="300" y="650" as="targetPoint" />
          </mxGeometry>
        </mxCell>
        <mxCell id="GkxkM57QEwcgZs1372AV-343" value="" style="endArrow=none;html=1;entryX=1;entryY=0.5;entryDx=0;entryDy=0;strokeWidth=1;rounded=0;strokeColor=#525252;exitX=0;exitY=0.5;exitDx=0;exitDy=0;" parent="1" source="GkxkM57QEwcgZs1372AV-35" target="GkxkM57QEwcgZs1372AV-332" edge="1">
          <mxGeometry width="50" height="50" relative="1" as="geometry">
            <mxPoint x="480" y="600" as="sourcePoint" />
            <mxPoint x="310" y="660" as="targetPoint" />
          </mxGeometry>
        </mxCell>
        <mxCell id="GkxkM57QEwcgZs1372AV-344" value="" style="endArrow=none;html=1;entryX=1;entryY=0.5;entryDx=0;entryDy=0;exitX=0;exitY=0.5;exitDx=0;exitDy=0;strokeWidth=1;rounded=0;strokeColor=#525252;" parent="1" source="GkxkM57QEwcgZs1372AV-43" target="GkxkM57QEwcgZs1372AV-332" edge="1">
          <mxGeometry width="50" height="50" relative="1" as="geometry">
            <mxPoint x="480" y="970" as="sourcePoint" />
            <mxPoint x="320" y="670" as="targetPoint" />
          </mxGeometry>
        </mxCell>
        <mxCell id="GkxkM57QEwcgZs1372AV-345" value="" style="ellipse;whiteSpace=wrap;html=1;aspect=fixed;allowArrows=0;rounded=0;" parent="1" vertex="1">
          <mxGeometry x="240" y="600" width="20" height="20" as="geometry" />
        </mxCell>
        <mxCell id="GkxkM57QEwcgZs1372AV-346" value="" style="endArrow=none;html=1;entryX=1;entryY=0.5;entryDx=0;entryDy=0;exitX=0;exitY=0.5;exitDx=0;exitDy=0;strokeWidth=1;rounded=0;strokeColor=#525252;" parent="1" source="GkxkM57QEwcgZs1372AV-37" target="GkxkM57QEwcgZs1372AV-345" edge="1">
          <mxGeometry width="50" height="50" relative="1" as="geometry">
            <mxPoint x="480" y="730" as="sourcePoint" />
            <mxPoint x="440" y="938" as="targetPoint" />
          </mxGeometry>
        </mxCell>
        <mxCell id="GkxkM57QEwcgZs1372AV-347" value="" style="endArrow=none;html=1;entryX=1;entryY=0.5;entryDx=0;entryDy=0;exitX=0;exitY=0.5;exitDx=0;exitDy=0;strokeWidth=1;rounded=0;strokeColor=#525252;" parent="1" source="GkxkM57QEwcgZs1372AV-38" target="GkxkM57QEwcgZs1372AV-345" edge="1">
          <mxGeometry width="50" height="50" relative="1" as="geometry">
            <mxPoint x="480" y="770" as="sourcePoint" />
            <mxPoint x="240" y="630" as="targetPoint" />
          </mxGeometry>
        </mxCell>
        <mxCell id="GkxkM57QEwcgZs1372AV-348" value="" style="endArrow=none;html=1;entryX=1;entryY=0.5;entryDx=0;entryDy=0;exitX=0;exitY=0.5;exitDx=0;exitDy=0;strokeWidth=1;rounded=0;strokeColor=#525252;" parent="1" source="GkxkM57QEwcgZs1372AV-39" target="GkxkM57QEwcgZs1372AV-345" edge="1">
          <mxGeometry width="50" height="50" relative="1" as="geometry">
            <mxPoint x="480" y="810" as="sourcePoint" />
            <mxPoint x="230" y="620" as="targetPoint" />
          </mxGeometry>
        </mxCell>
        <mxCell id="GkxkM57QEwcgZs1372AV-349" value="" style="endArrow=none;html=1;entryX=1;entryY=0.5;entryDx=0;entryDy=0;exitX=0;exitY=0.5;exitDx=0;exitDy=0;strokeWidth=1;rounded=0;strokeColor=#525252;" parent="1" source="GkxkM57QEwcgZs1372AV-40" target="GkxkM57QEwcgZs1372AV-345" edge="1">
          <mxGeometry width="50" height="50" relative="1" as="geometry">
            <mxPoint x="480" y="850" as="sourcePoint" />
            <mxPoint x="240" y="630" as="targetPoint" />
          </mxGeometry>
        </mxCell>
        <mxCell id="GkxkM57QEwcgZs1372AV-350" value="" style="endArrow=none;html=1;entryX=1;entryY=0.5;entryDx=0;entryDy=0;exitX=0;exitY=0.5;exitDx=0;exitDy=0;strokeWidth=1;rounded=0;strokeColor=#525252;" parent="1" source="GkxkM57QEwcgZs1372AV-41" target="GkxkM57QEwcgZs1372AV-345" edge="1">
          <mxGeometry width="50" height="50" relative="1" as="geometry">
            <mxPoint x="480" y="930" as="sourcePoint" />
            <mxPoint x="250" y="640" as="targetPoint" />
          </mxGeometry>
        </mxCell>
        <mxCell id="GkxkM57QEwcgZs1372AV-351" value="" style="endArrow=none;html=1;exitX=0;exitY=0.5;exitDx=0;exitDy=0;strokeWidth=1;rounded=0;strokeColor=#525252;entryX=1;entryY=0.5;entryDx=0;entryDy=0;" parent="1" source="GkxkM57QEwcgZs1372AV-42" target="GkxkM57QEwcgZs1372AV-345" edge="1">
          <mxGeometry width="50" height="50" relative="1" as="geometry">
            <mxPoint x="480" y="970" as="sourcePoint" />
            <mxPoint x="240" y="608" as="targetPoint" />
          </mxGeometry>
        </mxCell>
        <mxCell id="GkxkM57QEwcgZs1372AV-352" value="" style="endArrow=none;html=1;entryX=1;entryY=0.5;entryDx=0;entryDy=0;strokeWidth=1;rounded=0;strokeColor=#525252;exitX=0;exitY=0.5;exitDx=0;exitDy=0;" parent="1" source="GkxkM57QEwcgZs1372AV-44" target="GkxkM57QEwcgZs1372AV-345" edge="1">
          <mxGeometry width="50" height="50" relative="1" as="geometry">
            <mxPoint x="520" y="680" as="sourcePoint" />
            <mxPoint x="270" y="660" as="targetPoint" />
          </mxGeometry>
        </mxCell>
        <mxCell id="GkxkM57QEwcgZs1372AV-353" value="" style="endArrow=none;html=1;entryX=1;entryY=0.5;entryDx=0;entryDy=0;exitX=0;exitY=0.5;exitDx=0;exitDy=0;strokeWidth=1;rounded=0;strokeColor=#525252;" parent="1" source="GkxkM57QEwcgZs1372AV-45" target="GkxkM57QEwcgZs1372AV-345" edge="1">
          <mxGeometry width="50" height="50" relative="1" as="geometry">
            <mxPoint x="480" y="1090" as="sourcePoint" />
            <mxPoint x="280" y="670" as="targetPoint" />
          </mxGeometry>
        </mxCell>
        <mxCell id="GkxkM57QEwcgZs1372AV-354" value="" style="endArrow=none;html=1;entryX=1;entryY=0.5;entryDx=0;entryDy=0;exitX=0;exitY=0.5;exitDx=0;exitDy=0;strokeWidth=1;rounded=0;strokeColor=#525252;" parent="1" source="GkxkM57QEwcgZs1372AV-46" target="GkxkM57QEwcgZs1372AV-345" edge="1">
          <mxGeometry width="50" height="50" relative="1" as="geometry">
            <mxPoint x="480" y="1130" as="sourcePoint" />
            <mxPoint x="290" y="680" as="targetPoint" />
          </mxGeometry>
        </mxCell>
        <mxCell id="GkxkM57QEwcgZs1372AV-355" value="" style="endArrow=none;html=1;entryX=1;entryY=0.5;entryDx=0;entryDy=0;exitX=0;exitY=0.5;exitDx=0;exitDy=0;strokeWidth=1;rounded=0;strokeColor=#525252;" parent="1" source="GkxkM57QEwcgZs1372AV-36" target="GkxkM57QEwcgZs1372AV-345" edge="1">
          <mxGeometry width="50" height="50" relative="1" as="geometry">
            <mxPoint x="480" y="690" as="sourcePoint" />
            <mxPoint x="300" y="690" as="targetPoint" />
          </mxGeometry>
        </mxCell>
        <mxCell id="GkxkM57QEwcgZs1372AV-356" value="" style="endArrow=none;html=1;entryX=1;entryY=0.5;entryDx=0;entryDy=0;exitX=0;exitY=0.5;exitDx=0;exitDy=0;strokeWidth=1;rounded=0;strokeColor=#525252;" parent="1" source="GkxkM57QEwcgZs1372AV-35" target="GkxkM57QEwcgZs1372AV-345" edge="1">
          <mxGeometry width="50" height="50" relative="1" as="geometry">
            <mxPoint x="480" y="650" as="sourcePoint" />
            <mxPoint x="310" y="700" as="targetPoint" />
          </mxGeometry>
        </mxCell>
        <mxCell id="GkxkM57QEwcgZs1372AV-357" value="" style="endArrow=none;html=1;entryX=1;entryY=0.5;entryDx=0;entryDy=0;strokeWidth=1;rounded=0;strokeColor=#525252;exitX=0;exitY=0.5;exitDx=0;exitDy=0;" parent="1" source="GkxkM57QEwcgZs1372AV-43" target="GkxkM57QEwcgZs1372AV-345" edge="1">
          <mxGeometry width="50" height="50" relative="1" as="geometry">
            <mxPoint x="480" y="1020" as="sourcePoint" />
            <mxPoint x="320" y="710" as="targetPoint" />
          </mxGeometry>
        </mxCell>
        <mxCell id="GkxkM57QEwcgZs1372AV-358" value="" style="ellipse;whiteSpace=wrap;html=1;aspect=fixed;allowArrows=0;rounded=0;" parent="1" vertex="1">
          <mxGeometry x="240" y="640" width="20" height="20" as="geometry" />
        </mxCell>
        <mxCell id="GkxkM57QEwcgZs1372AV-359" value="" style="endArrow=none;html=1;entryX=1;entryY=0.5;entryDx=0;entryDy=0;exitX=0;exitY=0.5;exitDx=0;exitDy=0;strokeWidth=1;rounded=0;strokeColor=#525252;" parent="1" source="GkxkM57QEwcgZs1372AV-37" target="GkxkM57QEwcgZs1372AV-358" edge="1">
          <mxGeometry width="50" height="50" relative="1" as="geometry">
            <mxPoint x="480" y="770" as="sourcePoint" />
            <mxPoint x="440" y="978" as="targetPoint" />
          </mxGeometry>
        </mxCell>
        <mxCell id="GkxkM57QEwcgZs1372AV-360" value="" style="endArrow=none;html=1;entryX=1;entryY=0.5;entryDx=0;entryDy=0;exitX=0;exitY=0.5;exitDx=0;exitDy=0;strokeWidth=1;rounded=0;strokeColor=#525252;" parent="1" source="GkxkM57QEwcgZs1372AV-38" target="GkxkM57QEwcgZs1372AV-358" edge="1">
          <mxGeometry width="50" height="50" relative="1" as="geometry">
            <mxPoint x="480" y="810" as="sourcePoint" />
            <mxPoint x="240" y="670" as="targetPoint" />
          </mxGeometry>
        </mxCell>
        <mxCell id="GkxkM57QEwcgZs1372AV-361" value="" style="endArrow=none;html=1;entryX=1;entryY=0.5;entryDx=0;entryDy=0;exitX=0;exitY=0.5;exitDx=0;exitDy=0;strokeWidth=1;rounded=0;strokeColor=#525252;" parent="1" source="GkxkM57QEwcgZs1372AV-39" target="GkxkM57QEwcgZs1372AV-358" edge="1">
          <mxGeometry width="50" height="50" relative="1" as="geometry">
            <mxPoint x="480" y="850" as="sourcePoint" />
            <mxPoint x="230" y="660" as="targetPoint" />
          </mxGeometry>
        </mxCell>
        <mxCell id="GkxkM57QEwcgZs1372AV-362" value="" style="endArrow=none;html=1;entryX=1;entryY=0.5;entryDx=0;entryDy=0;exitX=0;exitY=0.5;exitDx=0;exitDy=0;strokeWidth=1;rounded=0;strokeColor=#525252;" parent="1" source="GkxkM57QEwcgZs1372AV-40" target="GkxkM57QEwcgZs1372AV-358" edge="1">
          <mxGeometry width="50" height="50" relative="1" as="geometry">
            <mxPoint x="480" y="890" as="sourcePoint" />
            <mxPoint x="240" y="670" as="targetPoint" />
          </mxGeometry>
        </mxCell>
        <mxCell id="GkxkM57QEwcgZs1372AV-363" value="" style="endArrow=none;html=1;entryX=1;entryY=0.5;entryDx=0;entryDy=0;exitX=0;exitY=0.5;exitDx=0;exitDy=0;strokeWidth=1;rounded=0;strokeColor=#525252;" parent="1" source="GkxkM57QEwcgZs1372AV-41" target="GkxkM57QEwcgZs1372AV-358" edge="1">
          <mxGeometry width="50" height="50" relative="1" as="geometry">
            <mxPoint x="480" y="970" as="sourcePoint" />
            <mxPoint x="250" y="680" as="targetPoint" />
          </mxGeometry>
        </mxCell>
        <mxCell id="GkxkM57QEwcgZs1372AV-364" value="" style="endArrow=none;html=1;exitX=0;exitY=0.5;exitDx=0;exitDy=0;strokeWidth=1;rounded=0;strokeColor=#525252;entryX=1;entryY=0.5;entryDx=0;entryDy=0;" parent="1" source="GkxkM57QEwcgZs1372AV-42" target="GkxkM57QEwcgZs1372AV-358" edge="1">
          <mxGeometry width="50" height="50" relative="1" as="geometry">
            <mxPoint x="480" y="1010" as="sourcePoint" />
            <mxPoint x="240" y="648" as="targetPoint" />
          </mxGeometry>
        </mxCell>
        <mxCell id="GkxkM57QEwcgZs1372AV-365" value="" style="endArrow=none;html=1;entryX=1;entryY=0.5;entryDx=0;entryDy=0;exitX=0;exitY=0.5;exitDx=0;exitDy=0;strokeWidth=1;rounded=0;strokeColor=#525252;" parent="1" source="GkxkM57QEwcgZs1372AV-44" target="GkxkM57QEwcgZs1372AV-358" edge="1">
          <mxGeometry width="50" height="50" relative="1" as="geometry">
            <mxPoint x="480" y="1090" as="sourcePoint" />
            <mxPoint x="270" y="700" as="targetPoint" />
          </mxGeometry>
        </mxCell>
        <mxCell id="GkxkM57QEwcgZs1372AV-366" value="" style="endArrow=none;html=1;entryX=1;entryY=0.5;entryDx=0;entryDy=0;exitX=0;exitY=0.5;exitDx=0;exitDy=0;strokeWidth=1;rounded=0;strokeColor=#525252;" parent="1" source="GkxkM57QEwcgZs1372AV-45" target="GkxkM57QEwcgZs1372AV-358" edge="1">
          <mxGeometry width="50" height="50" relative="1" as="geometry">
            <mxPoint x="480" y="1130" as="sourcePoint" />
            <mxPoint x="280" y="710" as="targetPoint" />
          </mxGeometry>
        </mxCell>
        <mxCell id="GkxkM57QEwcgZs1372AV-367" value="" style="endArrow=none;html=1;entryX=1;entryY=0.5;entryDx=0;entryDy=0;exitX=0;exitY=0.5;exitDx=0;exitDy=0;strokeWidth=1;rounded=0;strokeColor=#525252;" parent="1" source="GkxkM57QEwcgZs1372AV-46" target="GkxkM57QEwcgZs1372AV-358" edge="1">
          <mxGeometry width="50" height="50" relative="1" as="geometry">
            <mxPoint x="480" y="1170" as="sourcePoint" />
            <mxPoint x="290" y="720" as="targetPoint" />
          </mxGeometry>
        </mxCell>
        <mxCell id="GkxkM57QEwcgZs1372AV-368" value="" style="endArrow=none;html=1;entryX=1;entryY=0.5;entryDx=0;entryDy=0;exitX=0;exitY=0.5;exitDx=0;exitDy=0;strokeWidth=1;rounded=0;strokeColor=#525252;" parent="1" source="GkxkM57QEwcgZs1372AV-36" target="GkxkM57QEwcgZs1372AV-358" edge="1">
          <mxGeometry width="50" height="50" relative="1" as="geometry">
            <mxPoint x="480" y="730" as="sourcePoint" />
            <mxPoint x="300" y="730" as="targetPoint" />
          </mxGeometry>
        </mxCell>
        <mxCell id="GkxkM57QEwcgZs1372AV-369" value="" style="endArrow=none;html=1;entryX=1;entryY=0.5;entryDx=0;entryDy=0;exitX=0;exitY=0.5;exitDx=0;exitDy=0;strokeWidth=1;rounded=0;strokeColor=#525252;" parent="1" source="GkxkM57QEwcgZs1372AV-35" target="GkxkM57QEwcgZs1372AV-358" edge="1">
          <mxGeometry width="50" height="50" relative="1" as="geometry">
            <mxPoint x="480" y="690" as="sourcePoint" />
            <mxPoint x="310" y="740" as="targetPoint" />
          </mxGeometry>
        </mxCell>
        <mxCell id="GkxkM57QEwcgZs1372AV-370" value="" style="endArrow=none;html=1;entryX=1;entryY=0.5;entryDx=0;entryDy=0;exitX=0;exitY=0.5;exitDx=0;exitDy=0;strokeWidth=1;rounded=0;strokeColor=#525252;" parent="1" source="GkxkM57QEwcgZs1372AV-43" target="GkxkM57QEwcgZs1372AV-358" edge="1">
          <mxGeometry width="50" height="50" relative="1" as="geometry">
            <mxPoint x="480" y="1050" as="sourcePoint" />
            <mxPoint x="320" y="750" as="targetPoint" />
          </mxGeometry>
        </mxCell>
        <mxCell id="GkxkM57QEwcgZs1372AV-371" value="" style="ellipse;whiteSpace=wrap;html=1;aspect=fixed;allowArrows=0;rounded=0;" parent="1" vertex="1">
          <mxGeometry x="240" y="680" width="20" height="20" as="geometry" />
        </mxCell>
        <mxCell id="GkxkM57QEwcgZs1372AV-372" value="" style="endArrow=none;html=1;entryX=1;entryY=0.5;entryDx=0;entryDy=0;exitX=0;exitY=0.5;exitDx=0;exitDy=0;strokeWidth=1;rounded=0;strokeColor=#525252;" parent="1" source="GkxkM57QEwcgZs1372AV-37" target="GkxkM57QEwcgZs1372AV-371" edge="1">
          <mxGeometry width="50" height="50" relative="1" as="geometry">
            <mxPoint x="480" y="810" as="sourcePoint" />
            <mxPoint x="440" y="1018" as="targetPoint" />
          </mxGeometry>
        </mxCell>
        <mxCell id="GkxkM57QEwcgZs1372AV-373" value="" style="endArrow=none;html=1;entryX=1;entryY=0.5;entryDx=0;entryDy=0;exitX=0;exitY=0.5;exitDx=0;exitDy=0;strokeWidth=1;rounded=0;strokeColor=#525252;" parent="1" source="GkxkM57QEwcgZs1372AV-38" target="GkxkM57QEwcgZs1372AV-371" edge="1">
          <mxGeometry width="50" height="50" relative="1" as="geometry">
            <mxPoint x="480" y="850" as="sourcePoint" />
            <mxPoint x="240" y="710" as="targetPoint" />
          </mxGeometry>
        </mxCell>
        <mxCell id="GkxkM57QEwcgZs1372AV-374" value="" style="endArrow=none;html=1;entryX=1;entryY=0.5;entryDx=0;entryDy=0;exitX=0;exitY=0.5;exitDx=0;exitDy=0;strokeWidth=1;rounded=0;strokeColor=#525252;" parent="1" source="GkxkM57QEwcgZs1372AV-39" target="GkxkM57QEwcgZs1372AV-371" edge="1">
          <mxGeometry width="50" height="50" relative="1" as="geometry">
            <mxPoint x="480" y="890" as="sourcePoint" />
            <mxPoint x="230" y="700" as="targetPoint" />
          </mxGeometry>
        </mxCell>
        <mxCell id="GkxkM57QEwcgZs1372AV-375" value="" style="endArrow=none;html=1;entryX=1;entryY=0.5;entryDx=0;entryDy=0;exitX=0;exitY=0.5;exitDx=0;exitDy=0;strokeWidth=1;rounded=0;strokeColor=#525252;" parent="1" source="GkxkM57QEwcgZs1372AV-40" target="GkxkM57QEwcgZs1372AV-371" edge="1">
          <mxGeometry width="50" height="50" relative="1" as="geometry">
            <mxPoint x="480" y="930" as="sourcePoint" />
            <mxPoint x="240" y="710" as="targetPoint" />
          </mxGeometry>
        </mxCell>
        <mxCell id="GkxkM57QEwcgZs1372AV-376" value="" style="endArrow=none;html=1;entryX=1;entryY=0.5;entryDx=0;entryDy=0;exitX=0;exitY=0.5;exitDx=0;exitDy=0;strokeWidth=1;rounded=0;strokeColor=#525252;" parent="1" source="GkxkM57QEwcgZs1372AV-41" target="GkxkM57QEwcgZs1372AV-371" edge="1">
          <mxGeometry width="50" height="50" relative="1" as="geometry">
            <mxPoint x="480" y="1010" as="sourcePoint" />
            <mxPoint x="250" y="720" as="targetPoint" />
          </mxGeometry>
        </mxCell>
        <mxCell id="GkxkM57QEwcgZs1372AV-377" value="" style="endArrow=none;html=1;exitX=0;exitY=0.5;exitDx=0;exitDy=0;strokeWidth=1;rounded=0;strokeColor=#525252;entryX=1;entryY=0.5;entryDx=0;entryDy=0;" parent="1" source="GkxkM57QEwcgZs1372AV-42" target="GkxkM57QEwcgZs1372AV-371" edge="1">
          <mxGeometry width="50" height="50" relative="1" as="geometry">
            <mxPoint x="480" y="1050" as="sourcePoint" />
            <mxPoint x="240" y="688" as="targetPoint" />
          </mxGeometry>
        </mxCell>
        <mxCell id="GkxkM57QEwcgZs1372AV-378" value="" style="endArrow=none;html=1;entryX=1;entryY=0.5;entryDx=0;entryDy=0;exitX=0;exitY=0.5;exitDx=0;exitDy=0;strokeWidth=1;rounded=0;strokeColor=#525252;" parent="1" source="GkxkM57QEwcgZs1372AV-44" target="GkxkM57QEwcgZs1372AV-371" edge="1">
          <mxGeometry width="50" height="50" relative="1" as="geometry">
            <mxPoint x="480" y="1130" as="sourcePoint" />
            <mxPoint x="270" y="740" as="targetPoint" />
          </mxGeometry>
        </mxCell>
        <mxCell id="GkxkM57QEwcgZs1372AV-379" value="" style="endArrow=none;html=1;entryX=1;entryY=0.5;entryDx=0;entryDy=0;exitX=0;exitY=0.5;exitDx=0;exitDy=0;strokeWidth=1;rounded=0;strokeColor=#525252;" parent="1" source="GkxkM57QEwcgZs1372AV-45" target="GkxkM57QEwcgZs1372AV-371" edge="1">
          <mxGeometry width="50" height="50" relative="1" as="geometry">
            <mxPoint x="480" y="1170" as="sourcePoint" />
            <mxPoint x="280" y="750" as="targetPoint" />
          </mxGeometry>
        </mxCell>
        <mxCell id="GkxkM57QEwcgZs1372AV-380" value="" style="endArrow=none;html=1;entryX=1;entryY=0.5;entryDx=0;entryDy=0;exitX=0;exitY=0.5;exitDx=0;exitDy=0;strokeWidth=1;rounded=0;strokeColor=#525252;" parent="1" source="GkxkM57QEwcgZs1372AV-46" target="GkxkM57QEwcgZs1372AV-371" edge="1">
          <mxGeometry width="50" height="50" relative="1" as="geometry">
            <mxPoint x="480" y="1210" as="sourcePoint" />
            <mxPoint x="290" y="760" as="targetPoint" />
          </mxGeometry>
        </mxCell>
        <mxCell id="GkxkM57QEwcgZs1372AV-381" value="" style="endArrow=none;html=1;entryX=1;entryY=0.5;entryDx=0;entryDy=0;exitX=0;exitY=0.5;exitDx=0;exitDy=0;strokeWidth=1;rounded=0;strokeColor=#525252;" parent="1" source="GkxkM57QEwcgZs1372AV-36" target="GkxkM57QEwcgZs1372AV-371" edge="1">
          <mxGeometry width="50" height="50" relative="1" as="geometry">
            <mxPoint x="480" y="770" as="sourcePoint" />
            <mxPoint x="300" y="770" as="targetPoint" />
          </mxGeometry>
        </mxCell>
        <mxCell id="GkxkM57QEwcgZs1372AV-382" value="" style="endArrow=none;html=1;entryX=1;entryY=0.5;entryDx=0;entryDy=0;exitX=0;exitY=0.5;exitDx=0;exitDy=0;strokeWidth=1;rounded=0;strokeColor=#525252;" parent="1" source="GkxkM57QEwcgZs1372AV-35" target="GkxkM57QEwcgZs1372AV-371" edge="1">
          <mxGeometry width="50" height="50" relative="1" as="geometry">
            <mxPoint x="480" y="730" as="sourcePoint" />
            <mxPoint x="310" y="780" as="targetPoint" />
          </mxGeometry>
        </mxCell>
        <mxCell id="GkxkM57QEwcgZs1372AV-383" value="" style="endArrow=none;html=1;entryX=1;entryY=0.5;entryDx=0;entryDy=0;exitX=0;exitY=0.5;exitDx=0;exitDy=0;strokeWidth=1;rounded=0;strokeColor=#525252;" parent="1" source="GkxkM57QEwcgZs1372AV-43" target="GkxkM57QEwcgZs1372AV-371" edge="1">
          <mxGeometry width="50" height="50" relative="1" as="geometry">
            <mxPoint x="480" y="1090" as="sourcePoint" />
            <mxPoint x="320" y="790" as="targetPoint" />
          </mxGeometry>
        </mxCell>
        <mxCell id="GkxkM57QEwcgZs1372AV-384" value="" style="ellipse;whiteSpace=wrap;html=1;aspect=fixed;allowArrows=0;rounded=0;" parent="1" vertex="1">
          <mxGeometry x="240" y="720" width="20" height="20" as="geometry" />
        </mxCell>
        <mxCell id="GkxkM57QEwcgZs1372AV-385" value="" style="endArrow=none;html=1;entryX=1;entryY=0.5;entryDx=0;entryDy=0;exitX=0;exitY=0.5;exitDx=0;exitDy=0;strokeWidth=1;rounded=0;strokeColor=#525252;" parent="1" source="GkxkM57QEwcgZs1372AV-37" target="GkxkM57QEwcgZs1372AV-384" edge="1">
          <mxGeometry width="50" height="50" relative="1" as="geometry">
            <mxPoint x="480" y="850" as="sourcePoint" />
            <mxPoint x="440" y="1058" as="targetPoint" />
          </mxGeometry>
        </mxCell>
        <mxCell id="GkxkM57QEwcgZs1372AV-386" value="" style="endArrow=none;html=1;entryX=1;entryY=0.5;entryDx=0;entryDy=0;exitX=0;exitY=0.5;exitDx=0;exitDy=0;strokeWidth=1;rounded=0;strokeColor=#525252;" parent="1" source="GkxkM57QEwcgZs1372AV-38" target="GkxkM57QEwcgZs1372AV-384" edge="1">
          <mxGeometry width="50" height="50" relative="1" as="geometry">
            <mxPoint x="480" y="890" as="sourcePoint" />
            <mxPoint x="240" y="750" as="targetPoint" />
          </mxGeometry>
        </mxCell>
        <mxCell id="GkxkM57QEwcgZs1372AV-387" value="" style="endArrow=none;html=1;entryX=1;entryY=0.5;entryDx=0;entryDy=0;exitX=0;exitY=0.5;exitDx=0;exitDy=0;strokeWidth=1;rounded=0;strokeColor=#525252;" parent="1" source="GkxkM57QEwcgZs1372AV-39" target="GkxkM57QEwcgZs1372AV-384" edge="1">
          <mxGeometry width="50" height="50" relative="1" as="geometry">
            <mxPoint x="480" y="930" as="sourcePoint" />
            <mxPoint x="230" y="740" as="targetPoint" />
          </mxGeometry>
        </mxCell>
        <mxCell id="GkxkM57QEwcgZs1372AV-388" value="" style="endArrow=none;html=1;entryX=1;entryY=0.5;entryDx=0;entryDy=0;exitX=0;exitY=0.5;exitDx=0;exitDy=0;strokeWidth=1;rounded=0;strokeColor=#525252;" parent="1" source="GkxkM57QEwcgZs1372AV-40" target="GkxkM57QEwcgZs1372AV-384" edge="1">
          <mxGeometry width="50" height="50" relative="1" as="geometry">
            <mxPoint x="480" y="970" as="sourcePoint" />
            <mxPoint x="240" y="750" as="targetPoint" />
          </mxGeometry>
        </mxCell>
        <mxCell id="GkxkM57QEwcgZs1372AV-389" value="" style="endArrow=none;html=1;entryX=1;entryY=0.5;entryDx=0;entryDy=0;exitX=0;exitY=0.5;exitDx=0;exitDy=0;strokeWidth=1;rounded=0;strokeColor=#525252;" parent="1" source="GkxkM57QEwcgZs1372AV-41" target="GkxkM57QEwcgZs1372AV-384" edge="1">
          <mxGeometry width="50" height="50" relative="1" as="geometry">
            <mxPoint x="480" y="1050" as="sourcePoint" />
            <mxPoint x="250" y="760" as="targetPoint" />
          </mxGeometry>
        </mxCell>
        <mxCell id="GkxkM57QEwcgZs1372AV-390" value="" style="endArrow=none;html=1;exitX=0;exitY=0.5;exitDx=0;exitDy=0;strokeWidth=1;rounded=0;strokeColor=#525252;entryX=1;entryY=0.5;entryDx=0;entryDy=0;" parent="1" source="GkxkM57QEwcgZs1372AV-42" target="GkxkM57QEwcgZs1372AV-384" edge="1">
          <mxGeometry width="50" height="50" relative="1" as="geometry">
            <mxPoint x="480" y="1090" as="sourcePoint" />
            <mxPoint x="240" y="728" as="targetPoint" />
          </mxGeometry>
        </mxCell>
        <mxCell id="GkxkM57QEwcgZs1372AV-391" value="" style="endArrow=none;html=1;entryX=1;entryY=0.5;entryDx=0;entryDy=0;exitX=0;exitY=0.5;exitDx=0;exitDy=0;strokeWidth=1;rounded=0;strokeColor=#525252;" parent="1" source="GkxkM57QEwcgZs1372AV-44" target="GkxkM57QEwcgZs1372AV-384" edge="1">
          <mxGeometry width="50" height="50" relative="1" as="geometry">
            <mxPoint x="480" y="1170" as="sourcePoint" />
            <mxPoint x="270" y="780" as="targetPoint" />
          </mxGeometry>
        </mxCell>
        <mxCell id="GkxkM57QEwcgZs1372AV-392" value="" style="endArrow=none;html=1;entryX=1;entryY=0.5;entryDx=0;entryDy=0;exitX=0;exitY=0.5;exitDx=0;exitDy=0;strokeWidth=1;rounded=0;strokeColor=#525252;" parent="1" source="GkxkM57QEwcgZs1372AV-45" target="GkxkM57QEwcgZs1372AV-384" edge="1">
          <mxGeometry width="50" height="50" relative="1" as="geometry">
            <mxPoint x="480" y="1210" as="sourcePoint" />
            <mxPoint x="280" y="790" as="targetPoint" />
          </mxGeometry>
        </mxCell>
        <mxCell id="GkxkM57QEwcgZs1372AV-393" value="" style="endArrow=none;html=1;entryX=1;entryY=0.5;entryDx=0;entryDy=0;exitX=0;exitY=0.5;exitDx=0;exitDy=0;strokeWidth=1;rounded=0;strokeColor=#525252;" parent="1" source="GkxkM57QEwcgZs1372AV-46" target="GkxkM57QEwcgZs1372AV-384" edge="1">
          <mxGeometry width="50" height="50" relative="1" as="geometry">
            <mxPoint x="480" y="1250" as="sourcePoint" />
            <mxPoint x="290" y="800" as="targetPoint" />
          </mxGeometry>
        </mxCell>
        <mxCell id="GkxkM57QEwcgZs1372AV-394" value="" style="endArrow=none;html=1;entryX=1;entryY=0.5;entryDx=0;entryDy=0;exitX=0;exitY=0.5;exitDx=0;exitDy=0;strokeWidth=1;rounded=0;strokeColor=#525252;" parent="1" source="GkxkM57QEwcgZs1372AV-36" target="GkxkM57QEwcgZs1372AV-384" edge="1">
          <mxGeometry width="50" height="50" relative="1" as="geometry">
            <mxPoint x="480" y="810" as="sourcePoint" />
            <mxPoint x="300" y="810" as="targetPoint" />
          </mxGeometry>
        </mxCell>
        <mxCell id="GkxkM57QEwcgZs1372AV-395" value="" style="endArrow=none;html=1;entryX=1;entryY=0.5;entryDx=0;entryDy=0;exitX=0;exitY=0.5;exitDx=0;exitDy=0;strokeWidth=1;rounded=0;strokeColor=#525252;" parent="1" source="GkxkM57QEwcgZs1372AV-35" target="GkxkM57QEwcgZs1372AV-384" edge="1">
          <mxGeometry width="50" height="50" relative="1" as="geometry">
            <mxPoint x="480" y="770" as="sourcePoint" />
            <mxPoint x="310" y="820" as="targetPoint" />
          </mxGeometry>
        </mxCell>
        <mxCell id="GkxkM57QEwcgZs1372AV-396" value="" style="endArrow=none;html=1;entryX=1;entryY=0.5;entryDx=0;entryDy=0;exitX=0;exitY=0.5;exitDx=0;exitDy=0;strokeWidth=1;rounded=0;strokeColor=#525252;" parent="1" source="GkxkM57QEwcgZs1372AV-43" target="GkxkM57QEwcgZs1372AV-384" edge="1">
          <mxGeometry width="50" height="50" relative="1" as="geometry">
            <mxPoint x="480" y="1130" as="sourcePoint" />
            <mxPoint x="320" y="830" as="targetPoint" />
          </mxGeometry>
        </mxCell>
        <mxCell id="GkxkM57QEwcgZs1372AV-487" value="3211" style="text;html=1;align=center;verticalAlign=middle;resizable=0;points=[];autosize=1;strokeColor=none;fillColor=none;" parent="1" vertex="1">
          <mxGeometry x="230" y="750" width="40" height="20" as="geometry" />
        </mxCell>
        <mxCell id="GkxkM57QEwcgZs1372AV-488" value="64" style="text;html=1;align=center;verticalAlign=middle;resizable=0;points=[];autosize=1;strokeColor=none;fillColor=none;" parent="1" vertex="1">
          <mxGeometry x="435" y="670" width="30" height="20" as="geometry" />
        </mxCell>
        <mxCell id="GkxkM57QEwcgZs1372AV-607" value="" style="ellipse;whiteSpace=wrap;html=1;aspect=fixed;rounded=0;" parent="1" vertex="1">
          <mxGeometry x="640" y="160" width="20" height="20" as="geometry" />
        </mxCell>
        <mxCell id="GkxkM57QEwcgZs1372AV-608" value="" style="ellipse;whiteSpace=wrap;html=1;aspect=fixed;rounded=0;" parent="1" vertex="1">
          <mxGeometry x="640" y="200" width="20" height="20" as="geometry" />
        </mxCell>
        <mxCell id="GkxkM57QEwcgZs1372AV-609" value="" style="ellipse;whiteSpace=wrap;html=1;aspect=fixed;rounded=0;" parent="1" vertex="1">
          <mxGeometry x="640" y="240" width="20" height="20" as="geometry" />
        </mxCell>
        <mxCell id="GkxkM57QEwcgZs1372AV-610" value="" style="ellipse;whiteSpace=wrap;html=1;aspect=fixed;rounded=0;" parent="1" vertex="1">
          <mxGeometry x="640" y="280" width="20" height="20" as="geometry" />
        </mxCell>
        <mxCell id="GkxkM57QEwcgZs1372AV-611" value="" style="ellipse;whiteSpace=wrap;html=1;aspect=fixed;rounded=0;" parent="1" vertex="1">
          <mxGeometry x="640" y="320" width="20" height="20" as="geometry" />
        </mxCell>
        <mxCell id="GkxkM57QEwcgZs1372AV-612" value="" style="ellipse;whiteSpace=wrap;html=1;aspect=fixed;rounded=0;" parent="1" vertex="1">
          <mxGeometry x="640" y="360" width="20" height="20" as="geometry" />
        </mxCell>
        <mxCell id="GkxkM57QEwcgZs1372AV-613" value="" style="ellipse;whiteSpace=wrap;html=1;aspect=fixed;fillColor=#000000;strokeWidth=0;rounded=0;" parent="1" vertex="1">
          <mxGeometry x="648" y="398" width="4" height="4" as="geometry" />
        </mxCell>
        <mxCell id="GkxkM57QEwcgZs1372AV-614" value="" style="ellipse;whiteSpace=wrap;html=1;aspect=fixed;fillColor=#000000;strokeWidth=0;rounded=0;" parent="1" vertex="1">
          <mxGeometry x="648" y="408" width="4" height="4" as="geometry" />
        </mxCell>
        <mxCell id="GkxkM57QEwcgZs1372AV-615" value="" style="ellipse;whiteSpace=wrap;html=1;aspect=fixed;fillColor=#000000;strokeWidth=0;rounded=0;" parent="1" vertex="1">
          <mxGeometry x="648" y="418" width="4" height="4" as="geometry" />
        </mxCell>
        <mxCell id="GkxkM57QEwcgZs1372AV-616" value="" style="endArrow=none;html=1;entryX=1;entryY=0.5;entryDx=0;entryDy=0;exitX=0;exitY=0.5;exitDx=0;exitDy=0;strokeWidth=1;rounded=0;strokeColor=#525252;" parent="1" source="GkxkM57QEwcgZs1372AV-622" target="GkxkM57QEwcgZs1372AV-35" edge="1">
          <mxGeometry width="50" height="50" relative="1" as="geometry">
            <mxPoint x="905" y="332" as="sourcePoint" />
            <mxPoint x="465" y="175" as="targetPoint" />
          </mxGeometry>
        </mxCell>
        <mxCell id="GkxkM57QEwcgZs1372AV-617" value="" style="endArrow=none;html=1;entryX=1;entryY=0.5;entryDx=0;entryDy=0;exitX=0;exitY=0.5;exitDx=0;exitDy=0;strokeWidth=1;rounded=0;strokeColor=#525252;" parent="1" source="GkxkM57QEwcgZs1372AV-624" target="GkxkM57QEwcgZs1372AV-35" edge="1">
          <mxGeometry width="50" height="50" relative="1" as="geometry">
            <mxPoint x="905" y="385" as="sourcePoint" />
            <mxPoint x="465" y="175" as="targetPoint" />
          </mxGeometry>
        </mxCell>
        <mxCell id="GkxkM57QEwcgZs1372AV-618" value="" style="endArrow=none;html=1;entryX=1;entryY=0.5;entryDx=0;entryDy=0;exitX=0;exitY=0.5;exitDx=0;exitDy=0;strokeWidth=1;rounded=0;strokeColor=#525252;" parent="1" source="GkxkM57QEwcgZs1372AV-611" target="GkxkM57QEwcgZs1372AV-35" edge="1">
          <mxGeometry width="50" height="50" relative="1" as="geometry">
            <mxPoint x="905" y="423" as="sourcePoint" />
            <mxPoint x="465" y="175" as="targetPoint" />
          </mxGeometry>
        </mxCell>
        <mxCell id="GkxkM57QEwcgZs1372AV-619" value="" style="endArrow=none;html=1;entryX=1;entryY=0.5;entryDx=0;entryDy=0;exitX=0;exitY=0.5;exitDx=0;exitDy=0;strokeWidth=1;rounded=0;strokeColor=#525252;" parent="1" source="GkxkM57QEwcgZs1372AV-612" target="GkxkM57QEwcgZs1372AV-35" edge="1">
          <mxGeometry width="50" height="50" relative="1" as="geometry">
            <mxPoint x="909" y="472" as="sourcePoint" />
            <mxPoint x="465" y="175" as="targetPoint" />
          </mxGeometry>
        </mxCell>
        <mxCell id="GkxkM57QEwcgZs1372AV-620" value="" style="endArrow=none;html=1;entryX=1;entryY=0.5;entryDx=0;entryDy=0;exitX=0;exitY=0.5;exitDx=0;exitDy=0;strokeWidth=1;rounded=0;strokeColor=#525252;" parent="1" source="GkxkM57QEwcgZs1372AV-610" target="GkxkM57QEwcgZs1372AV-35" edge="1">
          <mxGeometry width="50" height="50" relative="1" as="geometry">
            <mxPoint x="827" y="365" as="sourcePoint" />
            <mxPoint x="465" y="175" as="targetPoint" />
          </mxGeometry>
        </mxCell>
        <mxCell id="GkxkM57QEwcgZs1372AV-621" value="" style="endArrow=none;html=1;entryX=1;entryY=0.5;entryDx=0;entryDy=0;exitX=0;exitY=0.5;exitDx=0;exitDy=0;strokeWidth=1;rounded=0;strokeColor=#525252;" parent="1" source="GkxkM57QEwcgZs1372AV-623" target="GkxkM57QEwcgZs1372AV-35" edge="1">
          <mxGeometry width="50" height="50" relative="1" as="geometry">
            <mxPoint x="757" y="292" as="sourcePoint" />
            <mxPoint x="465" y="175" as="targetPoint" />
          </mxGeometry>
        </mxCell>
        <mxCell id="GkxkM57QEwcgZs1372AV-622" value="" style="ellipse;whiteSpace=wrap;html=1;aspect=fixed;rounded=0;" parent="1" vertex="1">
          <mxGeometry x="640" y="160" width="20" height="20" as="geometry" />
        </mxCell>
        <mxCell id="GkxkM57QEwcgZs1372AV-623" value="" style="ellipse;whiteSpace=wrap;html=1;aspect=fixed;rounded=0;" parent="1" vertex="1">
          <mxGeometry x="640" y="200" width="20" height="20" as="geometry" />
        </mxCell>
        <mxCell id="GkxkM57QEwcgZs1372AV-624" value="" style="ellipse;whiteSpace=wrap;html=1;aspect=fixed;rounded=0;" parent="1" vertex="1">
          <mxGeometry x="640" y="240" width="20" height="20" as="geometry" />
        </mxCell>
        <mxCell id="GkxkM57QEwcgZs1372AV-625" value="" style="ellipse;whiteSpace=wrap;html=1;aspect=fixed;fillColor=#000000;strokeWidth=0;rounded=0;" parent="1" vertex="1">
          <mxGeometry x="648" y="398" width="4" height="4" as="geometry" />
        </mxCell>
        <mxCell id="GkxkM57QEwcgZs1372AV-626" value="" style="ellipse;whiteSpace=wrap;html=1;aspect=fixed;fillColor=#000000;strokeWidth=0;rounded=0;" parent="1" vertex="1">
          <mxGeometry x="648" y="408" width="4" height="4" as="geometry" />
        </mxCell>
        <mxCell id="GkxkM57QEwcgZs1372AV-627" value="" style="endArrow=none;html=1;strokeColor=#525252;strokeWidth=1;entryX=1;entryY=0.5;entryDx=0;entryDy=0;exitX=0;exitY=0.5;exitDx=0;exitDy=0;" parent="1" source="GkxkM57QEwcgZs1372AV-622" target="GkxkM57QEwcgZs1372AV-36" edge="1">
          <mxGeometry width="50" height="50" relative="1" as="geometry">
            <mxPoint x="665" y="275" as="sourcePoint" />
            <mxPoint x="465" y="215" as="targetPoint" />
          </mxGeometry>
        </mxCell>
        <mxCell id="GkxkM57QEwcgZs1372AV-628" value="" style="endArrow=none;html=1;strokeColor=#525252;strokeWidth=1;entryX=0;entryY=0.5;entryDx=0;entryDy=0;exitX=1;exitY=0.5;exitDx=0;exitDy=0;" parent="1" source="GkxkM57QEwcgZs1372AV-36" target="GkxkM57QEwcgZs1372AV-623" edge="1">
          <mxGeometry width="50" height="50" relative="1" as="geometry">
            <mxPoint x="465" y="215" as="sourcePoint" />
            <mxPoint x="525" y="325" as="targetPoint" />
          </mxGeometry>
        </mxCell>
        <mxCell id="GkxkM57QEwcgZs1372AV-629" value="" style="endArrow=none;html=1;strokeColor=#525252;strokeWidth=1;entryX=0;entryY=0.5;entryDx=0;entryDy=0;exitX=1;exitY=0.5;exitDx=0;exitDy=0;" parent="1" source="GkxkM57QEwcgZs1372AV-36" target="GkxkM57QEwcgZs1372AV-624" edge="1">
          <mxGeometry width="50" height="50" relative="1" as="geometry">
            <mxPoint x="465" y="215" as="sourcePoint" />
            <mxPoint x="545" y="445" as="targetPoint" />
          </mxGeometry>
        </mxCell>
        <mxCell id="GkxkM57QEwcgZs1372AV-630" value="" style="endArrow=none;html=1;strokeColor=#525252;strokeWidth=1;entryX=0;entryY=0.5;entryDx=0;entryDy=0;exitX=1;exitY=0.5;exitDx=0;exitDy=0;" parent="1" source="GkxkM57QEwcgZs1372AV-36" target="GkxkM57QEwcgZs1372AV-610" edge="1">
          <mxGeometry width="50" height="50" relative="1" as="geometry">
            <mxPoint x="465" y="215" as="sourcePoint" />
            <mxPoint x="555" y="435" as="targetPoint" />
          </mxGeometry>
        </mxCell>
        <mxCell id="GkxkM57QEwcgZs1372AV-631" value="" style="endArrow=none;html=1;strokeColor=#525252;strokeWidth=1;entryX=0;entryY=0.5;entryDx=0;entryDy=0;" parent="1" target="GkxkM57QEwcgZs1372AV-611" edge="1">
          <mxGeometry width="50" height="50" relative="1" as="geometry">
            <mxPoint x="460" y="210" as="sourcePoint" />
            <mxPoint x="565" y="465" as="targetPoint" />
          </mxGeometry>
        </mxCell>
        <mxCell id="GkxkM57QEwcgZs1372AV-632" value="" style="endArrow=none;html=1;strokeColor=#525252;strokeWidth=1;entryX=0;entryY=0.5;entryDx=0;entryDy=0;exitX=1.008;exitY=0.569;exitDx=0;exitDy=0;exitPerimeter=0;" parent="1" source="GkxkM57QEwcgZs1372AV-36" target="GkxkM57QEwcgZs1372AV-612" edge="1">
          <mxGeometry width="50" height="50" relative="1" as="geometry">
            <mxPoint x="465" y="215" as="sourcePoint" />
            <mxPoint x="565" y="475" as="targetPoint" />
          </mxGeometry>
        </mxCell>
        <mxCell id="GkxkM57QEwcgZs1372AV-633" value="" style="endArrow=none;html=1;entryX=1;entryY=0.5;entryDx=0;entryDy=0;exitX=0;exitY=0.5;exitDx=0;exitDy=0;strokeWidth=1;rounded=0;strokeColor=#525252;" parent="1" source="GkxkM57QEwcgZs1372AV-622" target="GkxkM57QEwcgZs1372AV-38" edge="1">
          <mxGeometry width="50" height="50" relative="1" as="geometry">
            <mxPoint x="885" y="335" as="sourcePoint" />
            <mxPoint x="465" y="295" as="targetPoint" />
          </mxGeometry>
        </mxCell>
        <mxCell id="GkxkM57QEwcgZs1372AV-634" value="" style="endArrow=none;html=1;entryX=1;entryY=0.5;entryDx=0;entryDy=0;exitX=0;exitY=0.5;exitDx=0;exitDy=0;strokeWidth=1;rounded=0;strokeColor=#525252;" parent="1" source="GkxkM57QEwcgZs1372AV-623" target="GkxkM57QEwcgZs1372AV-38" edge="1">
          <mxGeometry width="50" height="50" relative="1" as="geometry">
            <mxPoint x="875" y="327" as="sourcePoint" />
            <mxPoint x="465" y="295" as="targetPoint" />
          </mxGeometry>
        </mxCell>
        <mxCell id="GkxkM57QEwcgZs1372AV-635" value="" style="endArrow=none;html=1;entryX=1;entryY=0.5;entryDx=0;entryDy=0;exitX=0;exitY=0.5;exitDx=0;exitDy=0;strokeWidth=1;rounded=0;strokeColor=#525252;" parent="1" source="GkxkM57QEwcgZs1372AV-624" target="GkxkM57QEwcgZs1372AV-38" edge="1">
          <mxGeometry width="50" height="50" relative="1" as="geometry">
            <mxPoint x="885" y="337" as="sourcePoint" />
            <mxPoint x="465" y="295" as="targetPoint" />
          </mxGeometry>
        </mxCell>
        <mxCell id="GkxkM57QEwcgZs1372AV-636" value="" style="endArrow=none;html=1;entryX=1;entryY=0.5;entryDx=0;entryDy=0;strokeWidth=1;rounded=0;strokeColor=#525252;exitX=0;exitY=0.5;exitDx=0;exitDy=0;" parent="1" source="GkxkM57QEwcgZs1372AV-610" target="GkxkM57QEwcgZs1372AV-38" edge="1">
          <mxGeometry width="50" height="50" relative="1" as="geometry">
            <mxPoint x="665" y="435" as="sourcePoint" />
            <mxPoint x="465" y="295" as="targetPoint" />
          </mxGeometry>
        </mxCell>
        <mxCell id="GkxkM57QEwcgZs1372AV-637" value="" style="endArrow=none;html=1;entryX=1;entryY=0.5;entryDx=0;entryDy=0;exitX=0;exitY=0.5;exitDx=0;exitDy=0;strokeWidth=1;rounded=0;strokeColor=#525252;" parent="1" source="GkxkM57QEwcgZs1372AV-611" target="GkxkM57QEwcgZs1372AV-38" edge="1">
          <mxGeometry width="50" height="50" relative="1" as="geometry">
            <mxPoint x="905" y="357" as="sourcePoint" />
            <mxPoint x="465" y="295" as="targetPoint" />
          </mxGeometry>
        </mxCell>
        <mxCell id="GkxkM57QEwcgZs1372AV-638" value="" style="endArrow=none;html=1;entryX=1;entryY=0.5;entryDx=0;entryDy=0;exitX=0;exitY=0.5;exitDx=0;exitDy=0;strokeWidth=1;rounded=0;strokeColor=#525252;" parent="1" source="GkxkM57QEwcgZs1372AV-612" target="GkxkM57QEwcgZs1372AV-38" edge="1">
          <mxGeometry width="50" height="50" relative="1" as="geometry">
            <mxPoint x="915" y="367" as="sourcePoint" />
            <mxPoint x="465" y="295" as="targetPoint" />
          </mxGeometry>
        </mxCell>
        <mxCell id="GkxkM57QEwcgZs1372AV-639" value="" style="endArrow=none;html=1;entryX=1;entryY=0.5;entryDx=0;entryDy=0;exitX=0;exitY=0.5;exitDx=0;exitDy=0;strokeWidth=1;rounded=0;strokeColor=#525252;" parent="1" source="GkxkM57QEwcgZs1372AV-610" target="GkxkM57QEwcgZs1372AV-37" edge="1">
          <mxGeometry width="50" height="50" relative="1" as="geometry">
            <mxPoint x="925" y="377" as="sourcePoint" />
            <mxPoint x="465" y="255" as="targetPoint" />
          </mxGeometry>
        </mxCell>
        <mxCell id="GkxkM57QEwcgZs1372AV-640" value="" style="endArrow=none;html=1;entryX=1;entryY=0.5;entryDx=0;entryDy=0;exitX=0;exitY=0.5;exitDx=0;exitDy=0;strokeWidth=1;rounded=0;strokeColor=#525252;" parent="1" source="GkxkM57QEwcgZs1372AV-611" target="GkxkM57QEwcgZs1372AV-37" edge="1">
          <mxGeometry width="50" height="50" relative="1" as="geometry">
            <mxPoint x="935" y="387" as="sourcePoint" />
            <mxPoint x="465" y="255" as="targetPoint" />
          </mxGeometry>
        </mxCell>
        <mxCell id="GkxkM57QEwcgZs1372AV-641" value="" style="endArrow=none;html=1;entryX=1;entryY=0.5;entryDx=0;entryDy=0;exitX=0;exitY=0.5;exitDx=0;exitDy=0;strokeWidth=1;rounded=0;strokeColor=#525252;" parent="1" source="GkxkM57QEwcgZs1372AV-612" target="GkxkM57QEwcgZs1372AV-37" edge="1">
          <mxGeometry width="50" height="50" relative="1" as="geometry">
            <mxPoint x="945" y="397" as="sourcePoint" />
            <mxPoint x="465" y="255" as="targetPoint" />
          </mxGeometry>
        </mxCell>
        <mxCell id="GkxkM57QEwcgZs1372AV-642" value="" style="endArrow=none;html=1;exitX=0;exitY=0.5;exitDx=0;exitDy=0;strokeWidth=1;rounded=0;strokeColor=#525252;entryX=1;entryY=0.5;entryDx=0;entryDy=0;" parent="1" source="GkxkM57QEwcgZs1372AV-624" target="GkxkM57QEwcgZs1372AV-37" edge="1">
          <mxGeometry width="50" height="50" relative="1" as="geometry">
            <mxPoint x="955" y="407" as="sourcePoint" />
            <mxPoint x="465" y="260" as="targetPoint" />
          </mxGeometry>
        </mxCell>
        <mxCell id="GkxkM57QEwcgZs1372AV-643" value="" style="endArrow=none;html=1;exitX=0;exitY=0.5;exitDx=0;exitDy=0;strokeWidth=1;rounded=0;strokeColor=#525252;entryX=1;entryY=0.5;entryDx=0;entryDy=0;" parent="1" source="GkxkM57QEwcgZs1372AV-623" target="GkxkM57QEwcgZs1372AV-37" edge="1">
          <mxGeometry width="50" height="50" relative="1" as="geometry">
            <mxPoint x="965" y="417" as="sourcePoint" />
            <mxPoint x="480" y="250" as="targetPoint" />
          </mxGeometry>
        </mxCell>
        <mxCell id="GkxkM57QEwcgZs1372AV-644" value="" style="endArrow=none;html=1;entryX=1;entryY=0.5;entryDx=0;entryDy=0;exitX=0;exitY=0.5;exitDx=0;exitDy=0;strokeWidth=1;rounded=0;strokeColor=#525252;" parent="1" source="GkxkM57QEwcgZs1372AV-622" target="GkxkM57QEwcgZs1372AV-37" edge="1">
          <mxGeometry width="50" height="50" relative="1" as="geometry">
            <mxPoint x="865" y="445" as="sourcePoint" />
            <mxPoint x="465" y="255" as="targetPoint" />
          </mxGeometry>
        </mxCell>
        <mxCell id="GkxkM57QEwcgZs1372AV-645" value="" style="endArrow=none;html=1;entryX=1;entryY=0.5;entryDx=0;entryDy=0;exitX=0;exitY=0.5;exitDx=0;exitDy=0;strokeWidth=1;rounded=0;strokeColor=#525252;" parent="1" source="GkxkM57QEwcgZs1372AV-622" target="GkxkM57QEwcgZs1372AV-41" edge="1">
          <mxGeometry width="50" height="50" relative="1" as="geometry">
            <mxPoint x="915" y="315" as="sourcePoint" />
            <mxPoint x="465" y="455" as="targetPoint" />
          </mxGeometry>
        </mxCell>
        <mxCell id="GkxkM57QEwcgZs1372AV-646" value="" style="endArrow=none;html=1;entryX=1;entryY=0.5;entryDx=0;entryDy=0;exitX=0;exitY=0.5;exitDx=0;exitDy=0;strokeWidth=1;rounded=0;strokeColor=#525252;" parent="1" source="GkxkM57QEwcgZs1372AV-610" target="GkxkM57QEwcgZs1372AV-41" edge="1">
          <mxGeometry width="50" height="50" relative="1" as="geometry">
            <mxPoint x="915" y="365" as="sourcePoint" />
            <mxPoint x="465" y="455" as="targetPoint" />
          </mxGeometry>
        </mxCell>
        <mxCell id="GkxkM57QEwcgZs1372AV-647" value="" style="endArrow=none;html=1;entryX=1;entryY=0.5;entryDx=0;entryDy=0;exitX=0;exitY=0.5;exitDx=0;exitDy=0;strokeWidth=1;rounded=0;strokeColor=#525252;" parent="1" source="GkxkM57QEwcgZs1372AV-622" target="GkxkM57QEwcgZs1372AV-40" edge="1">
          <mxGeometry width="50" height="50" relative="1" as="geometry">
            <mxPoint x="945" y="355" as="sourcePoint" />
            <mxPoint x="465" y="375" as="targetPoint" />
          </mxGeometry>
        </mxCell>
        <mxCell id="GkxkM57QEwcgZs1372AV-648" value="" style="endArrow=none;html=1;entryX=1;entryY=0.5;entryDx=0;entryDy=0;exitX=0;exitY=0.5;exitDx=0;exitDy=0;strokeWidth=1;rounded=0;strokeColor=#525252;" parent="1" source="GkxkM57QEwcgZs1372AV-612" target="GkxkM57QEwcgZs1372AV-41" edge="1">
          <mxGeometry width="50" height="50" relative="1" as="geometry">
            <mxPoint x="915" y="375" as="sourcePoint" />
            <mxPoint x="465" y="455" as="targetPoint" />
          </mxGeometry>
        </mxCell>
        <mxCell id="GkxkM57QEwcgZs1372AV-649" value="" style="endArrow=none;html=1;entryX=1;entryY=0.5;entryDx=0;entryDy=0;exitX=0;exitY=0.5;exitDx=0;exitDy=0;strokeWidth=1;rounded=0;strokeColor=#525252;" parent="1" source="GkxkM57QEwcgZs1372AV-624" target="GkxkM57QEwcgZs1372AV-40" edge="1">
          <mxGeometry width="50" height="50" relative="1" as="geometry">
            <mxPoint x="905" y="395" as="sourcePoint" />
            <mxPoint x="465" y="375" as="targetPoint" />
          </mxGeometry>
        </mxCell>
        <mxCell id="GkxkM57QEwcgZs1372AV-650" value="" style="endArrow=none;html=1;entryX=1;entryY=0.5;entryDx=0;entryDy=0;exitX=0;exitY=0.5;exitDx=0;exitDy=0;strokeWidth=1;rounded=0;strokeColor=#525252;" parent="1" source="GkxkM57QEwcgZs1372AV-623" target="GkxkM57QEwcgZs1372AV-40" edge="1">
          <mxGeometry width="50" height="50" relative="1" as="geometry">
            <mxPoint x="935" y="355" as="sourcePoint" />
            <mxPoint x="465" y="375" as="targetPoint" />
          </mxGeometry>
        </mxCell>
        <mxCell id="GkxkM57QEwcgZs1372AV-651" value="" style="endArrow=none;html=1;entryX=1;entryY=0.5;entryDx=0;entryDy=0;exitX=0;exitY=0.5;exitDx=0;exitDy=0;strokeWidth=1;rounded=0;strokeColor=#525252;" parent="1" source="GkxkM57QEwcgZs1372AV-610" target="GkxkM57QEwcgZs1372AV-40" edge="1">
          <mxGeometry width="50" height="50" relative="1" as="geometry">
            <mxPoint x="935" y="375" as="sourcePoint" />
            <mxPoint x="465" y="375" as="targetPoint" />
          </mxGeometry>
        </mxCell>
        <mxCell id="GkxkM57QEwcgZs1372AV-652" value="" style="endArrow=none;html=1;entryX=1;entryY=0.5;entryDx=0;entryDy=0;exitX=0;exitY=0.5;exitDx=0;exitDy=0;strokeWidth=1;rounded=0;strokeColor=#525252;" parent="1" source="GkxkM57QEwcgZs1372AV-611" target="GkxkM57QEwcgZs1372AV-40" edge="1">
          <mxGeometry width="50" height="50" relative="1" as="geometry">
            <mxPoint x="925" y="375" as="sourcePoint" />
            <mxPoint x="465" y="375" as="targetPoint" />
          </mxGeometry>
        </mxCell>
        <mxCell id="GkxkM57QEwcgZs1372AV-653" value="" style="endArrow=none;html=1;entryX=1;entryY=0.5;entryDx=0;entryDy=0;exitX=0;exitY=0.5;exitDx=0;exitDy=0;strokeWidth=1;rounded=0;strokeColor=#525252;" parent="1" source="GkxkM57QEwcgZs1372AV-612" target="GkxkM57QEwcgZs1372AV-40" edge="1">
          <mxGeometry width="50" height="50" relative="1" as="geometry">
            <mxPoint x="915" y="385" as="sourcePoint" />
            <mxPoint x="465" y="375" as="targetPoint" />
          </mxGeometry>
        </mxCell>
        <mxCell id="GkxkM57QEwcgZs1372AV-654" value="" style="endArrow=none;html=1;entryX=1;entryY=0.5;entryDx=0;entryDy=0;exitX=0;exitY=0.5;exitDx=0;exitDy=0;strokeWidth=1;rounded=0;strokeColor=#525252;" parent="1" source="GkxkM57QEwcgZs1372AV-622" target="GkxkM57QEwcgZs1372AV-39" edge="1">
          <mxGeometry width="50" height="50" relative="1" as="geometry">
            <mxPoint x="935" y="325" as="sourcePoint" />
            <mxPoint x="465" y="335" as="targetPoint" />
          </mxGeometry>
        </mxCell>
        <mxCell id="GkxkM57QEwcgZs1372AV-655" value="" style="endArrow=none;html=1;entryX=1;entryY=0.5;entryDx=0;entryDy=0;exitX=0;exitY=0.5;exitDx=0;exitDy=0;strokeWidth=1;rounded=0;strokeColor=#525252;" parent="1" source="GkxkM57QEwcgZs1372AV-611" target="GkxkM57QEwcgZs1372AV-39" edge="1">
          <mxGeometry width="50" height="50" relative="1" as="geometry">
            <mxPoint x="945" y="335" as="sourcePoint" />
            <mxPoint x="465" y="335" as="targetPoint" />
          </mxGeometry>
        </mxCell>
        <mxCell id="GkxkM57QEwcgZs1372AV-656" value="" style="endArrow=none;html=1;entryX=1;entryY=0.5;entryDx=0;entryDy=0;exitX=0;exitY=0.5;exitDx=0;exitDy=0;strokeWidth=1;rounded=0;strokeColor=#525252;" parent="1" source="GkxkM57QEwcgZs1372AV-624" target="GkxkM57QEwcgZs1372AV-39" edge="1">
          <mxGeometry width="50" height="50" relative="1" as="geometry">
            <mxPoint x="935" y="325" as="sourcePoint" />
            <mxPoint x="465" y="335" as="targetPoint" />
          </mxGeometry>
        </mxCell>
        <mxCell id="GkxkM57QEwcgZs1372AV-657" value="" style="endArrow=none;html=1;entryX=1;entryY=0.5;entryDx=0;entryDy=0;strokeWidth=1;rounded=0;strokeColor=#525252;exitX=0;exitY=0.5;exitDx=0;exitDy=0;" parent="1" source="GkxkM57QEwcgZs1372AV-623" target="GkxkM57QEwcgZs1372AV-39" edge="1">
          <mxGeometry width="50" height="50" relative="1" as="geometry">
            <mxPoint x="785" y="285" as="sourcePoint" />
            <mxPoint x="465" y="335" as="targetPoint" />
          </mxGeometry>
        </mxCell>
        <mxCell id="GkxkM57QEwcgZs1372AV-658" value="" style="endArrow=none;html=1;entryX=1;entryY=0.5;entryDx=0;entryDy=0;exitX=0;exitY=0.5;exitDx=0;exitDy=0;strokeWidth=1;rounded=0;strokeColor=#525252;" parent="1" source="GkxkM57QEwcgZs1372AV-610" target="GkxkM57QEwcgZs1372AV-39" edge="1">
          <mxGeometry width="50" height="50" relative="1" as="geometry">
            <mxPoint x="945" y="335" as="sourcePoint" />
            <mxPoint x="465" y="335" as="targetPoint" />
          </mxGeometry>
        </mxCell>
        <mxCell id="GkxkM57QEwcgZs1372AV-659" value="" style="endArrow=none;html=1;entryX=1;entryY=0.5;entryDx=0;entryDy=0;exitX=0;exitY=0.5;exitDx=0;exitDy=0;strokeWidth=1;rounded=0;strokeColor=#525252;" parent="1" source="GkxkM57QEwcgZs1372AV-612" target="GkxkM57QEwcgZs1372AV-39" edge="1">
          <mxGeometry width="50" height="50" relative="1" as="geometry">
            <mxPoint x="955" y="345" as="sourcePoint" />
            <mxPoint x="465" y="335" as="targetPoint" />
          </mxGeometry>
        </mxCell>
        <mxCell id="GkxkM57QEwcgZs1372AV-660" value="" style="endArrow=none;html=1;exitX=0;exitY=0.5;exitDx=0;exitDy=0;strokeWidth=1;rounded=0;strokeColor=#525252;entryX=1;entryY=0.5;entryDx=0;entryDy=0;" parent="1" source="GkxkM57QEwcgZs1372AV-624" target="GkxkM57QEwcgZs1372AV-41" edge="1">
          <mxGeometry width="50" height="50" relative="1" as="geometry">
            <mxPoint x="945" y="335" as="sourcePoint" />
            <mxPoint x="460" y="450" as="targetPoint" />
          </mxGeometry>
        </mxCell>
        <mxCell id="GkxkM57QEwcgZs1372AV-661" value="" style="endArrow=none;html=1;entryX=1;entryY=0.5;entryDx=0;entryDy=0;exitX=0;exitY=0.5;exitDx=0;exitDy=0;strokeWidth=1;rounded=0;strokeColor=#525252;" parent="1" source="GkxkM57QEwcgZs1372AV-623" target="GkxkM57QEwcgZs1372AV-41" edge="1">
          <mxGeometry width="50" height="50" relative="1" as="geometry">
            <mxPoint x="817" y="345" as="sourcePoint" />
            <mxPoint x="465" y="455" as="targetPoint" />
          </mxGeometry>
        </mxCell>
        <mxCell id="GkxkM57QEwcgZs1372AV-662" value="" style="endArrow=none;html=1;exitX=0;exitY=0.5;exitDx=0;exitDy=0;strokeWidth=1;rounded=0;strokeColor=#525252;entryX=1;entryY=0.5;entryDx=0;entryDy=0;" parent="1" source="GkxkM57QEwcgZs1372AV-611" target="GkxkM57QEwcgZs1372AV-41" edge="1">
          <mxGeometry width="50" height="50" relative="1" as="geometry">
            <mxPoint x="935" y="417" as="sourcePoint" />
            <mxPoint x="465" y="455" as="targetPoint" />
          </mxGeometry>
        </mxCell>
        <mxCell id="GkxkM57QEwcgZs1372AV-663" value="" style="endArrow=none;html=1;entryX=0;entryY=0.5;entryDx=0;entryDy=0;strokeWidth=1;rounded=0;strokeColor=#525252;exitX=1;exitY=0.5;exitDx=0;exitDy=0;" parent="1" source="GkxkM57QEwcgZs1372AV-42" target="GkxkM57QEwcgZs1372AV-624" edge="1">
          <mxGeometry width="50" height="50" relative="1" as="geometry">
            <mxPoint x="465" y="495" as="sourcePoint" />
            <mxPoint x="905" y="509" as="targetPoint" />
          </mxGeometry>
        </mxCell>
        <mxCell id="GkxkM57QEwcgZs1372AV-664" value="" style="endArrow=none;html=1;entryX=0;entryY=0.5;entryDx=0;entryDy=0;exitX=1;exitY=0.5;exitDx=0;exitDy=0;strokeWidth=1;rounded=0;strokeColor=#525252;" parent="1" source="GkxkM57QEwcgZs1372AV-42" target="GkxkM57QEwcgZs1372AV-610" edge="1">
          <mxGeometry width="50" height="50" relative="1" as="geometry">
            <mxPoint x="465" y="495" as="sourcePoint" />
            <mxPoint x="905" y="521" as="targetPoint" />
          </mxGeometry>
        </mxCell>
        <mxCell id="GkxkM57QEwcgZs1372AV-665" value="" style="endArrow=none;html=1;entryX=0;entryY=0.5;entryDx=0;entryDy=0;exitX=1;exitY=0.5;exitDx=0;exitDy=0;strokeWidth=1;rounded=0;strokeColor=#525252;" parent="1" source="GkxkM57QEwcgZs1372AV-42" target="GkxkM57QEwcgZs1372AV-611" edge="1">
          <mxGeometry width="50" height="50" relative="1" as="geometry">
            <mxPoint x="465" y="495" as="sourcePoint" />
            <mxPoint x="915" y="531" as="targetPoint" />
          </mxGeometry>
        </mxCell>
        <mxCell id="GkxkM57QEwcgZs1372AV-666" value="" style="endArrow=none;html=1;entryX=0;entryY=0.5;entryDx=0;entryDy=0;exitX=1;exitY=0.5;exitDx=0;exitDy=0;strokeWidth=1;rounded=0;strokeColor=#525252;" parent="1" source="GkxkM57QEwcgZs1372AV-42" target="GkxkM57QEwcgZs1372AV-612" edge="1">
          <mxGeometry width="50" height="50" relative="1" as="geometry">
            <mxPoint x="465" y="495" as="sourcePoint" />
            <mxPoint x="925" y="541" as="targetPoint" />
          </mxGeometry>
        </mxCell>
        <mxCell id="GkxkM57QEwcgZs1372AV-667" value="" style="endArrow=none;html=1;entryX=1;entryY=0.5;entryDx=0;entryDy=0;exitX=0;exitY=0.5;exitDx=0;exitDy=0;strokeWidth=1;rounded=0;strokeColor=#525252;" parent="1" source="GkxkM57QEwcgZs1372AV-622" target="GkxkM57QEwcgZs1372AV-42" edge="1">
          <mxGeometry width="50" height="50" relative="1" as="geometry">
            <mxPoint x="905" y="485" as="sourcePoint" />
            <mxPoint x="465" y="495" as="targetPoint" />
          </mxGeometry>
        </mxCell>
        <mxCell id="GkxkM57QEwcgZs1372AV-668" value="" style="endArrow=none;html=1;entryX=1;entryY=0.5;entryDx=0;entryDy=0;exitX=0;exitY=0.5;exitDx=0;exitDy=0;strokeWidth=1;rounded=0;strokeColor=#525252;" parent="1" source="GkxkM57QEwcgZs1372AV-623" target="GkxkM57QEwcgZs1372AV-42" edge="1">
          <mxGeometry width="50" height="50" relative="1" as="geometry">
            <mxPoint x="925" y="505" as="sourcePoint" />
            <mxPoint x="465" y="495" as="targetPoint" />
          </mxGeometry>
        </mxCell>
        <mxCell id="GkxkM57QEwcgZs1372AV-669" value="" style="endArrow=none;html=1;entryX=1;entryY=0.5;entryDx=0;entryDy=0;exitX=0;exitY=0.5;exitDx=0;exitDy=0;strokeWidth=1;rounded=0;strokeColor=#525252;" parent="1" source="GkxkM57QEwcgZs1372AV-624" target="GkxkM57QEwcgZs1372AV-43" edge="1">
          <mxGeometry width="50" height="50" relative="1" as="geometry">
            <mxPoint x="895" y="545" as="sourcePoint" />
            <mxPoint x="465" y="535" as="targetPoint" />
          </mxGeometry>
        </mxCell>
        <mxCell id="GkxkM57QEwcgZs1372AV-670" value="" style="endArrow=none;html=1;entryX=1;entryY=0.5;entryDx=0;entryDy=0;exitX=0;exitY=0.5;exitDx=0;exitDy=0;strokeWidth=1;rounded=0;strokeColor=#525252;" parent="1" source="GkxkM57QEwcgZs1372AV-622" target="GkxkM57QEwcgZs1372AV-43" edge="1">
          <mxGeometry width="50" height="50" relative="1" as="geometry">
            <mxPoint x="895" y="525" as="sourcePoint" />
            <mxPoint x="465" y="535" as="targetPoint" />
          </mxGeometry>
        </mxCell>
        <mxCell id="GkxkM57QEwcgZs1372AV-671" value="" style="endArrow=none;html=1;entryX=1;entryY=0.5;entryDx=0;entryDy=0;exitX=0;exitY=0.5;exitDx=0;exitDy=0;strokeWidth=1;rounded=0;strokeColor=#525252;" parent="1" source="GkxkM57QEwcgZs1372AV-610" target="GkxkM57QEwcgZs1372AV-43" edge="1">
          <mxGeometry width="50" height="50" relative="1" as="geometry">
            <mxPoint x="895" y="555" as="sourcePoint" />
            <mxPoint x="465" y="535" as="targetPoint" />
          </mxGeometry>
        </mxCell>
        <mxCell id="GkxkM57QEwcgZs1372AV-672" value="" style="endArrow=none;html=1;entryX=1;entryY=0.5;entryDx=0;entryDy=0;exitX=0;exitY=0.5;exitDx=0;exitDy=0;strokeWidth=1;rounded=0;strokeColor=#525252;" parent="1" source="GkxkM57QEwcgZs1372AV-611" target="GkxkM57QEwcgZs1372AV-43" edge="1">
          <mxGeometry width="50" height="50" relative="1" as="geometry">
            <mxPoint x="905" y="575" as="sourcePoint" />
            <mxPoint x="465" y="535" as="targetPoint" />
          </mxGeometry>
        </mxCell>
        <mxCell id="GkxkM57QEwcgZs1372AV-673" value="" style="endArrow=none;html=1;entryX=1;entryY=0.5;entryDx=0;entryDy=0;strokeWidth=1;rounded=0;strokeColor=#525252;exitX=0;exitY=0.5;exitDx=0;exitDy=0;" parent="1" source="GkxkM57QEwcgZs1372AV-623" target="GkxkM57QEwcgZs1372AV-43" edge="1">
          <mxGeometry width="50" height="50" relative="1" as="geometry">
            <mxPoint x="885" y="535" as="sourcePoint" />
            <mxPoint x="465" y="535" as="targetPoint" />
          </mxGeometry>
        </mxCell>
        <mxCell id="GkxkM57QEwcgZs1372AV-674" value="" style="endArrow=none;html=1;entryX=1;entryY=0.5;entryDx=0;entryDy=0;exitX=0;exitY=0.5;exitDx=0;exitDy=0;strokeWidth=1;rounded=0;strokeColor=#525252;" parent="1" source="GkxkM57QEwcgZs1372AV-612" target="GkxkM57QEwcgZs1372AV-43" edge="1">
          <mxGeometry width="50" height="50" relative="1" as="geometry">
            <mxPoint x="895" y="585" as="sourcePoint" />
            <mxPoint x="465" y="535" as="targetPoint" />
          </mxGeometry>
        </mxCell>
        <mxCell id="GkxkM57QEwcgZs1372AV-675" value="" style="endArrow=none;html=1;entryX=1;entryY=0.5;entryDx=0;entryDy=0;exitX=0;exitY=0.5;exitDx=0;exitDy=0;strokeWidth=1;rounded=0;strokeColor=#525252;" parent="1" source="GkxkM57QEwcgZs1372AV-624" target="GkxkM57QEwcgZs1372AV-44" edge="1">
          <mxGeometry width="50" height="50" relative="1" as="geometry">
            <mxPoint x="750" y="715" as="sourcePoint" />
            <mxPoint x="465" y="575" as="targetPoint" />
          </mxGeometry>
        </mxCell>
        <mxCell id="GkxkM57QEwcgZs1372AV-676" value="" style="endArrow=none;html=1;entryX=1;entryY=0.5;entryDx=0;entryDy=0;exitX=0;exitY=0.5;exitDx=0;exitDy=0;strokeWidth=1;rounded=0;strokeColor=#525252;" parent="1" source="GkxkM57QEwcgZs1372AV-611" target="GkxkM57QEwcgZs1372AV-44" edge="1">
          <mxGeometry width="50" height="50" relative="1" as="geometry">
            <mxPoint x="750" y="695" as="sourcePoint" />
            <mxPoint x="465" y="575" as="targetPoint" />
          </mxGeometry>
        </mxCell>
        <mxCell id="GkxkM57QEwcgZs1372AV-677" value="" style="endArrow=none;html=1;entryX=1;entryY=0.5;entryDx=0;entryDy=0;exitX=0;exitY=0.5;exitDx=0;exitDy=0;strokeWidth=1;rounded=0;strokeColor=#525252;" parent="1" source="GkxkM57QEwcgZs1372AV-623" target="GkxkM57QEwcgZs1372AV-44" edge="1">
          <mxGeometry width="50" height="50" relative="1" as="geometry">
            <mxPoint x="750" y="725" as="sourcePoint" />
            <mxPoint x="465" y="575" as="targetPoint" />
          </mxGeometry>
        </mxCell>
        <mxCell id="GkxkM57QEwcgZs1372AV-678" value="" style="endArrow=none;html=1;exitX=0;exitY=0.5;exitDx=0;exitDy=0;strokeWidth=1;rounded=0;strokeColor=#525252;entryX=1;entryY=0.5;entryDx=0;entryDy=0;" parent="1" source="GkxkM57QEwcgZs1372AV-622" target="GkxkM57QEwcgZs1372AV-44" edge="1">
          <mxGeometry width="50" height="50" relative="1" as="geometry">
            <mxPoint x="760" y="745" as="sourcePoint" />
            <mxPoint x="460" y="570" as="targetPoint" />
          </mxGeometry>
        </mxCell>
        <mxCell id="GkxkM57QEwcgZs1372AV-679" value="" style="endArrow=none;html=1;entryX=1;entryY=0.5;entryDx=0;entryDy=0;exitX=0;exitY=0.5;exitDx=0;exitDy=0;strokeWidth=1;rounded=0;strokeColor=#525252;" parent="1" source="GkxkM57QEwcgZs1372AV-610" target="GkxkM57QEwcgZs1372AV-44" edge="1">
          <mxGeometry width="50" height="50" relative="1" as="geometry">
            <mxPoint x="760" y="715" as="sourcePoint" />
            <mxPoint x="465" y="575" as="targetPoint" />
          </mxGeometry>
        </mxCell>
        <mxCell id="GkxkM57QEwcgZs1372AV-680" value="" style="endArrow=none;html=1;entryX=1;entryY=0.5;entryDx=0;entryDy=0;exitX=0;exitY=0.5;exitDx=0;exitDy=0;strokeWidth=1;rounded=0;strokeColor=#525252;" parent="1" source="GkxkM57QEwcgZs1372AV-612" target="GkxkM57QEwcgZs1372AV-44" edge="1">
          <mxGeometry width="50" height="50" relative="1" as="geometry">
            <mxPoint x="750" y="755" as="sourcePoint" />
            <mxPoint x="465" y="575" as="targetPoint" />
          </mxGeometry>
        </mxCell>
        <mxCell id="GkxkM57QEwcgZs1372AV-681" value="" style="endArrow=none;html=1;entryX=1;entryY=0.5;entryDx=0;entryDy=0;exitX=0;exitY=0.5;exitDx=0;exitDy=0;strokeWidth=1;rounded=0;strokeColor=#525252;" parent="1" source="GkxkM57QEwcgZs1372AV-624" target="GkxkM57QEwcgZs1372AV-45" edge="1">
          <mxGeometry width="50" height="50" relative="1" as="geometry">
            <mxPoint x="885" y="685" as="sourcePoint" />
            <mxPoint x="465" y="615" as="targetPoint" />
          </mxGeometry>
        </mxCell>
        <mxCell id="GkxkM57QEwcgZs1372AV-682" value="" style="endArrow=none;html=1;entryX=1;entryY=0.5;entryDx=0;entryDy=0;exitX=0;exitY=0.5;exitDx=0;exitDy=0;strokeWidth=1;rounded=0;strokeColor=#525252;" parent="1" source="GkxkM57QEwcgZs1372AV-622" target="GkxkM57QEwcgZs1372AV-45" edge="1">
          <mxGeometry width="50" height="50" relative="1" as="geometry">
            <mxPoint x="885" y="665" as="sourcePoint" />
            <mxPoint x="465" y="615" as="targetPoint" />
          </mxGeometry>
        </mxCell>
        <mxCell id="GkxkM57QEwcgZs1372AV-683" value="" style="endArrow=none;html=1;exitX=0;exitY=0.5;exitDx=0;exitDy=0;strokeWidth=1;rounded=0;strokeColor=#525252;entryX=1;entryY=0.5;entryDx=0;entryDy=0;" parent="1" source="GkxkM57QEwcgZs1372AV-610" target="GkxkM57QEwcgZs1372AV-45" edge="1">
          <mxGeometry width="50" height="50" relative="1" as="geometry">
            <mxPoint x="885" y="695" as="sourcePoint" />
            <mxPoint x="470" y="620" as="targetPoint" />
          </mxGeometry>
        </mxCell>
        <mxCell id="GkxkM57QEwcgZs1372AV-684" value="" style="endArrow=none;html=1;entryX=1;entryY=0.5;entryDx=0;entryDy=0;exitX=0;exitY=0.5;exitDx=0;exitDy=0;strokeWidth=1;rounded=0;strokeColor=#525252;" parent="1" source="GkxkM57QEwcgZs1372AV-611" target="GkxkM57QEwcgZs1372AV-45" edge="1">
          <mxGeometry width="50" height="50" relative="1" as="geometry">
            <mxPoint x="895" y="715" as="sourcePoint" />
            <mxPoint x="465" y="615" as="targetPoint" />
          </mxGeometry>
        </mxCell>
        <mxCell id="GkxkM57QEwcgZs1372AV-685" value="" style="endArrow=none;html=1;entryX=1;entryY=0.5;entryDx=0;entryDy=0;exitX=0;exitY=0.5;exitDx=0;exitDy=0;strokeWidth=1;rounded=0;strokeColor=#525252;" parent="1" source="GkxkM57QEwcgZs1372AV-623" target="GkxkM57QEwcgZs1372AV-45" edge="1">
          <mxGeometry width="50" height="50" relative="1" as="geometry">
            <mxPoint x="895" y="685" as="sourcePoint" />
            <mxPoint x="465" y="615" as="targetPoint" />
          </mxGeometry>
        </mxCell>
        <mxCell id="GkxkM57QEwcgZs1372AV-686" value="" style="endArrow=none;html=1;entryX=1;entryY=0.5;entryDx=0;entryDy=0;exitX=0;exitY=0.5;exitDx=0;exitDy=0;strokeWidth=1;rounded=0;strokeColor=#525252;" parent="1" source="GkxkM57QEwcgZs1372AV-612" target="GkxkM57QEwcgZs1372AV-45" edge="1">
          <mxGeometry width="50" height="50" relative="1" as="geometry">
            <mxPoint x="885" y="725" as="sourcePoint" />
            <mxPoint x="465" y="615" as="targetPoint" />
          </mxGeometry>
        </mxCell>
        <mxCell id="GkxkM57QEwcgZs1372AV-687" value="" style="endArrow=none;html=1;entryX=1;entryY=0.5;entryDx=0;entryDy=0;exitX=0;exitY=0.5;exitDx=0;exitDy=0;strokeWidth=1;rounded=0;strokeColor=#525252;" parent="1" source="GkxkM57QEwcgZs1372AV-624" target="GkxkM57QEwcgZs1372AV-46" edge="1">
          <mxGeometry width="50" height="50" relative="1" as="geometry">
            <mxPoint x="935" y="585" as="sourcePoint" />
            <mxPoint x="465" y="655" as="targetPoint" />
          </mxGeometry>
        </mxCell>
        <mxCell id="GkxkM57QEwcgZs1372AV-688" value="" style="endArrow=none;html=1;entryX=1;entryY=0.5;entryDx=0;entryDy=0;exitX=0;exitY=0.5;exitDx=0;exitDy=0;strokeWidth=1;rounded=0;strokeColor=#525252;" parent="1" source="GkxkM57QEwcgZs1372AV-622" target="GkxkM57QEwcgZs1372AV-46" edge="1">
          <mxGeometry width="50" height="50" relative="1" as="geometry">
            <mxPoint x="935" y="565" as="sourcePoint" />
            <mxPoint x="465" y="655" as="targetPoint" />
          </mxGeometry>
        </mxCell>
        <mxCell id="GkxkM57QEwcgZs1372AV-689" value="" style="endArrow=none;html=1;entryX=1;entryY=0.5;entryDx=0;entryDy=0;exitX=0;exitY=0.5;exitDx=0;exitDy=0;strokeWidth=1;rounded=0;strokeColor=#525252;" parent="1" source="GkxkM57QEwcgZs1372AV-610" target="GkxkM57QEwcgZs1372AV-46" edge="1">
          <mxGeometry width="50" height="50" relative="1" as="geometry">
            <mxPoint x="935" y="595" as="sourcePoint" />
            <mxPoint x="465" y="655" as="targetPoint" />
          </mxGeometry>
        </mxCell>
        <mxCell id="GkxkM57QEwcgZs1372AV-690" value="" style="endArrow=none;html=1;entryX=1;entryY=0.5;entryDx=0;entryDy=0;exitX=0;exitY=0.5;exitDx=0;exitDy=0;strokeWidth=1;rounded=0;strokeColor=#525252;" parent="1" source="GkxkM57QEwcgZs1372AV-611" target="GkxkM57QEwcgZs1372AV-46" edge="1">
          <mxGeometry width="50" height="50" relative="1" as="geometry">
            <mxPoint x="945" y="615" as="sourcePoint" />
            <mxPoint x="465" y="655" as="targetPoint" />
          </mxGeometry>
        </mxCell>
        <mxCell id="GkxkM57QEwcgZs1372AV-691" value="" style="endArrow=none;html=1;entryX=1;entryY=0.5;entryDx=0;entryDy=0;strokeWidth=1;rounded=0;strokeColor=#525252;exitX=0;exitY=0.5;exitDx=0;exitDy=0;" parent="1" source="GkxkM57QEwcgZs1372AV-623" target="GkxkM57QEwcgZs1372AV-46" edge="1">
          <mxGeometry width="50" height="50" relative="1" as="geometry">
            <mxPoint x="875" y="575" as="sourcePoint" />
            <mxPoint x="465" y="655" as="targetPoint" />
          </mxGeometry>
        </mxCell>
        <mxCell id="GkxkM57QEwcgZs1372AV-692" value="" style="endArrow=none;html=1;entryX=1;entryY=0.5;entryDx=0;entryDy=0;exitX=0;exitY=0.5;exitDx=0;exitDy=0;strokeWidth=1;rounded=0;strokeColor=#525252;" parent="1" source="GkxkM57QEwcgZs1372AV-612" target="GkxkM57QEwcgZs1372AV-46" edge="1">
          <mxGeometry width="50" height="50" relative="1" as="geometry">
            <mxPoint x="755" y="715" as="sourcePoint" />
            <mxPoint x="465" y="655" as="targetPoint" />
          </mxGeometry>
        </mxCell>
        <mxCell id="GkxkM57QEwcgZs1372AV-695" value="" style="ellipse;whiteSpace=wrap;html=1;aspect=fixed;rounded=0;" parent="1" vertex="1">
          <mxGeometry x="640" y="440" width="20" height="20" as="geometry" />
        </mxCell>
        <mxCell id="GkxkM57QEwcgZs1372AV-696" value="" style="ellipse;whiteSpace=wrap;html=1;aspect=fixed;rounded=0;" parent="1" vertex="1">
          <mxGeometry x="640" y="480" width="20" height="20" as="geometry" />
        </mxCell>
        <mxCell id="GkxkM57QEwcgZs1372AV-697" value="" style="ellipse;whiteSpace=wrap;html=1;aspect=fixed;rounded=0;" parent="1" vertex="1">
          <mxGeometry x="640" y="520" width="20" height="20" as="geometry" />
        </mxCell>
        <mxCell id="GkxkM57QEwcgZs1372AV-698" value="" style="ellipse;whiteSpace=wrap;html=1;aspect=fixed;rounded=0;" parent="1" vertex="1">
          <mxGeometry x="640" y="560" width="20" height="20" as="geometry" />
        </mxCell>
        <mxCell id="GkxkM57QEwcgZs1372AV-699" value="" style="ellipse;whiteSpace=wrap;html=1;aspect=fixed;rounded=0;" parent="1" vertex="1">
          <mxGeometry x="640" y="600" width="20" height="20" as="geometry" />
        </mxCell>
        <mxCell id="GkxkM57QEwcgZs1372AV-700" value="" style="ellipse;whiteSpace=wrap;html=1;aspect=fixed;rounded=0;" parent="1" vertex="1">
          <mxGeometry x="640" y="640" width="20" height="20" as="geometry" />
        </mxCell>
        <mxCell id="GkxkM57QEwcgZs1372AV-709" value="" style="ellipse;whiteSpace=wrap;html=1;aspect=fixed;rounded=0;" parent="1" vertex="1">
          <mxGeometry x="640" y="440" width="20" height="20" as="geometry" />
        </mxCell>
        <mxCell id="GkxkM57QEwcgZs1372AV-710" value="" style="ellipse;whiteSpace=wrap;html=1;aspect=fixed;rounded=0;" parent="1" vertex="1">
          <mxGeometry x="640" y="480" width="20" height="20" as="geometry" />
        </mxCell>
        <mxCell id="GkxkM57QEwcgZs1372AV-711" value="" style="ellipse;whiteSpace=wrap;html=1;aspect=fixed;rounded=0;" parent="1" vertex="1">
          <mxGeometry x="640" y="520" width="20" height="20" as="geometry" />
        </mxCell>
        <mxCell id="GkxkM57QEwcgZs1372AV-714" value="" style="endArrow=none;html=1;strokeColor=#525252;strokeWidth=1;exitX=0;exitY=0.5;exitDx=0;exitDy=0;" parent="1" source="GkxkM57QEwcgZs1372AV-709" edge="1">
          <mxGeometry width="50" height="50" relative="1" as="geometry">
            <mxPoint x="715" y="755" as="sourcePoint" />
            <mxPoint x="460" y="210" as="targetPoint" />
          </mxGeometry>
        </mxCell>
        <mxCell id="GkxkM57QEwcgZs1372AV-715" value="" style="endArrow=none;html=1;strokeColor=#525252;strokeWidth=1;entryX=0;entryY=0.5;entryDx=0;entryDy=0;exitX=1;exitY=0.5;exitDx=0;exitDy=0;" parent="1" source="GkxkM57QEwcgZs1372AV-36" target="GkxkM57QEwcgZs1372AV-710" edge="1">
          <mxGeometry width="50" height="50" relative="1" as="geometry">
            <mxPoint x="515" y="695" as="sourcePoint" />
            <mxPoint x="575" y="805" as="targetPoint" />
          </mxGeometry>
        </mxCell>
        <mxCell id="GkxkM57QEwcgZs1372AV-716" value="" style="endArrow=none;html=1;strokeColor=#525252;strokeWidth=1;entryX=0;entryY=0.5;entryDx=0;entryDy=0;exitX=1;exitY=0.5;exitDx=0;exitDy=0;" parent="1" source="GkxkM57QEwcgZs1372AV-36" target="GkxkM57QEwcgZs1372AV-711" edge="1">
          <mxGeometry width="50" height="50" relative="1" as="geometry">
            <mxPoint x="515" y="695" as="sourcePoint" />
            <mxPoint x="595" y="925" as="targetPoint" />
          </mxGeometry>
        </mxCell>
        <mxCell id="GkxkM57QEwcgZs1372AV-717" value="" style="endArrow=none;html=1;strokeColor=#525252;strokeWidth=1;entryX=0;entryY=0.5;entryDx=0;entryDy=0;exitX=1;exitY=0.5;exitDx=0;exitDy=0;" parent="1" source="GkxkM57QEwcgZs1372AV-36" target="GkxkM57QEwcgZs1372AV-698" edge="1">
          <mxGeometry width="50" height="50" relative="1" as="geometry">
            <mxPoint x="515" y="695" as="sourcePoint" />
            <mxPoint x="605" y="915" as="targetPoint" />
          </mxGeometry>
        </mxCell>
        <mxCell id="GkxkM57QEwcgZs1372AV-718" value="" style="endArrow=none;html=1;strokeColor=#525252;strokeWidth=1;entryX=0;entryY=0.5;entryDx=0;entryDy=0;exitX=1;exitY=0.5;exitDx=0;exitDy=0;" parent="1" source="GkxkM57QEwcgZs1372AV-36" target="GkxkM57QEwcgZs1372AV-699" edge="1">
          <mxGeometry width="50" height="50" relative="1" as="geometry">
            <mxPoint x="515" y="695" as="sourcePoint" />
            <mxPoint x="615" y="945" as="targetPoint" />
          </mxGeometry>
        </mxCell>
        <mxCell id="GkxkM57QEwcgZs1372AV-719" value="" style="endArrow=none;html=1;strokeColor=#525252;strokeWidth=1;entryX=0;entryY=0.5;entryDx=0;entryDy=0;exitX=1;exitY=0.5;exitDx=0;exitDy=0;" parent="1" source="GkxkM57QEwcgZs1372AV-36" target="GkxkM57QEwcgZs1372AV-700" edge="1">
          <mxGeometry width="50" height="50" relative="1" as="geometry">
            <mxPoint x="515" y="695" as="sourcePoint" />
            <mxPoint x="615" y="955" as="targetPoint" />
          </mxGeometry>
        </mxCell>
        <mxCell id="GkxkM57QEwcgZs1372AV-720" value="" style="endArrow=none;html=1;entryX=1;entryY=0.5;entryDx=0;entryDy=0;exitX=0;exitY=0.5;exitDx=0;exitDy=0;strokeWidth=1;rounded=0;strokeColor=#525252;" parent="1" source="GkxkM57QEwcgZs1372AV-709" target="GkxkM57QEwcgZs1372AV-38" edge="1">
          <mxGeometry width="50" height="50" relative="1" as="geometry">
            <mxPoint x="935" y="815" as="sourcePoint" />
            <mxPoint x="515" y="775" as="targetPoint" />
          </mxGeometry>
        </mxCell>
        <mxCell id="GkxkM57QEwcgZs1372AV-721" value="" style="endArrow=none;html=1;entryX=1;entryY=0.5;entryDx=0;entryDy=0;exitX=0;exitY=0.5;exitDx=0;exitDy=0;strokeWidth=1;rounded=0;strokeColor=#525252;" parent="1" source="GkxkM57QEwcgZs1372AV-710" target="GkxkM57QEwcgZs1372AV-38" edge="1">
          <mxGeometry width="50" height="50" relative="1" as="geometry">
            <mxPoint x="925" y="807" as="sourcePoint" />
            <mxPoint x="515" y="775" as="targetPoint" />
          </mxGeometry>
        </mxCell>
        <mxCell id="GkxkM57QEwcgZs1372AV-722" value="" style="endArrow=none;html=1;entryX=1;entryY=0.5;entryDx=0;entryDy=0;exitX=0;exitY=0.5;exitDx=0;exitDy=0;strokeWidth=1;rounded=0;strokeColor=#525252;" parent="1" source="GkxkM57QEwcgZs1372AV-711" target="GkxkM57QEwcgZs1372AV-38" edge="1">
          <mxGeometry width="50" height="50" relative="1" as="geometry">
            <mxPoint x="935" y="817" as="sourcePoint" />
            <mxPoint x="515" y="775" as="targetPoint" />
          </mxGeometry>
        </mxCell>
        <mxCell id="GkxkM57QEwcgZs1372AV-723" value="" style="endArrow=none;html=1;entryX=1;entryY=0.5;entryDx=0;entryDy=0;strokeWidth=1;rounded=0;strokeColor=#525252;exitX=0;exitY=0.5;exitDx=0;exitDy=0;" parent="1" source="GkxkM57QEwcgZs1372AV-698" target="GkxkM57QEwcgZs1372AV-38" edge="1">
          <mxGeometry width="50" height="50" relative="1" as="geometry">
            <mxPoint x="715" y="915" as="sourcePoint" />
            <mxPoint x="515" y="775" as="targetPoint" />
          </mxGeometry>
        </mxCell>
        <mxCell id="GkxkM57QEwcgZs1372AV-724" value="" style="endArrow=none;html=1;entryX=1;entryY=0.5;entryDx=0;entryDy=0;exitX=0;exitY=0.5;exitDx=0;exitDy=0;strokeWidth=1;rounded=0;strokeColor=#525252;" parent="1" source="GkxkM57QEwcgZs1372AV-699" target="GkxkM57QEwcgZs1372AV-38" edge="1">
          <mxGeometry width="50" height="50" relative="1" as="geometry">
            <mxPoint x="955" y="837" as="sourcePoint" />
            <mxPoint x="515" y="775" as="targetPoint" />
          </mxGeometry>
        </mxCell>
        <mxCell id="GkxkM57QEwcgZs1372AV-725" value="" style="endArrow=none;html=1;entryX=1;entryY=0.5;entryDx=0;entryDy=0;exitX=0;exitY=0.5;exitDx=0;exitDy=0;strokeWidth=1;rounded=0;strokeColor=#525252;" parent="1" source="GkxkM57QEwcgZs1372AV-700" target="GkxkM57QEwcgZs1372AV-38" edge="1">
          <mxGeometry width="50" height="50" relative="1" as="geometry">
            <mxPoint x="965" y="847" as="sourcePoint" />
            <mxPoint x="515" y="775" as="targetPoint" />
          </mxGeometry>
        </mxCell>
        <mxCell id="GkxkM57QEwcgZs1372AV-726" value="" style="endArrow=none;html=1;entryX=1;entryY=0.5;entryDx=0;entryDy=0;exitX=0;exitY=0.5;exitDx=0;exitDy=0;strokeWidth=1;rounded=0;strokeColor=#525252;" parent="1" source="GkxkM57QEwcgZs1372AV-698" target="GkxkM57QEwcgZs1372AV-37" edge="1">
          <mxGeometry width="50" height="50" relative="1" as="geometry">
            <mxPoint x="975" y="857" as="sourcePoint" />
            <mxPoint x="515" y="735" as="targetPoint" />
          </mxGeometry>
        </mxCell>
        <mxCell id="GkxkM57QEwcgZs1372AV-727" value="" style="endArrow=none;html=1;entryX=1;entryY=0.5;entryDx=0;entryDy=0;exitX=0;exitY=0.5;exitDx=0;exitDy=0;strokeWidth=1;rounded=0;strokeColor=#525252;" parent="1" source="GkxkM57QEwcgZs1372AV-699" target="GkxkM57QEwcgZs1372AV-37" edge="1">
          <mxGeometry width="50" height="50" relative="1" as="geometry">
            <mxPoint x="985" y="867" as="sourcePoint" />
            <mxPoint x="515" y="735" as="targetPoint" />
          </mxGeometry>
        </mxCell>
        <mxCell id="GkxkM57QEwcgZs1372AV-728" value="" style="endArrow=none;html=1;entryX=1;entryY=0.5;entryDx=0;entryDy=0;exitX=0;exitY=0.5;exitDx=0;exitDy=0;strokeWidth=1;rounded=0;strokeColor=#525252;" parent="1" source="GkxkM57QEwcgZs1372AV-700" target="GkxkM57QEwcgZs1372AV-37" edge="1">
          <mxGeometry width="50" height="50" relative="1" as="geometry">
            <mxPoint x="995" y="877" as="sourcePoint" />
            <mxPoint x="515" y="735" as="targetPoint" />
          </mxGeometry>
        </mxCell>
        <mxCell id="GkxkM57QEwcgZs1372AV-729" value="" style="endArrow=none;html=1;entryX=1;entryY=0.5;entryDx=0;entryDy=0;exitX=0;exitY=0.5;exitDx=0;exitDy=0;strokeWidth=1;rounded=0;strokeColor=#525252;" parent="1" source="GkxkM57QEwcgZs1372AV-711" target="GkxkM57QEwcgZs1372AV-37" edge="1">
          <mxGeometry width="50" height="50" relative="1" as="geometry">
            <mxPoint x="1005" y="887" as="sourcePoint" />
            <mxPoint x="515" y="735" as="targetPoint" />
          </mxGeometry>
        </mxCell>
        <mxCell id="GkxkM57QEwcgZs1372AV-730" value="" style="endArrow=none;html=1;entryX=1;entryY=0.5;entryDx=0;entryDy=0;exitX=0;exitY=0.5;exitDx=0;exitDy=0;strokeWidth=1;rounded=0;strokeColor=#525252;" parent="1" source="GkxkM57QEwcgZs1372AV-710" target="GkxkM57QEwcgZs1372AV-37" edge="1">
          <mxGeometry width="50" height="50" relative="1" as="geometry">
            <mxPoint x="1015" y="897" as="sourcePoint" />
            <mxPoint x="515" y="735" as="targetPoint" />
          </mxGeometry>
        </mxCell>
        <mxCell id="GkxkM57QEwcgZs1372AV-731" value="" style="endArrow=none;html=1;entryX=1;entryY=0.5;entryDx=0;entryDy=0;exitX=0;exitY=0.5;exitDx=0;exitDy=0;strokeWidth=1;rounded=0;strokeColor=#525252;" parent="1" source="GkxkM57QEwcgZs1372AV-709" target="GkxkM57QEwcgZs1372AV-37" edge="1">
          <mxGeometry width="50" height="50" relative="1" as="geometry">
            <mxPoint x="915" y="925" as="sourcePoint" />
            <mxPoint x="515" y="735" as="targetPoint" />
          </mxGeometry>
        </mxCell>
        <mxCell id="GkxkM57QEwcgZs1372AV-732" value="" style="endArrow=none;html=1;entryX=1;entryY=0.5;entryDx=0;entryDy=0;exitX=0;exitY=0.5;exitDx=0;exitDy=0;strokeWidth=1;rounded=0;strokeColor=#525252;" parent="1" source="GkxkM57QEwcgZs1372AV-709" target="GkxkM57QEwcgZs1372AV-41" edge="1">
          <mxGeometry width="50" height="50" relative="1" as="geometry">
            <mxPoint x="965" y="795" as="sourcePoint" />
            <mxPoint x="515" y="935" as="targetPoint" />
          </mxGeometry>
        </mxCell>
        <mxCell id="GkxkM57QEwcgZs1372AV-733" value="" style="endArrow=none;html=1;entryX=1;entryY=0.5;entryDx=0;entryDy=0;exitX=0;exitY=0.5;exitDx=0;exitDy=0;strokeWidth=1;rounded=0;strokeColor=#525252;" parent="1" source="GkxkM57QEwcgZs1372AV-698" target="GkxkM57QEwcgZs1372AV-41" edge="1">
          <mxGeometry width="50" height="50" relative="1" as="geometry">
            <mxPoint x="965" y="845" as="sourcePoint" />
            <mxPoint x="515" y="935" as="targetPoint" />
          </mxGeometry>
        </mxCell>
        <mxCell id="GkxkM57QEwcgZs1372AV-734" value="" style="endArrow=none;html=1;entryX=1;entryY=0.5;entryDx=0;entryDy=0;exitX=0;exitY=0.5;exitDx=0;exitDy=0;strokeWidth=1;rounded=0;strokeColor=#525252;" parent="1" source="GkxkM57QEwcgZs1372AV-709" target="GkxkM57QEwcgZs1372AV-40" edge="1">
          <mxGeometry width="50" height="50" relative="1" as="geometry">
            <mxPoint x="995" y="835" as="sourcePoint" />
            <mxPoint x="515" y="855" as="targetPoint" />
          </mxGeometry>
        </mxCell>
        <mxCell id="GkxkM57QEwcgZs1372AV-735" value="" style="endArrow=none;html=1;entryX=1;entryY=0.5;entryDx=0;entryDy=0;exitX=0;exitY=0.5;exitDx=0;exitDy=0;strokeWidth=1;rounded=0;strokeColor=#525252;" parent="1" source="GkxkM57QEwcgZs1372AV-700" target="GkxkM57QEwcgZs1372AV-41" edge="1">
          <mxGeometry width="50" height="50" relative="1" as="geometry">
            <mxPoint x="965" y="855" as="sourcePoint" />
            <mxPoint x="515" y="935" as="targetPoint" />
          </mxGeometry>
        </mxCell>
        <mxCell id="GkxkM57QEwcgZs1372AV-736" value="" style="endArrow=none;html=1;entryX=1;entryY=0.5;entryDx=0;entryDy=0;exitX=0;exitY=0.5;exitDx=0;exitDy=0;strokeWidth=1;rounded=0;strokeColor=#525252;" parent="1" source="GkxkM57QEwcgZs1372AV-711" target="GkxkM57QEwcgZs1372AV-40" edge="1">
          <mxGeometry width="50" height="50" relative="1" as="geometry">
            <mxPoint x="955" y="875" as="sourcePoint" />
            <mxPoint x="515" y="855" as="targetPoint" />
          </mxGeometry>
        </mxCell>
        <mxCell id="GkxkM57QEwcgZs1372AV-737" value="" style="endArrow=none;html=1;entryX=1;entryY=0.5;entryDx=0;entryDy=0;exitX=0;exitY=0.5;exitDx=0;exitDy=0;strokeWidth=1;rounded=0;strokeColor=#525252;" parent="1" source="GkxkM57QEwcgZs1372AV-710" target="GkxkM57QEwcgZs1372AV-40" edge="1">
          <mxGeometry width="50" height="50" relative="1" as="geometry">
            <mxPoint x="985" y="835" as="sourcePoint" />
            <mxPoint x="515" y="855" as="targetPoint" />
          </mxGeometry>
        </mxCell>
        <mxCell id="GkxkM57QEwcgZs1372AV-738" value="" style="endArrow=none;html=1;entryX=1;entryY=0.5;entryDx=0;entryDy=0;exitX=0;exitY=0.5;exitDx=0;exitDy=0;strokeWidth=1;rounded=0;strokeColor=#525252;" parent="1" source="GkxkM57QEwcgZs1372AV-698" target="GkxkM57QEwcgZs1372AV-40" edge="1">
          <mxGeometry width="50" height="50" relative="1" as="geometry">
            <mxPoint x="985" y="855" as="sourcePoint" />
            <mxPoint x="515" y="855" as="targetPoint" />
          </mxGeometry>
        </mxCell>
        <mxCell id="GkxkM57QEwcgZs1372AV-739" value="" style="endArrow=none;html=1;entryX=1;entryY=0.5;entryDx=0;entryDy=0;exitX=0;exitY=0.5;exitDx=0;exitDy=0;strokeWidth=1;rounded=0;strokeColor=#525252;" parent="1" source="GkxkM57QEwcgZs1372AV-699" target="GkxkM57QEwcgZs1372AV-40" edge="1">
          <mxGeometry width="50" height="50" relative="1" as="geometry">
            <mxPoint x="975" y="855" as="sourcePoint" />
            <mxPoint x="515" y="855" as="targetPoint" />
          </mxGeometry>
        </mxCell>
        <mxCell id="GkxkM57QEwcgZs1372AV-740" value="" style="endArrow=none;html=1;entryX=1;entryY=0.5;entryDx=0;entryDy=0;exitX=0;exitY=0.5;exitDx=0;exitDy=0;strokeWidth=1;rounded=0;strokeColor=#525252;" parent="1" source="GkxkM57QEwcgZs1372AV-700" target="GkxkM57QEwcgZs1372AV-40" edge="1">
          <mxGeometry width="50" height="50" relative="1" as="geometry">
            <mxPoint x="965" y="865" as="sourcePoint" />
            <mxPoint x="515" y="855" as="targetPoint" />
          </mxGeometry>
        </mxCell>
        <mxCell id="GkxkM57QEwcgZs1372AV-741" value="" style="endArrow=none;html=1;entryX=1;entryY=0.5;entryDx=0;entryDy=0;exitX=0;exitY=0.5;exitDx=0;exitDy=0;strokeWidth=1;rounded=0;strokeColor=#525252;" parent="1" source="GkxkM57QEwcgZs1372AV-709" target="GkxkM57QEwcgZs1372AV-39" edge="1">
          <mxGeometry width="50" height="50" relative="1" as="geometry">
            <mxPoint x="985" y="805" as="sourcePoint" />
            <mxPoint x="515" y="815" as="targetPoint" />
          </mxGeometry>
        </mxCell>
        <mxCell id="GkxkM57QEwcgZs1372AV-742" value="" style="endArrow=none;html=1;entryX=1;entryY=0.5;entryDx=0;entryDy=0;exitX=0;exitY=0.5;exitDx=0;exitDy=0;strokeWidth=1;rounded=0;strokeColor=#525252;" parent="1" source="GkxkM57QEwcgZs1372AV-699" target="GkxkM57QEwcgZs1372AV-39" edge="1">
          <mxGeometry width="50" height="50" relative="1" as="geometry">
            <mxPoint x="995" y="815" as="sourcePoint" />
            <mxPoint x="515" y="815" as="targetPoint" />
          </mxGeometry>
        </mxCell>
        <mxCell id="GkxkM57QEwcgZs1372AV-743" value="" style="endArrow=none;html=1;entryX=1;entryY=0.5;entryDx=0;entryDy=0;exitX=0;exitY=0.5;exitDx=0;exitDy=0;strokeWidth=1;rounded=0;strokeColor=#525252;" parent="1" source="GkxkM57QEwcgZs1372AV-711" target="GkxkM57QEwcgZs1372AV-39" edge="1">
          <mxGeometry width="50" height="50" relative="1" as="geometry">
            <mxPoint x="985" y="805" as="sourcePoint" />
            <mxPoint x="515" y="815" as="targetPoint" />
          </mxGeometry>
        </mxCell>
        <mxCell id="GkxkM57QEwcgZs1372AV-744" value="" style="endArrow=none;html=1;entryX=1;entryY=0.5;entryDx=0;entryDy=0;strokeWidth=1;rounded=0;strokeColor=#525252;exitX=0;exitY=0.5;exitDx=0;exitDy=0;" parent="1" source="GkxkM57QEwcgZs1372AV-710" target="GkxkM57QEwcgZs1372AV-39" edge="1">
          <mxGeometry width="50" height="50" relative="1" as="geometry">
            <mxPoint x="835" y="765" as="sourcePoint" />
            <mxPoint x="515" y="815" as="targetPoint" />
          </mxGeometry>
        </mxCell>
        <mxCell id="GkxkM57QEwcgZs1372AV-745" value="" style="endArrow=none;html=1;entryX=1;entryY=0.5;entryDx=0;entryDy=0;exitX=0;exitY=0.5;exitDx=0;exitDy=0;strokeWidth=1;rounded=0;strokeColor=#525252;" parent="1" source="GkxkM57QEwcgZs1372AV-698" target="GkxkM57QEwcgZs1372AV-39" edge="1">
          <mxGeometry width="50" height="50" relative="1" as="geometry">
            <mxPoint x="995" y="815" as="sourcePoint" />
            <mxPoint x="515" y="815" as="targetPoint" />
          </mxGeometry>
        </mxCell>
        <mxCell id="GkxkM57QEwcgZs1372AV-746" value="" style="endArrow=none;html=1;entryX=1;entryY=0.5;entryDx=0;entryDy=0;exitX=0;exitY=0.5;exitDx=0;exitDy=0;strokeWidth=1;rounded=0;strokeColor=#525252;" parent="1" source="GkxkM57QEwcgZs1372AV-700" target="GkxkM57QEwcgZs1372AV-39" edge="1">
          <mxGeometry width="50" height="50" relative="1" as="geometry">
            <mxPoint x="1005" y="825" as="sourcePoint" />
            <mxPoint x="515" y="815" as="targetPoint" />
          </mxGeometry>
        </mxCell>
        <mxCell id="GkxkM57QEwcgZs1372AV-747" value="" style="endArrow=none;html=1;entryX=1;entryY=0.5;entryDx=0;entryDy=0;exitX=0;exitY=0.5;exitDx=0;exitDy=0;strokeWidth=1;rounded=0;strokeColor=#525252;" parent="1" source="GkxkM57QEwcgZs1372AV-711" target="GkxkM57QEwcgZs1372AV-41" edge="1">
          <mxGeometry width="50" height="50" relative="1" as="geometry">
            <mxPoint x="995" y="815" as="sourcePoint" />
            <mxPoint x="515" y="935" as="targetPoint" />
          </mxGeometry>
        </mxCell>
        <mxCell id="GkxkM57QEwcgZs1372AV-748" value="" style="endArrow=none;html=1;entryX=1;entryY=0.5;entryDx=0;entryDy=0;exitX=0;exitY=0.5;exitDx=0;exitDy=0;strokeWidth=1;rounded=0;strokeColor=#525252;" parent="1" source="GkxkM57QEwcgZs1372AV-710" target="GkxkM57QEwcgZs1372AV-41" edge="1">
          <mxGeometry width="50" height="50" relative="1" as="geometry">
            <mxPoint x="867" y="825" as="sourcePoint" />
            <mxPoint x="515" y="935" as="targetPoint" />
          </mxGeometry>
        </mxCell>
        <mxCell id="GkxkM57QEwcgZs1372AV-749" value="" style="endArrow=none;html=1;entryX=1;entryY=0.5;entryDx=0;entryDy=0;exitX=0;exitY=0.5;exitDx=0;exitDy=0;strokeWidth=1;rounded=0;strokeColor=#525252;" parent="1" source="GkxkM57QEwcgZs1372AV-699" target="GkxkM57QEwcgZs1372AV-41" edge="1">
          <mxGeometry width="50" height="50" relative="1" as="geometry">
            <mxPoint x="985" y="897" as="sourcePoint" />
            <mxPoint x="515" y="935" as="targetPoint" />
          </mxGeometry>
        </mxCell>
        <mxCell id="GkxkM57QEwcgZs1372AV-750" value="" style="endArrow=none;html=1;entryX=0;entryY=0.5;entryDx=0;entryDy=0;strokeWidth=1;rounded=0;strokeColor=#525252;exitX=1;exitY=0.5;exitDx=0;exitDy=0;" parent="1" source="GkxkM57QEwcgZs1372AV-42" target="GkxkM57QEwcgZs1372AV-711" edge="1">
          <mxGeometry width="50" height="50" relative="1" as="geometry">
            <mxPoint x="515" y="975" as="sourcePoint" />
            <mxPoint x="955" y="989" as="targetPoint" />
          </mxGeometry>
        </mxCell>
        <mxCell id="GkxkM57QEwcgZs1372AV-751" value="" style="endArrow=none;html=1;entryX=0;entryY=0.5;entryDx=0;entryDy=0;exitX=1;exitY=0.5;exitDx=0;exitDy=0;strokeWidth=1;rounded=0;strokeColor=#525252;" parent="1" source="GkxkM57QEwcgZs1372AV-42" target="GkxkM57QEwcgZs1372AV-698" edge="1">
          <mxGeometry width="50" height="50" relative="1" as="geometry">
            <mxPoint x="515" y="975" as="sourcePoint" />
            <mxPoint x="955" y="1001" as="targetPoint" />
          </mxGeometry>
        </mxCell>
        <mxCell id="GkxkM57QEwcgZs1372AV-752" value="" style="endArrow=none;html=1;entryX=0;entryY=0.5;entryDx=0;entryDy=0;exitX=1;exitY=0.5;exitDx=0;exitDy=0;strokeWidth=1;rounded=0;strokeColor=#525252;" parent="1" source="GkxkM57QEwcgZs1372AV-42" target="GkxkM57QEwcgZs1372AV-699" edge="1">
          <mxGeometry width="50" height="50" relative="1" as="geometry">
            <mxPoint x="515" y="975" as="sourcePoint" />
            <mxPoint x="965" y="1011" as="targetPoint" />
          </mxGeometry>
        </mxCell>
        <mxCell id="GkxkM57QEwcgZs1372AV-753" value="" style="endArrow=none;html=1;entryX=0;entryY=0.5;entryDx=0;entryDy=0;exitX=1;exitY=0.5;exitDx=0;exitDy=0;strokeWidth=1;rounded=0;strokeColor=#525252;" parent="1" source="GkxkM57QEwcgZs1372AV-42" target="GkxkM57QEwcgZs1372AV-700" edge="1">
          <mxGeometry width="50" height="50" relative="1" as="geometry">
            <mxPoint x="515" y="975" as="sourcePoint" />
            <mxPoint x="975" y="1021" as="targetPoint" />
          </mxGeometry>
        </mxCell>
        <mxCell id="GkxkM57QEwcgZs1372AV-754" value="" style="endArrow=none;html=1;entryX=1;entryY=0.5;entryDx=0;entryDy=0;exitX=0;exitY=0.5;exitDx=0;exitDy=0;strokeWidth=1;rounded=0;strokeColor=#525252;" parent="1" source="GkxkM57QEwcgZs1372AV-709" target="GkxkM57QEwcgZs1372AV-42" edge="1">
          <mxGeometry width="50" height="50" relative="1" as="geometry">
            <mxPoint x="955" y="965" as="sourcePoint" />
            <mxPoint x="515" y="975" as="targetPoint" />
          </mxGeometry>
        </mxCell>
        <mxCell id="GkxkM57QEwcgZs1372AV-755" value="" style="endArrow=none;html=1;exitX=0;exitY=0.5;exitDx=0;exitDy=0;strokeWidth=1;rounded=0;strokeColor=#525252;entryX=1;entryY=0.5;entryDx=0;entryDy=0;" parent="1" source="GkxkM57QEwcgZs1372AV-710" target="GkxkM57QEwcgZs1372AV-42" edge="1">
          <mxGeometry width="50" height="50" relative="1" as="geometry">
            <mxPoint x="975" y="985" as="sourcePoint" />
            <mxPoint x="480" y="670" as="targetPoint" />
          </mxGeometry>
        </mxCell>
        <mxCell id="GkxkM57QEwcgZs1372AV-756" value="" style="endArrow=none;html=1;entryX=1;entryY=0.5;entryDx=0;entryDy=0;exitX=0;exitY=0.5;exitDx=0;exitDy=0;strokeWidth=1;rounded=0;strokeColor=#525252;" parent="1" source="GkxkM57QEwcgZs1372AV-711" target="GkxkM57QEwcgZs1372AV-43" edge="1">
          <mxGeometry width="50" height="50" relative="1" as="geometry">
            <mxPoint x="945" y="1025" as="sourcePoint" />
            <mxPoint x="515" y="1015" as="targetPoint" />
          </mxGeometry>
        </mxCell>
        <mxCell id="GkxkM57QEwcgZs1372AV-757" value="" style="endArrow=none;html=1;entryX=1;entryY=0.5;entryDx=0;entryDy=0;exitX=0;exitY=0.5;exitDx=0;exitDy=0;strokeWidth=1;rounded=0;strokeColor=#525252;" parent="1" source="GkxkM57QEwcgZs1372AV-709" target="GkxkM57QEwcgZs1372AV-43" edge="1">
          <mxGeometry width="50" height="50" relative="1" as="geometry">
            <mxPoint x="945" y="1005" as="sourcePoint" />
            <mxPoint x="515" y="1015" as="targetPoint" />
          </mxGeometry>
        </mxCell>
        <mxCell id="GkxkM57QEwcgZs1372AV-758" value="" style="endArrow=none;html=1;entryX=1;entryY=0.5;entryDx=0;entryDy=0;exitX=0;exitY=0.5;exitDx=0;exitDy=0;strokeWidth=1;rounded=0;strokeColor=#525252;" parent="1" source="GkxkM57QEwcgZs1372AV-698" target="GkxkM57QEwcgZs1372AV-43" edge="1">
          <mxGeometry width="50" height="50" relative="1" as="geometry">
            <mxPoint x="945" y="1035" as="sourcePoint" />
            <mxPoint x="515" y="1015" as="targetPoint" />
          </mxGeometry>
        </mxCell>
        <mxCell id="GkxkM57QEwcgZs1372AV-759" value="" style="endArrow=none;html=1;entryX=1;entryY=0.5;entryDx=0;entryDy=0;exitX=0;exitY=0.5;exitDx=0;exitDy=0;strokeWidth=1;rounded=0;strokeColor=#525252;" parent="1" source="GkxkM57QEwcgZs1372AV-699" target="GkxkM57QEwcgZs1372AV-43" edge="1">
          <mxGeometry width="50" height="50" relative="1" as="geometry">
            <mxPoint x="955" y="1055" as="sourcePoint" />
            <mxPoint x="515" y="1015" as="targetPoint" />
          </mxGeometry>
        </mxCell>
        <mxCell id="GkxkM57QEwcgZs1372AV-760" value="" style="endArrow=none;html=1;entryX=1;entryY=0.5;entryDx=0;entryDy=0;strokeWidth=1;rounded=0;strokeColor=#525252;exitX=0;exitY=0.5;exitDx=0;exitDy=0;" parent="1" source="GkxkM57QEwcgZs1372AV-710" target="GkxkM57QEwcgZs1372AV-43" edge="1">
          <mxGeometry width="50" height="50" relative="1" as="geometry">
            <mxPoint x="935" y="1015" as="sourcePoint" />
            <mxPoint x="515" y="1015" as="targetPoint" />
          </mxGeometry>
        </mxCell>
        <mxCell id="GkxkM57QEwcgZs1372AV-761" value="" style="endArrow=none;html=1;entryX=1;entryY=0.5;entryDx=0;entryDy=0;exitX=0;exitY=0.5;exitDx=0;exitDy=0;strokeWidth=1;rounded=0;strokeColor=#525252;" parent="1" source="GkxkM57QEwcgZs1372AV-700" target="GkxkM57QEwcgZs1372AV-43" edge="1">
          <mxGeometry width="50" height="50" relative="1" as="geometry">
            <mxPoint x="945" y="1065" as="sourcePoint" />
            <mxPoint x="515" y="1015" as="targetPoint" />
          </mxGeometry>
        </mxCell>
        <mxCell id="GkxkM57QEwcgZs1372AV-762" value="" style="endArrow=none;html=1;entryX=1;entryY=0.5;entryDx=0;entryDy=0;exitX=0;exitY=0.5;exitDx=0;exitDy=0;strokeWidth=1;rounded=0;strokeColor=#525252;" parent="1" source="GkxkM57QEwcgZs1372AV-711" target="GkxkM57QEwcgZs1372AV-44" edge="1">
          <mxGeometry width="50" height="50" relative="1" as="geometry">
            <mxPoint x="800" y="1195" as="sourcePoint" />
            <mxPoint x="515" y="1055" as="targetPoint" />
          </mxGeometry>
        </mxCell>
        <mxCell id="GkxkM57QEwcgZs1372AV-763" value="" style="endArrow=none;html=1;entryX=1;entryY=0.5;entryDx=0;entryDy=0;exitX=0;exitY=0.5;exitDx=0;exitDy=0;strokeWidth=1;rounded=0;strokeColor=#525252;" parent="1" source="GkxkM57QEwcgZs1372AV-699" target="GkxkM57QEwcgZs1372AV-44" edge="1">
          <mxGeometry width="50" height="50" relative="1" as="geometry">
            <mxPoint x="800" y="1175" as="sourcePoint" />
            <mxPoint x="515" y="1055" as="targetPoint" />
          </mxGeometry>
        </mxCell>
        <mxCell id="GkxkM57QEwcgZs1372AV-764" value="" style="endArrow=none;html=1;entryX=1;entryY=0.5;entryDx=0;entryDy=0;exitX=0;exitY=0.5;exitDx=0;exitDy=0;strokeWidth=1;rounded=0;strokeColor=#525252;" parent="1" source="GkxkM57QEwcgZs1372AV-710" target="GkxkM57QEwcgZs1372AV-44" edge="1">
          <mxGeometry width="50" height="50" relative="1" as="geometry">
            <mxPoint x="800" y="1205" as="sourcePoint" />
            <mxPoint x="515" y="1055" as="targetPoint" />
          </mxGeometry>
        </mxCell>
        <mxCell id="GkxkM57QEwcgZs1372AV-765" value="" style="endArrow=none;html=1;entryX=1;entryY=0.5;entryDx=0;entryDy=0;exitX=0;exitY=0.5;exitDx=0;exitDy=0;strokeWidth=1;rounded=0;strokeColor=#525252;" parent="1" source="GkxkM57QEwcgZs1372AV-709" target="GkxkM57QEwcgZs1372AV-44" edge="1">
          <mxGeometry width="50" height="50" relative="1" as="geometry">
            <mxPoint x="810" y="1225" as="sourcePoint" />
            <mxPoint x="515" y="1055" as="targetPoint" />
          </mxGeometry>
        </mxCell>
        <mxCell id="GkxkM57QEwcgZs1372AV-766" value="" style="endArrow=none;html=1;entryX=1;entryY=0.5;entryDx=0;entryDy=0;exitX=0;exitY=0.5;exitDx=0;exitDy=0;strokeWidth=1;rounded=0;strokeColor=#525252;" parent="1" source="GkxkM57QEwcgZs1372AV-698" target="GkxkM57QEwcgZs1372AV-44" edge="1">
          <mxGeometry width="50" height="50" relative="1" as="geometry">
            <mxPoint x="810" y="1195" as="sourcePoint" />
            <mxPoint x="515" y="1055" as="targetPoint" />
          </mxGeometry>
        </mxCell>
        <mxCell id="GkxkM57QEwcgZs1372AV-767" value="" style="endArrow=none;html=1;entryX=1;entryY=0.5;entryDx=0;entryDy=0;exitX=0;exitY=0.5;exitDx=0;exitDy=0;strokeWidth=1;rounded=0;strokeColor=#525252;" parent="1" source="GkxkM57QEwcgZs1372AV-700" target="GkxkM57QEwcgZs1372AV-44" edge="1">
          <mxGeometry width="50" height="50" relative="1" as="geometry">
            <mxPoint x="800" y="1235" as="sourcePoint" />
            <mxPoint x="515" y="1055" as="targetPoint" />
          </mxGeometry>
        </mxCell>
        <mxCell id="GkxkM57QEwcgZs1372AV-768" value="" style="endArrow=none;html=1;entryX=1;entryY=0.5;entryDx=0;entryDy=0;exitX=0;exitY=0.5;exitDx=0;exitDy=0;strokeWidth=1;rounded=0;strokeColor=#525252;" parent="1" source="GkxkM57QEwcgZs1372AV-711" target="GkxkM57QEwcgZs1372AV-45" edge="1">
          <mxGeometry width="50" height="50" relative="1" as="geometry">
            <mxPoint x="935" y="1165" as="sourcePoint" />
            <mxPoint x="515" y="1095" as="targetPoint" />
          </mxGeometry>
        </mxCell>
        <mxCell id="GkxkM57QEwcgZs1372AV-769" value="" style="endArrow=none;html=1;entryX=1;entryY=0.5;entryDx=0;entryDy=0;exitX=0;exitY=0.5;exitDx=0;exitDy=0;strokeWidth=1;rounded=0;strokeColor=#525252;" parent="1" source="GkxkM57QEwcgZs1372AV-709" target="GkxkM57QEwcgZs1372AV-45" edge="1">
          <mxGeometry width="50" height="50" relative="1" as="geometry">
            <mxPoint x="935" y="1145" as="sourcePoint" />
            <mxPoint x="515" y="1095" as="targetPoint" />
          </mxGeometry>
        </mxCell>
        <mxCell id="GkxkM57QEwcgZs1372AV-770" value="" style="endArrow=none;html=1;entryX=1;entryY=0.5;entryDx=0;entryDy=0;exitX=0;exitY=0.5;exitDx=0;exitDy=0;strokeWidth=1;rounded=0;strokeColor=#525252;" parent="1" source="GkxkM57QEwcgZs1372AV-698" target="GkxkM57QEwcgZs1372AV-45" edge="1">
          <mxGeometry width="50" height="50" relative="1" as="geometry">
            <mxPoint x="935" y="1175" as="sourcePoint" />
            <mxPoint x="515" y="1095" as="targetPoint" />
          </mxGeometry>
        </mxCell>
        <mxCell id="GkxkM57QEwcgZs1372AV-771" value="" style="endArrow=none;html=1;exitX=0;exitY=0.5;exitDx=0;exitDy=0;strokeWidth=1;rounded=0;strokeColor=#525252;entryX=1;entryY=0.5;entryDx=0;entryDy=0;" parent="1" source="GkxkM57QEwcgZs1372AV-699" target="GkxkM57QEwcgZs1372AV-45" edge="1">
          <mxGeometry width="50" height="50" relative="1" as="geometry">
            <mxPoint x="945" y="1195" as="sourcePoint" />
            <mxPoint x="480" y="640" as="targetPoint" />
          </mxGeometry>
        </mxCell>
        <mxCell id="GkxkM57QEwcgZs1372AV-772" value="" style="endArrow=none;html=1;exitX=0;exitY=0.5;exitDx=0;exitDy=0;strokeWidth=1;rounded=0;strokeColor=#525252;entryX=1;entryY=0.5;entryDx=0;entryDy=0;" parent="1" source="GkxkM57QEwcgZs1372AV-710" target="GkxkM57QEwcgZs1372AV-45" edge="1">
          <mxGeometry width="50" height="50" relative="1" as="geometry">
            <mxPoint x="945" y="1165" as="sourcePoint" />
            <mxPoint x="500" y="690" as="targetPoint" />
          </mxGeometry>
        </mxCell>
        <mxCell id="GkxkM57QEwcgZs1372AV-773" value="" style="endArrow=none;html=1;entryX=1;entryY=0.5;entryDx=0;entryDy=0;exitX=0;exitY=0.5;exitDx=0;exitDy=0;strokeWidth=1;rounded=0;strokeColor=#525252;" parent="1" source="GkxkM57QEwcgZs1372AV-700" target="GkxkM57QEwcgZs1372AV-45" edge="1">
          <mxGeometry width="50" height="50" relative="1" as="geometry">
            <mxPoint x="935" y="1205" as="sourcePoint" />
            <mxPoint x="515" y="1095" as="targetPoint" />
          </mxGeometry>
        </mxCell>
        <mxCell id="GkxkM57QEwcgZs1372AV-774" value="" style="endArrow=none;html=1;entryX=1;entryY=0.5;entryDx=0;entryDy=0;exitX=0;exitY=0.5;exitDx=0;exitDy=0;strokeWidth=1;rounded=0;strokeColor=#525252;" parent="1" source="GkxkM57QEwcgZs1372AV-711" target="GkxkM57QEwcgZs1372AV-46" edge="1">
          <mxGeometry width="50" height="50" relative="1" as="geometry">
            <mxPoint x="985" y="1065" as="sourcePoint" />
            <mxPoint x="515" y="1135" as="targetPoint" />
          </mxGeometry>
        </mxCell>
        <mxCell id="GkxkM57QEwcgZs1372AV-775" value="" style="endArrow=none;html=1;entryX=1;entryY=0.5;entryDx=0;entryDy=0;exitX=0;exitY=0.5;exitDx=0;exitDy=0;strokeWidth=1;rounded=0;strokeColor=#525252;" parent="1" source="GkxkM57QEwcgZs1372AV-709" target="GkxkM57QEwcgZs1372AV-46" edge="1">
          <mxGeometry width="50" height="50" relative="1" as="geometry">
            <mxPoint x="985" y="1045" as="sourcePoint" />
            <mxPoint x="515" y="1135" as="targetPoint" />
          </mxGeometry>
        </mxCell>
        <mxCell id="GkxkM57QEwcgZs1372AV-776" value="" style="endArrow=none;html=1;entryX=1;entryY=0.5;entryDx=0;entryDy=0;exitX=0;exitY=0.5;exitDx=0;exitDy=0;strokeWidth=1;rounded=0;strokeColor=#525252;" parent="1" source="GkxkM57QEwcgZs1372AV-698" target="GkxkM57QEwcgZs1372AV-46" edge="1">
          <mxGeometry width="50" height="50" relative="1" as="geometry">
            <mxPoint x="985" y="1075" as="sourcePoint" />
            <mxPoint x="515" y="1135" as="targetPoint" />
          </mxGeometry>
        </mxCell>
        <mxCell id="GkxkM57QEwcgZs1372AV-777" value="" style="endArrow=none;html=1;entryX=1;entryY=0.5;entryDx=0;entryDy=0;exitX=0;exitY=0.5;exitDx=0;exitDy=0;strokeWidth=1;rounded=0;strokeColor=#525252;" parent="1" source="GkxkM57QEwcgZs1372AV-699" target="GkxkM57QEwcgZs1372AV-46" edge="1">
          <mxGeometry width="50" height="50" relative="1" as="geometry">
            <mxPoint x="995" y="1095" as="sourcePoint" />
            <mxPoint x="515" y="1135" as="targetPoint" />
          </mxGeometry>
        </mxCell>
        <mxCell id="GkxkM57QEwcgZs1372AV-778" value="" style="endArrow=none;html=1;entryX=1;entryY=0.5;entryDx=0;entryDy=0;strokeWidth=1;rounded=0;strokeColor=#525252;exitX=0;exitY=0.5;exitDx=0;exitDy=0;" parent="1" source="GkxkM57QEwcgZs1372AV-710" target="GkxkM57QEwcgZs1372AV-46" edge="1">
          <mxGeometry width="50" height="50" relative="1" as="geometry">
            <mxPoint x="925" y="1055" as="sourcePoint" />
            <mxPoint x="515" y="1135" as="targetPoint" />
          </mxGeometry>
        </mxCell>
        <mxCell id="GkxkM57QEwcgZs1372AV-779" value="" style="endArrow=none;html=1;entryX=1;entryY=0.5;entryDx=0;entryDy=0;exitX=0;exitY=0.5;exitDx=0;exitDy=0;strokeWidth=1;rounded=0;strokeColor=#525252;" parent="1" source="GkxkM57QEwcgZs1372AV-700" target="GkxkM57QEwcgZs1372AV-46" edge="1">
          <mxGeometry width="50" height="50" relative="1" as="geometry">
            <mxPoint x="805" y="1195" as="sourcePoint" />
            <mxPoint x="515" y="1135" as="targetPoint" />
          </mxGeometry>
        </mxCell>
        <mxCell id="GkxkM57QEwcgZs1372AV-703" value="" style="endArrow=none;html=1;exitX=0;exitY=0.5;exitDx=0;exitDy=0;strokeWidth=1;rounded=0;strokeColor=#525252;entryX=1;entryY=0.5;entryDx=0;entryDy=0;" parent="1" source="GkxkM57QEwcgZs1372AV-709" target="GkxkM57QEwcgZs1372AV-35" edge="1">
          <mxGeometry width="50" height="50" relative="1" as="geometry">
            <mxPoint x="955" y="812" as="sourcePoint" />
            <mxPoint x="505" y="655" as="targetPoint" />
          </mxGeometry>
        </mxCell>
        <mxCell id="GkxkM57QEwcgZs1372AV-704" value="" style="endArrow=none;html=1;exitX=0;exitY=0.5;exitDx=0;exitDy=0;strokeWidth=1;rounded=0;strokeColor=#525252;entryX=1;entryY=0.5;entryDx=0;entryDy=0;" parent="1" source="GkxkM57QEwcgZs1372AV-711" target="GkxkM57QEwcgZs1372AV-35" edge="1">
          <mxGeometry width="50" height="50" relative="1" as="geometry">
            <mxPoint x="955" y="865" as="sourcePoint" />
            <mxPoint x="505" y="655" as="targetPoint" />
          </mxGeometry>
        </mxCell>
        <mxCell id="GkxkM57QEwcgZs1372AV-705" value="" style="endArrow=none;html=1;exitX=0;exitY=0.5;exitDx=0;exitDy=0;strokeWidth=1;rounded=0;strokeColor=#525252;entryX=1;entryY=0.5;entryDx=0;entryDy=0;" parent="1" source="GkxkM57QEwcgZs1372AV-699" target="GkxkM57QEwcgZs1372AV-35" edge="1">
          <mxGeometry width="50" height="50" relative="1" as="geometry">
            <mxPoint x="955" y="903" as="sourcePoint" />
            <mxPoint x="505" y="655" as="targetPoint" />
          </mxGeometry>
        </mxCell>
        <mxCell id="GkxkM57QEwcgZs1372AV-706" value="" style="endArrow=none;html=1;exitX=0;exitY=0.5;exitDx=0;exitDy=0;strokeWidth=1;rounded=0;strokeColor=#525252;entryX=1;entryY=0.5;entryDx=0;entryDy=0;" parent="1" source="GkxkM57QEwcgZs1372AV-700" target="GkxkM57QEwcgZs1372AV-35" edge="1">
          <mxGeometry width="50" height="50" relative="1" as="geometry">
            <mxPoint x="959" y="952" as="sourcePoint" />
            <mxPoint x="505" y="655" as="targetPoint" />
          </mxGeometry>
        </mxCell>
        <mxCell id="GkxkM57QEwcgZs1372AV-707" value="" style="endArrow=none;html=1;exitX=0;exitY=0.5;exitDx=0;exitDy=0;strokeWidth=1;rounded=0;strokeColor=#525252;entryX=1;entryY=0.5;entryDx=0;entryDy=0;" parent="1" source="GkxkM57QEwcgZs1372AV-698" target="GkxkM57QEwcgZs1372AV-35" edge="1">
          <mxGeometry width="50" height="50" relative="1" as="geometry">
            <mxPoint x="877" y="845" as="sourcePoint" />
            <mxPoint x="505" y="655" as="targetPoint" />
          </mxGeometry>
        </mxCell>
        <mxCell id="GkxkM57QEwcgZs1372AV-708" value="" style="endArrow=none;html=1;exitX=0;exitY=0.5;exitDx=0;exitDy=0;strokeWidth=1;rounded=0;strokeColor=#525252;entryX=1;entryY=0.5;entryDx=0;entryDy=0;" parent="1" source="GkxkM57QEwcgZs1372AV-710" target="GkxkM57QEwcgZs1372AV-35" edge="1">
          <mxGeometry width="50" height="50" relative="1" as="geometry">
            <mxPoint x="807" y="772" as="sourcePoint" />
            <mxPoint x="505" y="655" as="targetPoint" />
          </mxGeometry>
        </mxCell>
        <mxCell id="GkxkM57QEwcgZs1372AV-872" value="64" style="text;html=1;align=center;verticalAlign=middle;resizable=0;points=[];autosize=1;strokeColor=none;fillColor=none;" parent="1" vertex="1">
          <mxGeometry x="635" y="670" width="30" height="20" as="geometry" />
        </mxCell>
        <mxCell id="GkxkM57QEwcgZs1372AV-873" value="" style="ellipse;whiteSpace=wrap;html=1;aspect=fixed;rounded=0;" parent="1" vertex="1">
          <mxGeometry x="800" y="400" width="20" height="20" as="geometry" />
        </mxCell>
        <mxCell id="GkxkM57QEwcgZs1372AV-874" value="1" style="text;html=1;align=center;verticalAlign=middle;resizable=0;points=[];autosize=1;strokeColor=none;fillColor=none;" parent="1" vertex="1">
          <mxGeometry x="800" y="430" width="20" height="20" as="geometry" />
        </mxCell>
        <mxCell id="GkxkM57QEwcgZs1372AV-875" value="" style="endArrow=none;html=1;exitX=0;exitY=0.5;exitDx=0;exitDy=0;strokeWidth=1;rounded=0;strokeColor=#525252;entryX=1;entryY=0.5;entryDx=0;entryDy=0;" parent="1" source="GkxkM57QEwcgZs1372AV-873" target="GkxkM57QEwcgZs1372AV-698" edge="1">
          <mxGeometry width="50" height="50" relative="1" as="geometry">
            <mxPoint x="970" y="580" as="sourcePoint" />
            <mxPoint x="760" y="580" as="targetPoint" />
          </mxGeometry>
        </mxCell>
        <mxCell id="GkxkM57QEwcgZs1372AV-876" value="" style="endArrow=none;html=1;exitX=0;exitY=0.5;exitDx=0;exitDy=0;strokeWidth=1;rounded=0;strokeColor=#525252;entryX=1;entryY=0.5;entryDx=0;entryDy=0;" parent="1" source="GkxkM57QEwcgZs1372AV-873" target="GkxkM57QEwcgZs1372AV-711" edge="1">
          <mxGeometry width="50" height="50" relative="1" as="geometry">
            <mxPoint x="887" y="610" as="sourcePoint" />
            <mxPoint x="772" y="540" as="targetPoint" />
          </mxGeometry>
        </mxCell>
        <mxCell id="GkxkM57QEwcgZs1372AV-877" value="" style="endArrow=none;html=1;exitX=0;exitY=0.5;exitDx=0;exitDy=0;strokeWidth=1;rounded=0;strokeColor=#525252;entryX=1;entryY=0.5;entryDx=0;entryDy=0;" parent="1" source="GkxkM57QEwcgZs1372AV-873" target="GkxkM57QEwcgZs1372AV-710" edge="1">
          <mxGeometry width="50" height="50" relative="1" as="geometry">
            <mxPoint x="915" y="620" as="sourcePoint" />
            <mxPoint x="800" y="550" as="targetPoint" />
          </mxGeometry>
        </mxCell>
        <mxCell id="GkxkM57QEwcgZs1372AV-878" value="" style="endArrow=none;html=1;exitX=0;exitY=0.5;exitDx=0;exitDy=0;strokeWidth=1;rounded=0;strokeColor=#525252;entryX=1;entryY=0.5;entryDx=0;entryDy=0;" parent="1" source="GkxkM57QEwcgZs1372AV-873" target="GkxkM57QEwcgZs1372AV-709" edge="1">
          <mxGeometry width="50" height="50" relative="1" as="geometry">
            <mxPoint x="905" y="590" as="sourcePoint" />
            <mxPoint x="790" y="520" as="targetPoint" />
          </mxGeometry>
        </mxCell>
        <mxCell id="GkxkM57QEwcgZs1372AV-879" value="" style="endArrow=none;html=1;exitX=0;exitY=0.5;exitDx=0;exitDy=0;strokeWidth=1;rounded=0;strokeColor=#525252;entryX=1;entryY=0.5;entryDx=0;entryDy=0;" parent="1" source="GkxkM57QEwcgZs1372AV-873" target="GkxkM57QEwcgZs1372AV-699" edge="1">
          <mxGeometry width="50" height="50" relative="1" as="geometry">
            <mxPoint x="855" y="690" as="sourcePoint" />
            <mxPoint x="740" y="620" as="targetPoint" />
          </mxGeometry>
        </mxCell>
        <mxCell id="GkxkM57QEwcgZs1372AV-880" value="" style="endArrow=none;html=1;exitX=0;exitY=0.5;exitDx=0;exitDy=0;strokeWidth=1;rounded=0;strokeColor=#525252;entryX=1;entryY=0.5;entryDx=0;entryDy=0;" parent="1" source="GkxkM57QEwcgZs1372AV-873" target="GkxkM57QEwcgZs1372AV-700" edge="1">
          <mxGeometry width="50" height="50" relative="1" as="geometry">
            <mxPoint x="865" y="715" as="sourcePoint" />
            <mxPoint x="750" y="645" as="targetPoint" />
          </mxGeometry>
        </mxCell>
        <mxCell id="GkxkM57QEwcgZs1372AV-881" value="" style="endArrow=none;html=1;exitX=0;exitY=0.5;exitDx=0;exitDy=0;strokeWidth=1;rounded=0;strokeColor=#525252;entryX=1;entryY=0.5;entryDx=0;entryDy=0;" parent="1" source="GkxkM57QEwcgZs1372AV-873" target="GkxkM57QEwcgZs1372AV-612" edge="1">
          <mxGeometry width="50" height="50" relative="1" as="geometry">
            <mxPoint x="935" y="590" as="sourcePoint" />
            <mxPoint x="820" y="520" as="targetPoint" />
          </mxGeometry>
        </mxCell>
        <mxCell id="GkxkM57QEwcgZs1372AV-882" value="" style="endArrow=none;html=1;exitX=0;exitY=0.5;exitDx=0;exitDy=0;strokeWidth=1;rounded=0;strokeColor=#525252;entryX=1;entryY=0.5;entryDx=0;entryDy=0;" parent="1" source="GkxkM57QEwcgZs1372AV-873" target="GkxkM57QEwcgZs1372AV-622" edge="1">
          <mxGeometry width="50" height="50" relative="1" as="geometry">
            <mxPoint x="925" y="500" as="sourcePoint" />
            <mxPoint x="910" y="450" as="targetPoint" />
          </mxGeometry>
        </mxCell>
        <mxCell id="GkxkM57QEwcgZs1372AV-883" value="" style="endArrow=none;html=1;exitX=0;exitY=0.5;exitDx=0;exitDy=0;strokeWidth=1;rounded=0;strokeColor=#525252;entryX=1;entryY=0.5;entryDx=0;entryDy=0;" parent="1" source="GkxkM57QEwcgZs1372AV-873" target="GkxkM57QEwcgZs1372AV-610" edge="1">
          <mxGeometry width="50" height="50" relative="1" as="geometry">
            <mxPoint x="955" y="560" as="sourcePoint" />
            <mxPoint x="840" y="490" as="targetPoint" />
          </mxGeometry>
        </mxCell>
        <mxCell id="GkxkM57QEwcgZs1372AV-884" value="" style="endArrow=none;html=1;exitX=0;exitY=0.5;exitDx=0;exitDy=0;strokeWidth=1;rounded=0;strokeColor=#525252;entryX=1;entryY=0.5;entryDx=0;entryDy=0;" parent="1" source="GkxkM57QEwcgZs1372AV-873" target="GkxkM57QEwcgZs1372AV-611" edge="1">
          <mxGeometry width="50" height="50" relative="1" as="geometry">
            <mxPoint x="935" y="565" as="sourcePoint" />
            <mxPoint x="820" y="495" as="targetPoint" />
          </mxGeometry>
        </mxCell>
        <mxCell id="GkxkM57QEwcgZs1372AV-885" value="" style="endArrow=none;html=1;exitX=0;exitY=0.5;exitDx=0;exitDy=0;strokeWidth=1;rounded=0;strokeColor=#525252;entryX=1;entryY=0.5;entryDx=0;entryDy=0;" parent="1" source="GkxkM57QEwcgZs1372AV-873" target="GkxkM57QEwcgZs1372AV-624" edge="1">
          <mxGeometry width="50" height="50" relative="1" as="geometry">
            <mxPoint x="975" y="560" as="sourcePoint" />
            <mxPoint x="860" y="490" as="targetPoint" />
          </mxGeometry>
        </mxCell>
        <mxCell id="GkxkM57QEwcgZs1372AV-886" value="" style="endArrow=none;html=1;exitX=0;exitY=0.5;exitDx=0;exitDy=0;strokeWidth=1;rounded=0;strokeColor=#525252;entryX=1;entryY=0.5;entryDx=0;entryDy=0;" parent="1" source="GkxkM57QEwcgZs1372AV-873" target="GkxkM57QEwcgZs1372AV-623" edge="1">
          <mxGeometry width="50" height="50" relative="1" as="geometry">
            <mxPoint x="990" y="550" as="sourcePoint" />
            <mxPoint x="875" y="480" as="targetPoint" />
          </mxGeometry>
        </mxCell>
      </root>
    </mxGraphModel>
  </diagram>
</mxfile>
